<svg width="30" height="30" viewBox="0 0 30 30" fill="none" xmlns="http://www.w3.org/2000/svg">
<path d="M1 28.81C1 28.81 2.78694 16.1119 8.60714 10.7781C9.16413 10.2676 9.97854 10.2257 10.5729 10.6921C12.6849 12.3497 17.4854 17.2966 18.96 28.8L1 28.81Z" stroke="#212121" stroke-width="1.5" stroke-miterlimit="10"/>
<path d="M16.0801 18.0398C16.0801 18.0398 17.7658 15.9236 19.4301 14.6319C19.9607 14.2201 20.6767 14.2161 21.2182 14.6135C23.0773 15.978 27.2883 19.9207 28.6601 28.3598H18.5301" stroke="#212121" stroke-width="1.5" stroke-miterlimit="10"/>
<path d="M22.3694 8.02977C23.4795 8.02977 24.3794 7.12986 24.3794 6.01977C24.3794 4.90967 23.4795 4.00977 22.3694 4.00977C21.2593 4.00977 20.3594 4.90967 20.3594 6.01977C20.3594 7.12986 21.2593 8.02977 22.3694 8.02977Z" stroke="#212121" stroke-width="1.5" stroke-miterlimit="10"/>
<path d="M22.3691 0V2.48" stroke="#212121" stroke-width="1.5" stroke-miterlimit="10"/>
<path d="M18.0391 1.62012L19.7991 3.38012" stroke="#212121" stroke-width="1.5" stroke-miterlimit="10"/>
<path d="M16.1309 5.83008H18.6109" stroke="#212121" stroke-width="1.5" stroke-miterlimit="10"/>
<path d="M17.75 10.1602L19.51 8.41016" stroke="#212121" stroke-width="1.5" stroke-miterlimit="10"/>
<path d="M21.9609 12.0798V9.58984" stroke="#212121" stroke-width="1.5" stroke-miterlimit="10"/>
<path d="M26.2891 10.4502L24.5391 8.7002" stroke="#212121" stroke-width="1.5" stroke-miterlimit="10"/>
<path d="M28.2107 6.24023H25.7207" stroke="#212121" stroke-width="1.5" stroke-miterlimit="10"/>
<path d="M26.5801 1.91016L24.8301 3.67016" stroke="#212121" stroke-width="1.5" stroke-miterlimit="10"/>
</svg>
