<svg width="27" height="26" viewBox="0 0 27 26" fill="none" xmlns="http://www.w3.org/2000/svg">
<path d="M3.39258 14.248L7.70962 24.9996H20.0535L24.469 14.248H3.39258Z" stroke="#212121" stroke-width="1.5" stroke-miterlimit="10"/>
<path d="M1.70242 8.56882C1.70242 8.56882 5.44494 0.870344 13.9149 1.00166C13.9149 1.00166 23.4518 1.39561 25.5201 9.30748C25.5201 9.30748 27.5555 14.2647 23.2877 14.2647H4.8212C4.8212 14.2647 -0.940356 15.3317 1.68599 8.56882H1.70242Z" stroke="#212121" stroke-width="1.5" stroke-miterlimit="10"/>
<path d="M10.3524 8.28981C11.2136 8.28981 11.9118 7.59164 11.9118 6.73041C11.9118 5.86918 11.2136 5.17102 10.3524 5.17102C9.49113 5.17102 8.79297 5.86918 8.79297 6.73041C8.79297 7.59164 9.49113 8.28981 10.3524 8.28981Z" stroke="#212121" stroke-width="1.5" stroke-miterlimit="10"/>
<path d="M21.7058 3.7192C21.8589 3.4106 21.3576 2.85011 20.5862 2.46732C19.8147 2.08452 19.0651 2.02437 18.912 2.33296C18.7589 2.64155 19.2602 3.20204 20.0317 3.58484C20.8031 3.96764 21.5527 4.02779 21.7058 3.7192Z" stroke="#212121" stroke-width="1.5" stroke-miterlimit="10"/>
<path d="M3.43201 6.76937C3.9019 6.3845 4.15708 5.91899 4.00198 5.72963C3.84688 5.54027 3.34023 5.69877 2.87034 6.08364C2.40045 6.46852 2.14526 6.93402 2.30036 7.12338C2.45546 7.31274 2.96211 7.15425 3.43201 6.76937Z" stroke="#212121" stroke-width="1.5" stroke-miterlimit="10"/>
<path d="M20.283 10.7354C20.8632 10.7354 21.3335 10.265 21.3335 9.68482C21.3335 9.10462 20.8632 8.63428 20.283 8.63428C19.7028 8.63428 19.2324 9.10462 19.2324 9.68482C19.2324 10.265 19.7028 10.7354 20.283 10.7354Z" stroke="#212121" stroke-width="1.5" stroke-miterlimit="10"/>
<path d="M13.8984 16.76V25.0002" stroke="#212121" stroke-width="1.5" stroke-miterlimit="10"/>
<path d="M8.77734 17.0719L11.0918 25.0002" stroke="#212121" stroke-width="1.5" stroke-miterlimit="10"/>
<path d="M19.0695 17.0719L16.7715 25.0002" stroke="#212121" stroke-width="1.5" stroke-miterlimit="10"/>
</svg>
