<svg width="31" height="29" viewBox="0 0 31 29" fill="none" xmlns="http://www.w3.org/2000/svg">
<path d="M3.36497 16.0752L1.30902 17.771C1.03912 17.9936 1.00078 18.3929 1.2234 18.6628L8.38168 27.3416C8.6043 27.6115 9.00357 27.6498 9.27348 27.4272L11.3294 25.7315C11.5993 25.5088 11.6377 25.1096 11.415 24.8397L4.25677 16.1609C4.03415 15.891 3.63488 15.8526 3.36497 16.0752Z" stroke="#212121" stroke-width="1.5" stroke-miterlimit="10"/>
<path d="M5.57786 12.5789L3.52191 14.2746C3.25201 14.4973 3.21367 14.8965 3.43629 15.1664L12.2278 25.8254C12.4504 26.0953 12.8497 26.1336 13.1196 25.911L15.1755 24.2152C15.4454 23.9926 15.4838 23.5933 15.2611 23.3234L6.46966 12.6645C6.24704 12.3946 5.84777 12.3563 5.57786 12.5789Z" stroke="#212121" stroke-width="1.5" stroke-miterlimit="10"/>
<path d="M27.0686 12.7492L29.1246 11.0535C29.3945 10.8309 29.4328 10.4316 29.2102 10.1617L22.0519 1.48288C21.8293 1.21298 21.43 1.17464 21.1601 1.39726L19.1042 3.09301C18.8343 3.31562 18.7959 3.7149 19.0186 3.9848L26.1768 12.6636C26.3994 12.9335 26.7987 12.9718 27.0686 12.7492Z" stroke="#212121" stroke-width="1.5" stroke-miterlimit="10"/>
<path d="M24.8635 16.2382L26.9195 14.5425C27.1894 14.3199 27.2277 13.9206 27.0051 13.6507L18.2136 2.99178C17.991 2.72188 17.5917 2.68354 17.3218 2.90616L15.2659 4.60191C14.996 4.82453 14.9576 5.2238 15.1803 5.49371L23.9717 16.1526C24.1944 16.4225 24.5936 16.4609 24.8635 16.2382Z" stroke="#212121" stroke-width="1.5" stroke-miterlimit="10"/>
<path d="M18.109 9.02584L9.39648 16.2119L12.3432 19.7845L21.0557 12.5985L18.109 9.02584Z" stroke="#212121" stroke-width="1.5" stroke-miterlimit="10"/>
</svg>
