<svg width="27" height="27" viewBox="0 0 27 27" fill="none" xmlns="http://www.w3.org/2000/svg">
<path d="M8.56055 11.8537L13.4996 7.90247L18.4386 11.8537L16.7923 18.1098H10.2069L8.56055 11.8537Z" stroke="black" stroke-width="1.5"/>
<path d="M13.5 3.95117V8.23166" stroke="black" stroke-width="1.5"/>
<path d="M22.3907 10.5366L18.4395 11.8537" stroke="black" stroke-width="1.5"/>
<path d="M16.793 18.1097L19.0978 20.7439" stroke="black" stroke-width="1.5"/>
<path d="M8.23242 21.0732L10.208 18.1097" stroke="black" stroke-width="1.5"/>
<path d="M4.60938 10.5366L8.56059 11.8537" stroke="black" stroke-width="1.5"/>
<path d="M10 1L13.5 4L17 1" stroke="black" stroke-width="1.5"/>
<path d="M24.2012 5.92688L22.2012 10.3946L26.4587 12.81" stroke="black" stroke-width="1.5"/>
<path d="M24.1211 21.1324L19.238 20.7919L18.435 25.6205" stroke="black" stroke-width="1.5"/>
<path d="M9.51172 25.5807L8.40409 21.2539L4.00054 22" stroke="black" stroke-width="1.5"/>
<path d="M0.658203 12.7596L4.96686 10.4368L3.06391 5.92688" stroke="black" stroke-width="1.5"/>
<circle cx="13.5" cy="13.5" r="12.75" stroke="#212121" stroke-width="1.5"/>
</svg>
