<svg width="30" height="31" viewBox="0 0 30 31" fill="none" xmlns="http://www.w3.org/2000/svg">
<path d="M11.5494 7.39001C12.7589 7.39001 13.7394 6.40951 13.7394 5.20001C13.7394 3.99051 12.7589 3.01001 11.5494 3.01001C10.3399 3.01001 9.35938 3.99051 9.35938 5.20001C9.35938 6.40951 10.3399 7.39001 11.5494 7.39001Z" stroke="#212121" stroke-width="1.5" stroke-miterlimit="10"/>
<path d="M5.34039 11.78C6.54989 11.78 7.53039 10.7995 7.53039 9.59002C7.53039 8.38052 6.54989 7.40002 5.34039 7.40002C4.13089 7.40002 3.15039 8.38052 3.15039 9.59002C3.15039 10.7995 4.13089 11.78 5.34039 11.78Z" stroke="#212121" stroke-width="1.5" stroke-miterlimit="10"/>
<path d="M17.7505 11.78C18.9601 11.78 19.9405 10.7995 19.9405 9.59002C19.9405 8.38052 18.9601 7.40002 17.7505 7.40002C16.541 7.40002 15.5605 8.38052 15.5605 9.59002C15.5605 10.7995 16.541 11.78 17.7505 11.78Z" stroke="#212121" stroke-width="1.5" stroke-miterlimit="10"/>
<path d="M15.5201 18.97C16.7296 18.97 17.7101 17.9895 17.7101 16.78C17.7101 15.5705 16.7296 14.59 15.5201 14.59C14.3106 14.59 13.3301 15.5705 13.3301 16.78C13.3301 17.9895 14.3106 18.97 15.5201 18.97Z" stroke="#212121" stroke-width="1.5" stroke-miterlimit="10"/>
<path d="M7.57086 18.97C8.78036 18.97 9.76086 17.9895 9.76086 16.78C9.76086 15.5705 8.78036 14.59 7.57086 14.59C6.36136 14.59 5.38086 15.5705 5.38086 16.78C5.38086 17.9895 6.36136 18.97 7.57086 18.97Z" stroke="#212121" stroke-width="1.5" stroke-miterlimit="10"/>
<path d="M11.55 22.1C17.3766 22.1 22.1 17.3766 22.1 11.55C22.1 5.7234 17.3766 1 11.55 1C5.7234 1 1 5.7234 1 11.55C1 17.3766 5.7234 22.1 11.55 22.1Z" stroke="#212121" stroke-width="1.5" stroke-miterlimit="10"/>
<path d="M11.5504 12.45C12.0474 12.45 12.4504 12.0471 12.4504 11.55C12.4504 11.053 12.0474 10.65 11.5504 10.65C11.0533 10.65 10.6504 11.053 10.6504 11.55C10.6504 12.0471 11.0533 12.45 11.5504 12.45Z" stroke="#212121" stroke-width="1.5" stroke-miterlimit="10"/>
<path d="M29.4707 29.8101C29.4707 29.8101 25.0407 29.2401 25.2707 20.6001C25.2707 20.6001 25.7107 9.36014 19.7207 4.89014" stroke="#212121" stroke-width="1.5" stroke-miterlimit="10"/>
</svg>
