<svg width="29" height="29" viewBox="0 0 29 29" fill="none" xmlns="http://www.w3.org/2000/svg">
<path d="M7.75724 18.4694C7.75724 18.4694 -1.77154 22.0593 1.80177 27.4854C1.80177 27.4854 7.01283 30.6948 11.1817 21.0832C11.1817 21.0832 12.6044 18.9657 14.1264 20.1568L15.8468 21.4968C15.8468 21.4968 16.6078 22.4894 18.1132 20.9674L21.0744 18.0062L11.1321 8.06384L8.3032 10.8927C8.3032 10.8927 6.71262 12.4231 7.42641 13.2253L8.91529 14.7142C8.91529 14.7142 10.553 17.0798 7.75724 18.4694Z" stroke="#212121" stroke-width="1.5" stroke-miterlimit="10"/>
<path d="M21.0752 18.0228L11.1328 8.06389L17.622 1.69404C18.0135 1.3097 18.6417 1.31261 19.0296 1.70057L27.5437 10.2146C27.9358 10.6068 27.934 11.2431 27.5396 11.6329L21.0752 18.0228Z" stroke="#212121" stroke-width="1.5" stroke-miterlimit="10"/>
<path d="M13.6953 5.56555C13.6953 5.56555 13.8938 8.44405 16.5242 7.51763C16.5242 7.51763 19.7335 5.6979 19.535 7.51763C19.535 7.51763 17.98 9.99909 19.7004 11.4218C19.7004 11.4218 20.7757 12.1828 22.3308 10.9751C22.3308 10.9751 22.8105 10.4788 23.191 10.9751C23.191 10.9751 24.0513 11.9843 21.2886 14.4657C21.2886 14.4657 20.5111 15.1936 21.2555 15.8388C21.2555 15.8388 22.1488 16.7156 23.3068 15.8057" stroke="#212121" stroke-width="1.5" stroke-miterlimit="10"/>
</svg>
