<svg width="1280" height="592" viewBox="0 0 1280 592" fill="none" xmlns="http://www.w3.org/2000/svg">
<path d="M0 592L1280 592V0L0 0V592Z" fill="url(#paint0_linear_2031_2850)"/>
<path d="M261.895 286.837L119.019 428.655C104.078 443.485 114.569 469 135.619 469H421.381C442.431 469 452.922 443.485 437.981 428.655L295.105 286.837C285.919 277.721 271.104 277.721 261.918 286.837H261.895Z" fill="#07B159"/>
<path d="M293.559 310.888C293.559 319.589 286.507 326.642 277.806 326.642C269.105 326.642 262.053 319.589 262.053 310.888H293.559Z" fill="#06071F"/>
<path d="M261.184 306.069C261.184 302.325 264.217 299.291 267.961 299.291C271.705 299.291 274.739 302.325 274.739 306.069" stroke="#06071F" stroke-width="2" stroke-miterlimit="10"/>
<path d="M282.307 306.069C282.307 302.325 285.341 299.291 289.084 299.291C292.828 299.291 295.862 302.325 295.862 306.069" stroke="#06071F" stroke-width="2" stroke-miterlimit="10"/>
<path d="M412.181 384.87H359.986V469.67H412.181V384.87Z" fill="#FFE14F"/>
<path d="M386.078 415.461C389.139 415.461 391.619 412.98 391.619 409.92C391.619 406.86 389.139 404.379 386.078 404.379C383.018 404.379 380.537 406.86 380.537 409.92C380.537 412.98 383.018 415.461 386.078 415.461Z" fill="#231815"/>
<path d="M379.77 391.522C379.77 390.586 379.011 389.828 378.075 389.828C377.139 389.828 376.381 390.586 376.381 391.522V400.338C376.381 401.273 377.139 402.032 378.075 402.032C379.011 402.032 379.77 401.273 379.77 400.338V391.522Z" fill="#231815"/>
<path d="M395.785 391.522C395.785 390.586 395.027 389.828 394.091 389.828C393.155 389.828 392.396 390.586 392.396 391.522V400.338C392.396 401.273 393.155 402.032 394.091 402.032C395.027 402.032 395.785 401.273 395.785 400.338V391.522Z" fill="#231815"/>
<path d="M1149.01 123C1181.01 123 1207 148.972 1207 180.97V469H1091V180.97C1091.01 148.972 1117 123 1149.01 123Z" fill="#D71F39"/>
<path d="M996.652 231.141L798.336 427.862C782.721 443.351 793.685 470 815.684 470H1212.32C1234.32 470 1245.28 443.351 1229.66 427.862L1031.35 231.141C1021.75 221.62 1006.26 221.62 996.664 231.141H996.652Z" fill="#FFE14F"/>
<path d="M1096 426C1115.88 426 1132 409.882 1132 390C1132 370.118 1115.88 354 1096 354C1076.12 354 1060 370.118 1060 390C1060 409.882 1076.12 426 1096 426Z" fill="#421D48"/>
<path d="M902.5 294C928.716 294 950 315.318 950 341.576V470H855V341.576C855 315.318 876.284 294 902.5 294Z" fill="#D71F39"/>
<path d="M997.48 254.396H997.468C995.54 254.396 993.977 255.959 993.977 257.887V276.134C993.977 278.062 995.54 279.625 997.468 279.625H997.48C999.408 279.625 1000.97 278.062 1000.97 276.134V257.887C1000.97 255.959 999.408 254.396 997.48 254.396Z" fill="#231815"/>
<path d="M1030.56 254.396H1030.55C1028.62 254.396 1027.06 255.959 1027.06 257.887V276.134C1027.06 278.062 1028.62 279.625 1030.55 279.625H1030.56C1032.49 279.625 1034.06 278.062 1034.06 276.134V257.887C1034.06 255.959 1032.49 254.396 1030.56 254.396Z" fill="#231815"/>
<path d="M994.418 288.916C994.418 299.857 1003.29 308.729 1014.23 308.729C1025.17 308.729 1034.04 299.857 1034.04 288.916H994.406H994.418Z" fill="#231815"/>
<path d="M914.5 331C916.433 331 918 329.209 918 327C918 324.791 916.433 323 914.5 323C912.567 323 911 324.791 911 327C911 329.209 912.567 331 914.5 331Z" fill="#231815"/>
<path d="M898.5 320C900.433 320 902 318.433 902 316.5C902 314.567 900.433 313 898.5 313C896.567 313 895 314.567 895 316.5C895 318.433 896.567 320 898.5 320Z" fill="#231815"/>
<path d="M883.729 316C877.074 325.911 879.564 339.425 889.306 346.207C899.048 352.976 912.334 350.444 919 340.533L883.741 316H883.729Z" fill="#231815"/>
<path d="M1089.92 368.62C1091.94 365.368 1096.2 364.375 1099.45 366.384C1102.7 368.393 1103.69 372.662 1101.68 375.914" stroke="#231815" stroke-width="2" stroke-miterlimit="10"/>
<path d="M1106.18 378.712C1108.2 375.46 1112.46 374.467 1115.71 376.476C1118.96 378.485 1119.95 382.753 1117.95 386.006" stroke="#231815" stroke-width="2" stroke-miterlimit="10"/>
<path d="M1099.35 391.948C1102.55 391.948 1105.14 389.357 1105.14 386.161C1105.14 382.965 1102.55 380.374 1099.35 380.374C1096.16 380.374 1093.56 382.965 1093.56 386.161C1093.56 389.357 1096.16 391.948 1099.35 391.948Z" fill="#231815"/>
<path d="M1165.03 154.4C1165.03 163.487 1157.67 170.853 1148.58 170.853C1139.49 170.853 1132.13 163.487 1132.13 154.4H1165.03Z" fill="#06071F"/>
<path d="M1131.22 149.366C1131.22 145.456 1134.39 142.288 1138.3 142.288C1142.21 142.288 1145.38 145.456 1145.38 149.366" stroke="#06071F" stroke-width="2" stroke-miterlimit="10"/>
<path d="M1153.28 149.366C1153.28 145.456 1156.45 142.288 1160.36 142.288C1164.27 142.288 1167.44 145.456 1167.44 149.366" stroke="#06071F" stroke-width="2" stroke-miterlimit="10"/>
<path d="M515.354 188.572V197.678H520.48V201.41H515.354V210.229H510.76V188.572H515.354ZM487.504 207.891V191.197H504.115V194.889H492.016V204.199C499.111 204.179 503.069 203.953 507.438 203.051L507.889 206.701C503.09 207.727 498.722 207.891 490.498 207.891H487.504ZM490.703 218.227C490.703 213.633 495.584 210.926 503.254 210.926C510.862 210.926 515.661 213.633 515.682 218.227C515.661 222.902 510.862 225.609 503.254 225.609C495.584 225.609 490.703 222.902 490.703 218.227ZM495.215 218.227C495.194 220.626 498.168 221.959 503.254 221.959C508.237 221.959 511.231 220.626 511.252 218.227C511.231 215.868 508.237 214.556 503.254 214.576C498.168 214.556 495.194 215.868 495.215 218.227ZM553.252 188.613V215.684H548.658V188.613H553.252ZM522.408 206.947C528.417 204.835 531.493 199.605 531.473 194.273V190.664H536.189V194.273C536.169 199.441 539.204 204.322 545.09 206.291L542.752 209.9C538.527 208.424 535.513 205.471 533.872 201.677C532.231 205.737 529.155 208.978 524.787 210.557L522.408 206.947ZM528.725 224.912V213.1H533.318V221.221H554.277V224.912H528.725ZM570.684 191.156C576.569 191.136 580.855 194.848 580.896 200.098C580.855 205.368 576.569 209.06 570.684 209.08C564.859 209.06 560.491 205.368 560.512 200.098C560.491 194.848 564.859 191.136 570.684 191.156ZM558.83 214.207C565.516 214.207 574.765 214.125 582.783 212.977L583.152 216.299C574.847 217.878 565.946 217.939 559.404 217.939L558.83 214.207ZM565.023 200.098C565.003 203.194 567.443 205.102 570.684 205.102C573.965 205.102 576.405 203.194 576.426 200.098C576.405 197.021 573.985 195.094 570.684 195.094C567.443 195.094 565.003 197.021 565.023 200.098ZM584.998 225.691V188.572H589.551V225.691H584.998ZM638.729 207.973V211.541H604.85V207.973H638.729ZM608.664 218.021V214.371H634.463V225.65H629.869V218.021H608.664ZM609.197 205.225V189.475H634.668V193.043H613.75V195.586H633.766V198.99H613.75V201.738H634.955V205.225H609.197ZM672.279 188.572V207.727H667.727V203.707H660.262V206.537H642.912V190.213H647.465V194.889H655.75V190.213H660.262V193.494H667.727V188.572H672.279ZM647.465 202.928H655.75V198.375H647.465V202.928ZM647.834 212.812V209.244H672.279V218.76H652.428V221.59H673.469V225.199H647.875V215.396H667.727V212.812H647.834ZM660.262 200.221H667.727V196.939H660.262V200.221ZM706.773 188.613V200.262H711.941V204.035H706.773V216.299H702.221V188.613H706.773ZM677.57 196.365V192.715H686.307V188.572H690.859V192.715H699.555V196.365H677.57ZM679.457 204.979C679.457 200.713 683.169 197.883 688.562 197.883C693.915 197.883 697.606 200.713 697.627 204.979C697.606 209.224 693.915 211.992 688.562 211.992C683.169 211.992 679.457 209.224 679.457 204.979ZM683.025 224.912V214.125H687.578V221.221H708.25V224.912H683.025ZM683.887 204.979C683.866 207.214 685.753 208.485 688.562 208.465C691.372 208.485 693.279 207.214 693.279 204.979C693.279 202.723 691.372 201.41 688.562 201.41C685.753 201.41 683.866 202.723 683.887 204.979ZM752.834 188.572V203.338H758.535V207.111H752.834V225.65H748.322V188.572H752.834ZM723.59 197.924V194.273H732.367V189.105H736.92V194.273H745.451V197.924H723.59ZM725.312 209.08C725.271 203.953 729.25 200.323 734.664 200.344C739.996 200.323 743.954 203.953 743.975 209.08C743.954 214.187 739.996 217.775 734.664 217.775C729.25 217.775 725.271 214.187 725.312 209.08ZM729.66 209.08C729.64 212.095 731.752 214.022 734.664 214.002C737.515 214.022 739.586 212.095 739.627 209.08C739.586 206.065 737.515 204.076 734.664 204.076C731.752 204.076 729.64 206.065 729.66 209.08ZM789.994 189.844V200.385H768.707V204.076H790.814V207.727H764.113V196.939H785.318V193.535H764.031V189.844H789.994ZM760.053 214.535V210.885H793.932V214.535H779.207V225.691H774.654V214.535H760.053ZM477.701 238.572V253.338H483.402V257.111H477.701V275.65H473.189V238.572H477.701ZM448.457 247.924V244.273H457.234V239.105H461.787V244.273H470.318V247.924H448.457ZM450.18 259.08C450.139 253.953 454.117 250.323 459.531 250.344C464.863 250.323 468.821 253.953 468.842 259.08C468.821 264.187 464.863 267.775 459.531 267.775C454.117 267.775 450.139 264.187 450.18 259.08ZM454.527 259.08C454.507 262.095 456.619 264.022 459.531 264.002C462.382 264.022 464.453 262.095 464.494 259.08C464.453 256.065 462.382 254.076 459.531 254.076C456.619 254.076 454.507 256.065 454.527 259.08ZM514.861 239.844V250.385H493.574V254.076H515.682V257.727H488.98V246.939H510.186V243.535H488.898V239.844H514.861ZM484.92 264.535V260.885H518.799V264.535H504.074V275.691H499.521V264.535H484.92ZM555.057 256.783V260.475H521.26V256.783H535.861V251.615H540.373V256.783H555.057ZM523.105 250.18C530.755 249.216 535.779 245.012 535.779 240.582V239.188H540.414V240.582C540.414 245.114 545.397 249.216 553.129 250.18L551.365 253.748C545.295 252.825 540.435 250.077 538.076 246.181C535.697 250.057 530.857 252.825 524.746 253.748L523.105 250.18ZM524.992 266.996V263.428H550.914V275.65H546.361V266.996H524.992ZM589.551 238.572V275.65H585.162V238.572H589.551ZM557.928 254.609C557.928 246.447 561.086 241.382 565.926 241.402C570.417 241.382 573.473 245.586 574.006 252.518H577.574V239.229H581.922V273.846H577.574V256.209H574.047C573.616 263.448 570.52 267.878 565.926 267.857C561.086 267.878 557.928 262.792 557.928 254.609ZM562.152 254.609C562.132 260.413 563.567 263.53 565.926 263.51C568.387 263.53 569.843 260.413 569.863 254.609C569.843 248.826 568.387 245.688 565.926 245.709C563.567 245.688 562.132 248.826 562.152 254.609ZM607.557 247.473C607.536 254.363 610.838 261.131 616.744 263.715L613.996 267.365C609.812 265.314 606.859 261.377 605.28 256.517C603.66 261.644 600.625 265.909 596.359 268.062L593.488 264.371C599.538 261.541 602.901 254.404 602.922 247.473V241.566H607.557V247.473ZM612.643 254.24V250.549H620.436V238.572H624.947V275.691H620.436V254.24H612.643ZM669.367 238.572V247.965H674.535V251.779H669.367V260.926H664.814V238.572H669.367ZM640.164 245.791V242.141H648.9V238.326H653.453V242.141H662.148V245.791H640.164ZM642.051 253.789C642.051 249.831 645.742 247.145 651.156 247.145C656.529 247.145 660.2 249.831 660.221 253.789C660.2 257.788 656.509 260.434 651.156 260.434C645.742 260.434 642.051 257.788 642.051 253.789ZM645.414 275.199V262.689H669.367V275.199H645.414ZM646.48 253.789C646.46 255.86 648.347 257.029 651.156 257.029C653.966 257.029 655.873 255.86 655.873 253.789C655.873 251.779 653.966 250.59 651.156 250.59C648.347 250.59 646.46 251.779 646.48 253.789ZM649.926 271.508H664.855V266.299H649.926V271.508ZM685.568 242.92C685.527 251.677 684.563 260.105 679.621 267.406L676.053 265.479C680.134 259.716 681.344 253.687 681.61 246.611H677.119V242.92H685.568ZM684.42 267.488C688.87 261.11 689.752 253.953 689.916 246.611H686.676V242.92H693.854C693.833 246.099 693.771 249.4 693.423 252.682H697.176V239.475H701.482V273.887H697.176V256.373H692.931C692.131 260.946 690.634 265.417 687.906 269.457L684.42 267.488ZM704.271 275.65V238.572H708.66V275.65H704.271ZM741.76 238.572V253.338H747.461V257.111H741.76V275.65H737.248V238.572H741.76ZM712.516 247.924V244.273H721.293V239.105H725.846V244.273H734.377V247.924H712.516ZM714.238 259.08C714.197 253.953 718.176 250.323 723.59 250.344C728.922 250.323 732.88 253.953 732.9 259.08C732.88 264.187 728.922 267.775 723.59 267.775C718.176 267.775 714.197 264.187 714.238 259.08ZM718.586 259.08C718.565 262.095 720.678 264.022 723.59 264.002C726.44 264.022 728.512 262.095 728.553 259.08C728.512 256.065 726.44 254.076 723.59 254.076C720.678 254.076 718.565 256.065 718.586 259.08ZM760.586 248.293C760.606 254.281 762.657 260.516 767.682 263.674L765.18 267.16C761.837 265.15 759.663 261.705 758.433 257.665C757.1 262.115 754.721 265.889 751.234 268.021L748.404 264.617C753.798 261.356 756.177 254.814 756.197 248.498V241.854H760.586V248.293ZM763.703 255.102V251.328H768.994V239.229H773.301V273.846H768.994V255.102H763.703ZM776.623 275.65V238.572H781.012V275.65H776.623ZM819.197 267.406V271.139H785.318V267.406H793.152V258.034C790.199 256.332 788.415 253.666 788.436 250.385C788.415 244.479 794.198 240.582 802.176 240.582C810.194 240.582 816.019 244.479 815.998 250.385C816.019 253.625 814.275 256.229 811.404 257.932V267.406H819.197ZM792.906 250.385C792.886 254.179 796.639 256.599 802.176 256.578C807.692 256.599 811.527 254.179 811.527 250.385C811.527 246.529 807.692 244.171 802.176 244.191C796.639 244.171 792.886 246.529 792.906 250.385ZM797.664 267.406H806.77V259.675C805.354 259.982 803.816 260.146 802.176 260.146C800.576 260.146 799.059 259.982 797.664 259.695V267.406ZM829.246 242.305L828.795 263.264H824.16L823.668 242.305H829.246ZM823.299 269.129C823.278 267.406 824.734 265.991 826.498 265.971C828.2 265.991 829.656 267.406 829.656 269.129C829.656 270.893 828.2 272.328 826.498 272.328C824.734 272.328 823.278 270.893 823.299 269.129Z" fill="white"/>
<defs>
<linearGradient id="paint0_linear_2031_2850" x1="1280" y1="295.993" x2="0" y2="295.993" gradientUnits="userSpaceOnUse">
<stop stop-color="#18EC7E"/>
<stop offset="1" stop-color="#07B159"/>
</linearGradient>
</defs>
</svg>
