<svg width="31" height="30" viewBox="0 0 31 30" fill="none" xmlns="http://www.w3.org/2000/svg">
<path d="M10.168 15C12.9293 15 15.168 12.7614 15.168 10C15.168 7.23857 12.9293 5 10.168 5C7.40654 5 5.16797 7.23857 5.16797 10C5.16797 12.7614 7.40654 15 10.168 15ZM21.418 15C23.4891 15 25.168 13.3211 25.168 11.25C25.168 9.17894 23.4891 7.5 21.418 7.5C19.3468 7.5 17.668 9.17894 17.668 11.25C17.668 13.3211 19.3468 15 21.418 15ZM5.48047 17.5C3.92717 17.5 2.66797 18.7592 2.66797 20.3125V20.625C2.66797 20.625 2.66797 26.25 10.168 26.25C17.668 26.25 17.668 20.625 17.668 20.625V20.3125C17.668 18.7592 16.4087 17.5 14.8555 17.5H5.48047ZM21.4182 24.375C19.9542 24.375 18.8331 24.1486 17.9746 23.802C18.4021 23.0834 18.6328 22.3928 18.7585 21.8545C18.834 21.5309 18.8736 21.2534 18.8946 21.0441C18.9051 20.939 18.911 20.85 18.9142 20.7796C18.9158 20.7444 18.9168 20.7136 18.9175 20.6879L18.9181 20.6528L18.9182 20.6379V20.6312V20.628C18.9182 20.624 18.9182 20.625 18.9182 20.625V20.3125C18.9182 19.2224 18.4888 18.2326 17.7901 17.5029C17.8325 17.501 17.8752 17.5 17.9182 17.5H24.9182C26.437 17.5 27.6682 18.7313 27.6682 20.25C27.6682 20.25 27.6682 24.375 21.4182 24.375Z" fill="#212121"/>
</svg>
