<svg width="1280" height="592" viewBox="0 0 1280 592" fill="none" xmlns="http://www.w3.org/2000/svg">
<path d="M0 592L1280 592V0L0 0V592Z" fill="url(#paint0_linear_2237_5093)"/>
<path d="M261.895 286.837L119.019 428.655C104.078 443.485 114.569 469 135.619 469H421.381C442.431 469 452.922 443.485 437.981 428.655L295.105 286.837C285.919 277.721 271.104 277.721 261.918 286.837H261.895Z" fill="#07B159"/>
<path d="M293.559 310.888C293.559 319.589 286.507 326.642 277.806 326.642C269.105 326.642 262.053 319.589 262.053 310.888H293.559Z" fill="#06071F"/>
<path d="M261.184 306.069C261.184 302.325 264.217 299.291 267.961 299.291C271.705 299.291 274.739 302.325 274.739 306.069" stroke="#06071F" stroke-width="2" stroke-miterlimit="10"/>
<path d="M282.307 306.069C282.307 302.325 285.341 299.291 289.084 299.291C292.828 299.291 295.862 302.325 295.862 306.069" stroke="#06071F" stroke-width="2" stroke-miterlimit="10"/>
<path d="M412.181 384.87H359.986V469.67H412.181V384.87Z" fill="#FFE14F"/>
<path d="M386.078 415.461C389.139 415.461 391.619 412.98 391.619 409.92C391.619 406.86 389.139 404.379 386.078 404.379C383.018 404.379 380.537 406.86 380.537 409.92C380.537 412.98 383.018 415.461 386.078 415.461Z" fill="#231815"/>
<path d="M379.77 391.522C379.77 390.586 379.011 389.828 378.075 389.828C377.139 389.828 376.381 390.586 376.381 391.522V400.338C376.381 401.273 377.139 402.032 378.075 402.032C379.011 402.032 379.77 401.273 379.77 400.338V391.522Z" fill="#231815"/>
<path d="M395.785 391.522C395.785 390.586 395.027 389.828 394.091 389.828C393.155 389.828 392.396 390.586 392.396 391.522V400.338C392.396 401.273 393.155 402.032 394.091 402.032C395.027 402.032 395.785 401.273 395.785 400.338V391.522Z" fill="#231815"/>
<path d="M1149.01 123C1181.01 123 1207 148.972 1207 180.97V469H1091V180.97C1091.01 148.972 1117 123 1149.01 123Z" fill="#D71F39"/>
<path d="M996.652 231.141L798.336 427.862C782.721 443.351 793.685 470 815.684 470H1212.32C1234.32 470 1245.28 443.351 1229.66 427.862L1031.35 231.141C1021.75 221.62 1006.26 221.62 996.664 231.141H996.652Z" fill="#FFE14F"/>
<path d="M1096 426C1115.88 426 1132 409.882 1132 390C1132 370.118 1115.88 354 1096 354C1076.12 354 1060 370.118 1060 390C1060 409.882 1076.12 426 1096 426Z" fill="#421D48"/>
<path d="M902.5 294C928.716 294 950 315.318 950 341.576V470H855V341.576C855 315.318 876.284 294 902.5 294Z" fill="#D71F39"/>
<path d="M997.48 254.396H997.468C995.54 254.396 993.977 255.959 993.977 257.887V276.134C993.977 278.062 995.54 279.625 997.468 279.625H997.48C999.408 279.625 1000.97 278.062 1000.97 276.134V257.887C1000.97 255.959 999.408 254.396 997.48 254.396Z" fill="#231815"/>
<path d="M1030.56 254.396H1030.55C1028.62 254.396 1027.06 255.959 1027.06 257.887V276.134C1027.06 278.062 1028.62 279.625 1030.55 279.625H1030.56C1032.49 279.625 1034.06 278.062 1034.06 276.134V257.887C1034.06 255.959 1032.49 254.396 1030.56 254.396Z" fill="#231815"/>
<path d="M994.418 288.916C994.418 299.857 1003.29 308.729 1014.23 308.729C1025.17 308.729 1034.04 299.857 1034.04 288.916H994.406H994.418Z" fill="#231815"/>
<path d="M914.5 331C916.433 331 918 329.209 918 327C918 324.791 916.433 323 914.5 323C912.567 323 911 324.791 911 327C911 329.209 912.567 331 914.5 331Z" fill="#231815"/>
<path d="M898.5 320C900.433 320 902 318.433 902 316.5C902 314.567 900.433 313 898.5 313C896.567 313 895 314.567 895 316.5C895 318.433 896.567 320 898.5 320Z" fill="#231815"/>
<path d="M883.729 316C877.074 325.911 879.564 339.425 889.306 346.207C899.048 352.976 912.334 350.444 919 340.533L883.741 316H883.729Z" fill="#231815"/>
<path d="M1089.92 368.62C1091.94 365.368 1096.2 364.375 1099.45 366.384C1102.7 368.393 1103.69 372.662 1101.68 375.914" stroke="#231815" stroke-width="2" stroke-miterlimit="10"/>
<path d="M1106.18 378.712C1108.2 375.46 1112.46 374.467 1115.71 376.476C1118.96 378.485 1119.95 382.753 1117.95 386.006" stroke="#231815" stroke-width="2" stroke-miterlimit="10"/>
<path d="M1099.35 391.948C1102.55 391.948 1105.14 389.357 1105.14 386.161C1105.14 382.965 1102.55 380.374 1099.35 380.374C1096.16 380.374 1093.56 382.965 1093.56 386.161C1093.56 389.357 1096.16 391.948 1099.35 391.948Z" fill="#231815"/>
<path d="M1165.03 154.4C1165.03 163.487 1157.67 170.853 1148.58 170.853C1139.49 170.853 1132.13 163.487 1132.13 154.4H1165.03Z" fill="#06071F"/>
<path d="M1131.22 149.366C1131.22 145.456 1134.39 142.288 1138.3 142.288C1142.21 142.288 1145.38 145.456 1145.38 149.366" stroke="#06071F" stroke-width="2" stroke-miterlimit="10"/>
<path d="M1153.28 149.366C1153.28 145.456 1156.45 142.288 1160.36 142.288C1164.27 142.288 1167.44 145.456 1167.44 149.366" stroke="#06071F" stroke-width="2" stroke-miterlimit="10"/>
<defs>
<linearGradient id="paint0_linear_2237_5093" x1="1280" y1="295.993" x2="0" y2="295.993" gradientUnits="userSpaceOnUse">
<stop stop-color="#18EC7E"/>
<stop offset="1" stop-color="#07B159"/>
</linearGradient>
</defs>
</svg>
