<svg width="30" height="30" viewBox="0 0 30 30" fill="none" xmlns="http://www.w3.org/2000/svg">
<path d="M22.6956 21.1024L21.2119 22.5697C20.1183 23.643 18.6994 25.023 16.9545 26.7099C15.8643 27.7641 14.1345 27.764 13.0444 26.7096L8.68046 22.4647C8.13201 21.9262 7.67292 21.4721 7.30312 21.1024C3.05261 16.8519 3.05261 9.96037 7.30312 5.70986C11.5536 1.45934 18.4451 1.45934 22.6956 5.70986C26.9461 9.96037 26.9461 16.8519 22.6956 21.1024ZM18.1246 13.7495C18.1246 12.0234 16.7254 10.6242 14.9994 10.6242C13.2734 10.6242 11.8741 12.0234 11.8741 13.7495C11.8741 15.4755 13.2734 16.8747 14.9994 16.8747C16.7254 16.8747 18.1246 15.4755 18.1246 13.7495Z" fill="#212121"/>
</svg>
