<svg width="30" height="30" viewBox="0 0 30 30" fill="none" xmlns="http://www.w3.org/2000/svg">
<path d="M26.25 10.625V22.1875C26.25 24.4311 24.4311 26.25 22.1875 26.25H7.8125C5.56884 26.25 3.75 24.4311 3.75 22.1875V10.625H26.25ZM9.0625 18.75C8.19955 18.75 7.5 19.4495 7.5 20.3125C7.5 21.1755 8.19955 21.875 9.0625 21.875C9.92545 21.875 10.625 21.1755 10.625 20.3125C10.625 19.4495 9.92545 18.75 9.0625 18.75ZM15 18.75C14.137 18.75 13.4375 19.4495 13.4375 20.3125C13.4375 21.1755 14.137 21.875 15 21.875C15.863 21.875 16.5625 21.1755 16.5625 20.3125C16.5625 19.4495 15.863 18.75 15 18.75ZM9.0625 13.125C8.19955 13.125 7.5 13.8245 7.5 14.6875C7.5 15.5505 8.19955 16.25 9.0625 16.25C9.92545 16.25 10.625 15.5505 10.625 14.6875C10.625 13.8245 9.92545 13.125 9.0625 13.125ZM15 13.125C14.137 13.125 13.4375 13.8245 13.4375 14.6875C13.4375 15.5505 14.137 16.25 15 16.25C15.863 16.25 16.5625 15.5505 16.5625 14.6875C16.5625 13.8245 15.863 13.125 15 13.125ZM20.9375 13.125C20.0745 13.125 19.375 13.8245 19.375 14.6875C19.375 15.5505 20.0745 16.25 20.9375 16.25C21.8005 16.25 22.5 15.5505 22.5 14.6875C22.5 13.8245 21.8005 13.125 20.9375 13.125ZM22.1875 3.75C24.4311 3.75 26.25 5.56884 26.25 7.8125V8.75H3.75V7.8125C3.75 5.56884 5.56884 3.75 7.8125 3.75H22.1875Z" fill="#212121"/>
</svg>
