<svg width="1280" height="596" viewBox="0 0 1280 596" fill="none" xmlns="http://www.w3.org/2000/svg">
<rect x="105" width="72" height="4" fill="#212121"/>
<path d="M0 596L1280 596V4L0 4V596Z" fill="url(#paint0_linear_2007_2675)"/>
<path d="M261.895 290.837L119.019 432.655C104.078 447.485 114.569 473 135.619 473H421.381C442.431 473 452.922 447.485 437.981 432.655L295.105 290.837C285.919 281.721 271.104 281.721 261.918 290.837H261.895Z" fill="#07B159"/>
<path d="M293.559 314.888C293.559 323.589 286.507 330.642 277.806 330.642C269.105 330.642 262.053 323.589 262.053 314.888H293.559Z" fill="#06071F"/>
<path d="M261.184 310.069C261.184 306.325 264.217 303.291 267.961 303.291C271.705 303.291 274.739 306.325 274.739 310.069" stroke="#06071F" stroke-width="2" stroke-miterlimit="10"/>
<path d="M282.307 310.069C282.307 306.325 285.341 303.291 289.084 303.291C292.828 303.291 295.862 306.325 295.862 310.069" stroke="#06071F" stroke-width="2" stroke-miterlimit="10"/>
<path d="M412.181 388.87H359.986V473.67H412.181V388.87Z" fill="#FFE14F"/>
<path d="M386.078 419.461C389.139 419.461 391.619 416.98 391.619 413.92C391.619 410.86 389.139 408.379 386.078 408.379C383.018 408.379 380.537 410.86 380.537 413.92C380.537 416.98 383.018 419.461 386.078 419.461Z" fill="#231815"/>
<path d="M379.77 395.522C379.77 394.586 379.011 393.828 378.075 393.828C377.139 393.828 376.381 394.586 376.381 395.522V404.338C376.381 405.273 377.139 406.032 378.075 406.032C379.011 406.032 379.77 405.273 379.77 404.338V395.522Z" fill="#231815"/>
<path d="M395.785 395.522C395.785 394.586 395.027 393.828 394.091 393.828C393.155 393.828 392.396 394.586 392.396 395.522V404.338C392.396 405.273 393.155 406.032 394.091 406.032C395.027 406.032 395.785 405.273 395.785 404.338V395.522Z" fill="#231815"/>
<path d="M1149.01 127C1181.01 127 1207 152.972 1207 184.97V473H1091V184.97C1091.01 152.972 1117 127 1149.01 127Z" fill="#D71F39"/>
<path d="M996.652 235.141L798.336 431.862C782.721 447.351 793.685 474 815.684 474H1212.32C1234.32 474 1245.28 447.351 1229.66 431.862L1031.35 235.141C1021.75 225.62 1006.26 225.62 996.664 235.141H996.652Z" fill="#FFE14F"/>
<path d="M1096 430C1115.88 430 1132 413.882 1132 394C1132 374.118 1115.88 358 1096 358C1076.12 358 1060 374.118 1060 394C1060 413.882 1076.12 430 1096 430Z" fill="#421D48"/>
<path d="M902.5 298C928.716 298 950 319.318 950 345.576V474H855V345.576C855 319.318 876.284 298 902.5 298Z" fill="#D71F39"/>
<path d="M997.48 258.396H997.468C995.54 258.396 993.977 259.959 993.977 261.887V280.134C993.977 282.062 995.54 283.625 997.468 283.625H997.48C999.408 283.625 1000.97 282.062 1000.97 280.134V261.887C1000.97 259.959 999.408 258.396 997.48 258.396Z" fill="#231815"/>
<path d="M1030.56 258.396H1030.55C1028.62 258.396 1027.06 259.959 1027.06 261.887V280.134C1027.06 282.062 1028.62 283.625 1030.55 283.625H1030.56C1032.49 283.625 1034.06 282.062 1034.06 280.134V261.887C1034.06 259.959 1032.49 258.396 1030.56 258.396Z" fill="#231815"/>
<path d="M994.418 292.916C994.418 303.857 1003.29 312.729 1014.23 312.729C1025.17 312.729 1034.04 303.857 1034.04 292.916H994.406H994.418Z" fill="#231815"/>
<path d="M914.5 335C916.433 335 918 333.209 918 331C918 328.791 916.433 327 914.5 327C912.567 327 911 328.791 911 331C911 333.209 912.567 335 914.5 335Z" fill="#231815"/>
<path d="M898.5 324C900.433 324 902 322.433 902 320.5C902 318.567 900.433 317 898.5 317C896.567 317 895 318.567 895 320.5C895 322.433 896.567 324 898.5 324Z" fill="#231815"/>
<path d="M883.729 320C877.074 329.911 879.564 343.425 889.306 350.207C899.048 356.976 912.334 354.444 919 344.533L883.741 320H883.729Z" fill="#231815"/>
<path d="M1089.92 372.62C1091.94 369.368 1096.2 368.375 1099.45 370.384C1102.7 372.393 1103.69 376.662 1101.68 379.914" stroke="#231815" stroke-width="2" stroke-miterlimit="10"/>
<path d="M1106.18 382.712C1108.2 379.46 1112.46 378.467 1115.71 380.476C1118.96 382.485 1119.95 386.753 1117.95 390.006" stroke="#231815" stroke-width="2" stroke-miterlimit="10"/>
<path d="M1099.35 395.948C1102.55 395.948 1105.14 393.357 1105.14 390.161C1105.14 386.965 1102.55 384.374 1099.35 384.374C1096.16 384.374 1093.56 386.965 1093.56 390.161C1093.56 393.357 1096.16 395.948 1099.35 395.948Z" fill="#231815"/>
<path d="M1165.03 158.4C1165.03 167.487 1157.67 174.853 1148.58 174.853C1139.49 174.853 1132.13 167.487 1132.13 158.4H1165.03Z" fill="#06071F"/>
<path d="M1131.22 153.366C1131.22 149.456 1134.39 146.288 1138.3 146.288C1142.21 146.288 1145.38 149.456 1145.38 153.366" stroke="#06071F" stroke-width="2" stroke-miterlimit="10"/>
<path d="M1153.28 153.366C1153.28 149.456 1156.45 146.288 1160.36 146.288C1164.27 146.288 1167.44 149.456 1167.44 153.366" stroke="#06071F" stroke-width="2" stroke-miterlimit="10"/>
<path d="M515.354 192.572V201.678H520.48V205.41H515.354V214.229H510.76V192.572H515.354ZM487.504 211.891V195.197H504.115V198.889H492.016V208.199C499.111 208.179 503.069 207.953 507.438 207.051L507.889 210.701C503.09 211.727 498.722 211.891 490.498 211.891H487.504ZM490.703 222.227C490.703 217.633 495.584 214.926 503.254 214.926C510.862 214.926 515.661 217.633 515.682 222.227C515.661 226.902 510.862 229.609 503.254 229.609C495.584 229.609 490.703 226.902 490.703 222.227ZM495.215 222.227C495.194 224.626 498.168 225.959 503.254 225.959C508.237 225.959 511.231 224.626 511.252 222.227C511.231 219.868 508.237 218.556 503.254 218.576C498.168 218.556 495.194 219.868 495.215 222.227ZM553.252 192.613V219.684H548.658V192.613H553.252ZM522.408 210.947C528.417 208.835 531.493 203.605 531.473 198.273V194.664H536.189V198.273C536.169 203.441 539.204 208.322 545.09 210.291L542.752 213.9C538.527 212.424 535.513 209.471 533.872 205.677C532.231 209.737 529.155 212.978 524.787 214.557L522.408 210.947ZM528.725 228.912V217.1H533.318V225.221H554.277V228.912H528.725ZM570.684 195.156C576.569 195.136 580.855 198.848 580.896 204.098C580.855 209.368 576.569 213.06 570.684 213.08C564.859 213.06 560.491 209.368 560.512 204.098C560.491 198.848 564.859 195.136 570.684 195.156ZM558.83 218.207C565.516 218.207 574.765 218.125 582.783 216.977L583.152 220.299C574.847 221.878 565.946 221.939 559.404 221.939L558.83 218.207ZM565.023 204.098C565.003 207.194 567.443 209.102 570.684 209.102C573.965 209.102 576.405 207.194 576.426 204.098C576.405 201.021 573.985 199.094 570.684 199.094C567.443 199.094 565.003 201.021 565.023 204.098ZM584.998 229.691V192.572H589.551V229.691H584.998ZM638.729 211.973V215.541H604.85V211.973H638.729ZM608.664 222.021V218.371H634.463V229.65H629.869V222.021H608.664ZM609.197 209.225V193.475H634.668V197.043H613.75V199.586H633.766V202.99H613.75V205.738H634.955V209.225H609.197ZM672.279 192.572V211.727H667.727V207.707H660.262V210.537H642.912V194.213H647.465V198.889H655.75V194.213H660.262V197.494H667.727V192.572H672.279ZM647.465 206.928H655.75V202.375H647.465V206.928ZM647.834 216.812V213.244H672.279V222.76H652.428V225.59H673.469V229.199H647.875V219.396H667.727V216.812H647.834ZM660.262 204.221H667.727V200.939H660.262V204.221ZM706.773 192.613V204.262H711.941V208.035H706.773V220.299H702.221V192.613H706.773ZM677.57 200.365V196.715H686.307V192.572H690.859V196.715H699.555V200.365H677.57ZM679.457 208.979C679.457 204.713 683.169 201.883 688.562 201.883C693.915 201.883 697.606 204.713 697.627 208.979C697.606 213.224 693.915 215.992 688.562 215.992C683.169 215.992 679.457 213.224 679.457 208.979ZM683.025 228.912V218.125H687.578V225.221H708.25V228.912H683.025ZM683.887 208.979C683.866 211.214 685.753 212.485 688.562 212.465C691.372 212.485 693.279 211.214 693.279 208.979C693.279 206.723 691.372 205.41 688.562 205.41C685.753 205.41 683.866 206.723 683.887 208.979ZM752.834 192.572V207.338H758.535V211.111H752.834V229.65H748.322V192.572H752.834ZM723.59 201.924V198.273H732.367V193.105H736.92V198.273H745.451V201.924H723.59ZM725.312 213.08C725.271 207.953 729.25 204.323 734.664 204.344C739.996 204.323 743.954 207.953 743.975 213.08C743.954 218.187 739.996 221.775 734.664 221.775C729.25 221.775 725.271 218.187 725.312 213.08ZM729.66 213.08C729.64 216.095 731.752 218.022 734.664 218.002C737.515 218.022 739.586 216.095 739.627 213.08C739.586 210.065 737.515 208.076 734.664 208.076C731.752 208.076 729.64 210.065 729.66 213.08ZM789.994 193.844V204.385H768.707V208.076H790.814V211.727H764.113V200.939H785.318V197.535H764.031V193.844H789.994ZM760.053 218.535V214.885H793.932V218.535H779.207V229.691H774.654V218.535H760.053ZM477.701 242.572V257.338H483.402V261.111H477.701V279.65H473.189V242.572H477.701ZM448.457 251.924V248.273H457.234V243.105H461.787V248.273H470.318V251.924H448.457ZM450.18 263.08C450.139 257.953 454.117 254.323 459.531 254.344C464.863 254.323 468.821 257.953 468.842 263.08C468.821 268.187 464.863 271.775 459.531 271.775C454.117 271.775 450.139 268.187 450.18 263.08ZM454.527 263.08C454.507 266.095 456.619 268.022 459.531 268.002C462.382 268.022 464.453 266.095 464.494 263.08C464.453 260.065 462.382 258.076 459.531 258.076C456.619 258.076 454.507 260.065 454.527 263.08ZM514.861 243.844V254.385H493.574V258.076H515.682V261.727H488.98V250.939H510.186V247.535H488.898V243.844H514.861ZM484.92 268.535V264.885H518.799V268.535H504.074V279.691H499.521V268.535H484.92ZM555.057 260.783V264.475H521.26V260.783H535.861V255.615H540.373V260.783H555.057ZM523.105 254.18C530.755 253.216 535.779 249.012 535.779 244.582V243.188H540.414V244.582C540.414 249.114 545.397 253.216 553.129 254.18L551.365 257.748C545.295 256.825 540.435 254.077 538.076 250.181C535.697 254.057 530.857 256.825 524.746 257.748L523.105 254.18ZM524.992 270.996V267.428H550.914V279.65H546.361V270.996H524.992ZM589.551 242.572V279.65H585.162V242.572H589.551ZM557.928 258.609C557.928 250.447 561.086 245.382 565.926 245.402C570.417 245.382 573.473 249.586 574.006 256.518H577.574V243.229H581.922V277.846H577.574V260.209H574.047C573.616 267.448 570.52 271.878 565.926 271.857C561.086 271.878 557.928 266.792 557.928 258.609ZM562.152 258.609C562.132 264.413 563.567 267.53 565.926 267.51C568.387 267.53 569.843 264.413 569.863 258.609C569.843 252.826 568.387 249.688 565.926 249.709C563.567 249.688 562.132 252.826 562.152 258.609ZM607.557 251.473C607.536 258.363 610.838 265.131 616.744 267.715L613.996 271.365C609.812 269.314 606.859 265.377 605.28 260.517C603.66 265.644 600.625 269.909 596.359 272.062L593.488 268.371C599.538 265.541 602.901 258.404 602.922 251.473V245.566H607.557V251.473ZM612.643 258.24V254.549H620.436V242.572H624.947V279.691H620.436V258.24H612.643ZM669.367 242.572V251.965H674.535V255.779H669.367V264.926H664.814V242.572H669.367ZM640.164 249.791V246.141H648.9V242.326H653.453V246.141H662.148V249.791H640.164ZM642.051 257.789C642.051 253.831 645.742 251.145 651.156 251.145C656.529 251.145 660.2 253.831 660.221 257.789C660.2 261.788 656.509 264.434 651.156 264.434C645.742 264.434 642.051 261.788 642.051 257.789ZM645.414 279.199V266.689H669.367V279.199H645.414ZM646.48 257.789C646.46 259.86 648.347 261.029 651.156 261.029C653.966 261.029 655.873 259.86 655.873 257.789C655.873 255.779 653.966 254.59 651.156 254.59C648.347 254.59 646.46 255.779 646.48 257.789ZM649.926 275.508H664.855V270.299H649.926V275.508ZM685.568 246.92C685.527 255.677 684.563 264.105 679.621 271.406L676.053 269.479C680.134 263.716 681.344 257.687 681.61 250.611H677.119V246.92H685.568ZM684.42 271.488C688.87 265.11 689.752 257.953 689.916 250.611H686.676V246.92H693.854C693.833 250.099 693.771 253.4 693.423 256.682H697.176V243.475H701.482V277.887H697.176V260.373H692.931C692.131 264.946 690.634 269.417 687.906 273.457L684.42 271.488ZM704.271 279.65V242.572H708.66V279.65H704.271ZM741.76 242.572V257.338H747.461V261.111H741.76V279.65H737.248V242.572H741.76ZM712.516 251.924V248.273H721.293V243.105H725.846V248.273H734.377V251.924H712.516ZM714.238 263.08C714.197 257.953 718.176 254.323 723.59 254.344C728.922 254.323 732.88 257.953 732.9 263.08C732.88 268.187 728.922 271.775 723.59 271.775C718.176 271.775 714.197 268.187 714.238 263.08ZM718.586 263.08C718.565 266.095 720.678 268.022 723.59 268.002C726.44 268.022 728.512 266.095 728.553 263.08C728.512 260.065 726.44 258.076 723.59 258.076C720.678 258.076 718.565 260.065 718.586 263.08ZM760.586 252.293C760.606 258.281 762.657 264.516 767.682 267.674L765.18 271.16C761.837 269.15 759.663 265.705 758.433 261.665C757.1 266.115 754.721 269.889 751.234 272.021L748.404 268.617C753.798 265.356 756.177 258.814 756.197 252.498V245.854H760.586V252.293ZM763.703 259.102V255.328H768.994V243.229H773.301V277.846H768.994V259.102H763.703ZM776.623 279.65V242.572H781.012V279.65H776.623ZM819.197 271.406V275.139H785.318V271.406H793.152V262.034C790.199 260.332 788.415 257.666 788.436 254.385C788.415 248.479 794.198 244.582 802.176 244.582C810.194 244.582 816.019 248.479 815.998 254.385C816.019 257.625 814.275 260.229 811.404 261.932V271.406H819.197ZM792.906 254.385C792.886 258.179 796.639 260.599 802.176 260.578C807.692 260.599 811.527 258.179 811.527 254.385C811.527 250.529 807.692 248.171 802.176 248.191C796.639 248.171 792.886 250.529 792.906 254.385ZM797.664 271.406H806.77V263.675C805.354 263.982 803.816 264.146 802.176 264.146C800.576 264.146 799.059 263.982 797.664 263.695V271.406ZM829.246 246.305L828.795 267.264H824.16L823.668 246.305H829.246ZM823.299 273.129C823.278 271.406 824.734 269.991 826.498 269.971C828.2 269.991 829.656 271.406 829.656 273.129C829.656 274.893 828.2 276.328 826.498 276.328C824.734 276.328 823.278 274.893 823.299 273.129Z" fill="white"/>
<defs>
<linearGradient id="paint0_linear_2007_2675" x1="1280" y1="299.993" x2="0" y2="299.993" gradientUnits="userSpaceOnUse">
<stop stop-color="#18EC7E"/>
<stop offset="1" stop-color="#07B159"/>
</linearGradient>
</defs>
</svg>
