<svg width="531" height="405" viewBox="0 0 531 405" fill="none" xmlns="http://www.w3.org/2000/svg">
<rect width="531" height="405" rx="30" fill="#FF7F1E"/>
<mask id="mask0_1972_56088" style="mask-type:alpha" maskUnits="userSpaceOnUse" x="0" y="0" width="531" height="405">
<rect width="531" height="405" rx="30" fill="#FF7F1E"/>
</mask>
<g mask="url(#mask0_1972_56088)">
<circle cx="270" cy="371.7" r="276.3" fill="#FFA662"/>
<path d="M214.083 477.666C302.494 477.666 374.166 405.994 374.166 317.583C374.166 229.172 302.494 157.5 214.083 157.5C125.672 157.5 54 229.172 54 317.583C54 405.994 125.672 477.666 214.083 477.666Z" fill="#FFE14F"/>
<path d="M163.26 232.875C166.716 217.467 182.016 207.774 197.424 211.23C212.832 214.686 222.525 229.986 219.069 245.394" stroke="#231815" stroke-width="5" stroke-miterlimit="10"/>
<path d="M240.407 250.191C243.863 234.783 259.163 225.09 274.571 228.546C289.979 232.002 299.672 247.302 296.216 262.71" stroke="#231815" stroke-width="5" stroke-miterlimit="10"/>
<path d="M223.847 312.408C237.044 312.408 247.742 301.71 247.742 288.513C247.742 275.316 237.044 264.618 223.847 264.618C210.65 264.618 199.952 275.316 199.952 288.513C199.952 301.71 210.65 312.408 223.847 312.408Z" fill="#231815"/>
<path d="M386.442 498.987C450.731 498.987 502.848 446.87 502.848 382.581C502.848 318.292 450.731 266.175 386.442 266.175C322.153 266.175 270.036 318.292 270.036 382.581C270.036 446.87 322.153 498.987 386.442 498.987Z" fill="#2D81F8"/>
<path d="M355.373 305.961C354.852 303.832 352.705 302.528 350.578 303.049C348.452 303.57 347.15 305.718 347.672 307.847L352.589 327.926C353.11 330.056 355.257 331.359 357.384 330.839C359.51 330.318 360.812 328.17 360.29 326.041L355.373 305.961Z" fill="#231815"/>
<path d="M391.821 297.034C391.3 294.905 389.153 293.601 387.027 294.122C384.9 294.643 383.598 296.791 384.12 298.92L389.037 319C389.558 321.129 391.705 322.433 393.832 321.912C395.958 321.391 397.26 319.243 396.738 317.114L391.821 297.034Z" fill="#231815"/>
<path d="M356.525 341.892C359.477 353.952 371.645 361.332 383.705 358.38C395.765 355.428 403.145 343.26 400.193 331.2L356.525 341.892Z" fill="#231815"/>
<path d="M114.87 39.3047H121.433L130.251 60.8789H130.62L139.438 39.3047H146.001V69H140.874V48.5742H140.587L132.343 68.918H128.528L120.284 48.4922H120.038V69H114.87V39.3047ZM177.993 54.1523C178.014 63.75 172.148 69.4102 164.376 69.4102C156.562 69.4102 150.738 63.7295 150.759 54.1523C150.738 44.5547 156.562 38.8945 164.376 38.8945C172.148 38.8945 178.014 44.5547 177.993 54.1523ZM156.132 54.1523C156.111 60.9404 159.536 64.6113 164.376 64.6113C169.236 64.6113 172.641 60.9404 172.62 54.1523C172.641 47.3643 169.236 43.6934 164.376 43.6934C159.536 43.6934 156.111 47.3643 156.132 54.1523ZM192.841 69H182.751V39.3047H193.005C201.864 39.3047 207.217 44.8623 207.237 54.1113C207.217 63.4014 201.864 69 192.841 69ZM188.083 64.3652H192.554C198.768 64.3857 201.905 60.9609 201.905 54.1113C201.905 47.3027 198.768 43.9189 192.718 43.9395H188.083V64.3652ZM230.698 39.3047H236.071V58.7051C236.051 65.083 231.252 69.4512 224.013 69.4512C216.732 69.4512 211.975 65.083 211.954 58.7051V39.3047H217.286V58.2539C217.307 62.0068 219.911 64.6729 224.013 64.6934C228.114 64.6729 230.698 62.0068 230.698 58.2539V39.3047ZM245.874 66.0879L242.429 77.5723H238.532L240.665 66.0879H245.874ZM260.845 39.3047H267.407L276.226 60.8789H276.595L285.413 39.3047H291.976V69H286.849V48.5742H286.562L278.317 68.918H274.503L266.259 48.4922H266.013V69H260.845V39.3047ZM323.968 54.1523C323.988 63.75 318.123 69.4102 310.351 69.4102C302.537 69.4102 296.713 63.7295 296.733 54.1523C296.713 44.5547 302.537 38.8945 310.351 38.8945C318.123 38.8945 323.988 44.5547 323.968 54.1523ZM302.106 54.1523C302.086 60.9404 305.511 64.6113 310.351 64.6113C315.211 64.6113 318.615 60.9404 318.595 54.1523C318.615 47.3643 315.211 43.6934 310.351 43.6934C305.511 43.6934 302.086 47.3643 302.106 54.1523ZM324.993 39.3047H331.022L338.323 52.4297H338.61L345.911 39.3047H351.94L341.153 57.8848V69H335.821V57.8848L324.993 39.3047ZM360.718 39.3047V69H355.386V39.3047H360.718ZM365.681 69V65.6367L380.938 43.7754H365.599V39.3047H387.583V42.627L372.325 64.4883H387.665V69H365.681ZM396.278 69H390.577L401.036 39.3047H407.599L418.099 69H412.397L409.916 61.6582H398.739L396.278 69ZM400.175 57.3516H408.48L404.44 45.375H404.194L400.175 57.3516Z" fill="white"/>
</g>
</svg>
