<svg width="533" height="141" viewBox="0 0 533 141" fill="none" xmlns="http://www.w3.org/2000/svg">
<circle cx="29" cy="29" r="29" fill="#FFC091"/>
<path d="M34.8643 33.8643L33.6773 35.0382C32.8024 35.8968 31.6673 37.0008 30.2714 38.3503C29.3992 39.1937 28.0154 39.1936 27.1433 38.3501L23.6522 34.9542C23.2134 34.5234 22.8461 34.1601 22.5503 33.8643C19.1499 30.4639 19.1499 24.9507 22.5503 21.5503C25.9507 18.1499 31.4639 18.1499 34.8643 21.5503C38.2647 24.9507 38.2647 30.4639 34.8643 33.8643ZM31.2075 27.982C31.2075 26.6012 30.0881 25.4818 28.7073 25.4818C27.3265 25.4818 26.2071 26.6012 26.2071 27.982C26.2071 29.3628 27.3265 30.4822 28.7073 30.4822C30.0881 30.4822 31.2075 29.3628 31.2075 27.982Z" fill="white"/>
<path d="M5.07812 72.8906C7.22656 72.8828 8.78125 74.0859 8.78125 75.8594C8.78125 77.6016 7.22656 78.8203 5.07812 78.8125C2.95312 78.8203 1.40625 77.6016 1.40625 75.8594C1.40625 74.0859 2.95312 72.8828 5.07812 72.8906ZM0.484375 79.7812C3.03125 79.7812 6.60156 79.7344 9.64062 79.2812L9.76562 80.5625C8.54688 80.7969 7.28125 80.9453 6.04688 81.0391V85.9531H4.29688V81.1406C2.99219 81.1953 1.76562 81.2109 0.703125 81.2188L0.484375 79.7812ZM3.09375 75.8594C3.08594 76.8047 3.92188 77.3984 5.07812 77.3906C6.28125 77.3984 7.125 76.8047 7.125 75.8594C7.125 74.8828 6.28125 74.2812 5.07812 74.2969C3.92188 74.2812 3.08594 74.8828 3.09375 75.8594ZM10.5625 86.375V72.2812H12.2812V86.375H10.5625ZM26.0312 72.2656V86.3906H24.2969V72.2656H26.0312ZM14.4375 82.375C16.6875 81.3828 17.9844 79.0078 17.9844 76.75V76.0156H14.875V74.625H17.9844V72.5625H19.7031V74.625H22.75V76.0156H19.7188V76.75C19.7109 78.8984 21.0312 81.2031 23.3125 82.1562L22.3594 83.4844C20.7422 82.7969 19.5234 81.3906 18.875 79.6875C18.2422 81.4922 17.0234 83 15.375 83.7188L14.4375 82.375ZM39.9219 72.2656V86.3906H38.1719V72.2656H39.9219ZM28.2188 82.5C31.9219 80.7422 33.625 78.3516 33.9375 75.1406H28.9375V73.7656H35.7031C35.7031 77.9688 34.0703 81.5391 29.125 83.8906L28.2188 82.5ZM53.0938 72.2812V76.3594H55.0625V77.7969H53.0938V82.6719H51.3594V72.2812H53.0938ZM42.4375 80.375V73.2812H44.1562V75.4375H47.4531V73.2812H49.1719V80.375H42.4375ZM44.0469 86.1094V81.625H45.7812V84.7031H53.6562V86.1094H44.0469ZM44.1562 79H47.4531V76.7812H44.1562V79ZM72.4531 80.75V82.1719H66.8594V86.4062H65.1406V82.1719H59.5781V80.75H72.4531ZM60.2812 78.5156C63.1016 78.1719 64.9531 76.7266 65.125 75.3125H60.7656V73.9375H65.1406V72.2812H66.8594V73.9375H71.25V75.3125H66.8906C67.0547 76.7109 68.8984 78.1719 71.7188 78.5156L71.0781 79.8906C68.7422 79.5938 66.9297 78.5703 66.0156 77.2109C65.0938 78.5859 63.2578 79.5938 60.9062 79.8906L60.2812 78.5156ZM78.4844 75.6094C78.4766 77.2891 79.6562 78.9219 81.8906 79.6094L81.0469 80.9688C79.4453 80.4922 78.2812 79.4688 77.6406 78.1719C77.0156 79.5703 75.8516 80.6719 74.2031 81.2031L73.3594 79.8438C75.5859 79.1484 76.75 77.4219 76.75 75.6094V75.3906H73.7969V74.0156H76.75V72.3594H78.5V74.0156H81.4375V75.3906H78.4844V75.6094ZM75.9688 86.1094V81.8594H77.7031V84.7031H85.5938V86.1094H75.9688ZM80.9688 77.875V76.4844H83.5V72.2812H85.2344V82.7656H83.5V77.875H80.9688Z" fill="black"/>
<path d="M10.6367 104.926V114.209H9.33789V113.033H6.87695V112.117H9.33789V104.926H10.6367ZM0.396484 110.518C2.65918 110.497 5.71484 110.477 8.32617 110.148L8.4082 111.078C7.3623 111.256 6.26172 111.365 5.18164 111.44V113.826H3.88281V111.509C2.69336 111.557 1.55176 111.557 0.560547 111.557L0.396484 110.518ZM1.35352 107.551C1.34668 106.252 2.58398 105.391 4.40234 105.391C6.19336 105.391 7.4375 106.252 7.4375 107.551C7.4375 108.856 6.19336 109.684 4.40234 109.684C2.59082 109.684 1.34668 108.856 1.35352 107.551ZM2.0918 116.902V113.307H3.37695V115.85H10.9375V116.902H2.0918ZM2.58398 107.551C2.57715 108.275 3.31543 108.727 4.40234 108.727C5.44824 108.727 6.2002 108.275 6.20703 107.551C6.2002 106.819 5.44824 106.348 4.40234 106.361C3.31543 106.348 2.57715 106.819 2.58398 107.551ZM22.0938 104.912V109.875H24.0625V110.955H22.0938V117.162H20.8086V104.912H22.0938ZM12.4824 107.893V106.826H15.5039V105.076H16.8027V106.826H19.7422V107.893H12.4824ZM13.1113 111.639C13.1113 109.971 14.3965 108.795 16.1602 108.795C17.917 108.795 19.2021 109.971 19.209 111.639C19.2021 113.32 17.917 114.489 16.1602 114.496C14.3965 114.489 13.1113 113.32 13.1113 111.639ZM14.3555 111.639C14.3486 112.705 15.1143 113.416 16.1602 113.402C17.1992 113.416 17.958 112.705 17.9648 111.639C17.958 110.593 17.1992 109.868 16.1602 109.861C15.1143 109.868 14.3486 110.593 14.3555 111.639ZM34.5625 108.494V109.533H26.127V105.35H27.4121V108.494H34.5625ZM24.6367 112.117V111.078H35.8477V112.117H24.6367ZM26.0312 116.875V113.279H27.3301V115.809H34.6445V116.875H26.0312ZM44.6797 108.521C44.6729 110.572 46.0195 112.691 47.9062 113.498L47.1953 114.51C45.7529 113.874 44.6045 112.521 44.0371 110.887C43.4697 112.637 42.3213 114.127 40.8926 114.824L40.1406 113.799C41.9863 112.931 43.3535 110.634 43.3672 108.521V107.223H40.5645V106.143H47.4688V107.223H44.6797V108.521ZM49.0137 117.162V104.912H50.3125V117.162H49.0137ZM62.4805 112.773V117.162H61.1816V113.799H54.1816V112.773H62.4805ZM52.4453 108.549C52.4385 106.819 53.8125 105.589 55.6582 105.596C56.6973 105.589 57.5928 105.992 58.1602 106.662H61.1816V104.912H62.4805V112.131H61.1816V110.449H58.1602C57.5859 111.119 56.6973 111.522 55.6582 111.516C53.8125 111.522 52.4385 110.292 52.4453 108.549ZM53.6895 108.549C53.6826 109.67 54.5098 110.415 55.6582 110.422C56.7588 110.415 57.5996 109.67 57.5996 108.549C57.5996 107.455 56.7588 106.696 55.6582 106.689C54.5098 106.696 53.6826 107.455 53.6895 108.549ZM58.7275 109.383H61.1816V107.729H58.7344C58.8027 107.988 58.8438 108.262 58.8438 108.549C58.8438 108.843 58.8027 109.123 58.7275 109.383ZM69.9453 105.117C72.707 105.11 74.3135 105.855 74.3203 107.223C74.3135 108.597 72.707 109.342 69.9453 109.342C67.1836 109.342 65.5635 108.597 65.5703 107.223C65.5635 105.855 67.1836 105.11 69.9453 105.117ZM64.3672 111.133V110.094H75.5371V111.133H64.3672ZM65.707 113.047V112.076H74.1289V114.947H66.9922V116.041H74.4707V117.039H65.7207V114.004H72.8438V113.047H65.707ZM66.9238 107.223C66.917 107.981 67.9971 108.371 69.9453 108.371C71.9072 108.371 72.9873 107.981 72.9805 107.223C72.9873 106.498 71.9072 106.074 69.9453 106.074C67.9971 106.074 66.917 106.498 66.9238 107.223ZM90.0977 104.912V111.215H88.7988V108.07H86.2148V107.018H88.7988V104.912H90.0977ZM79.8438 110.23C81.7578 109.622 82.8994 108.098 82.9062 106.375V105.309H84.1914V106.375C84.1914 107.934 85.3125 109.383 87.1582 109.971L86.4746 110.982C85.1279 110.518 84.1094 109.595 83.5693 108.426C83.0361 109.745 81.9902 110.771 80.541 111.27L79.8438 110.23ZM82.0859 112.814V111.789H90.0977V114.838H83.3848V115.973H90.5215V117.012H82.1133V113.854H88.8125V112.814H82.0859ZM102.197 104.912V112.199H100.898V109.096H98.6152V108.029H100.898V104.912H102.197ZM91.9844 111.092C93.8848 110.429 95.0537 108.774 95.0469 107.086V106.812H92.3945V105.76H98.998V106.812H96.373V107.072C96.3662 108.624 97.4736 110.135 99.3262 110.764L98.6562 111.789C97.2822 111.317 96.2705 110.333 95.7373 109.123C95.2041 110.49 94.1309 111.591 92.668 112.131L91.9844 111.092ZM93.9531 114.852C93.9463 113.396 95.5186 112.548 98.0957 112.541C100.659 112.548 102.231 113.396 102.238 114.852C102.231 116.308 100.659 117.155 98.0957 117.162C95.5186 117.155 93.9463 116.308 93.9531 114.852ZM95.2383 114.852C95.2314 115.679 96.2979 116.15 98.0957 116.137C99.8799 116.15 100.946 115.679 100.953 114.852C100.946 114.018 99.8799 113.546 98.0957 113.553C96.2979 113.546 95.2314 114.018 95.2383 114.852ZM110.141 106.936V107.988H104.057V106.936H106.463V105.268H107.748V106.936H110.141ZM104.453 111.543C104.446 109.896 105.567 108.727 107.105 108.727C108.657 108.727 109.765 109.896 109.771 111.543C109.765 113.218 108.657 114.394 107.105 114.387C105.567 114.394 104.446 113.218 104.453 111.543ZM105.602 111.543C105.595 112.582 106.224 113.279 107.105 113.279C107.987 113.279 108.623 112.582 108.623 111.543C108.623 110.524 107.987 109.813 107.105 109.807C106.224 109.813 105.595 110.524 105.602 111.543ZM110.701 116.588V105.186H111.932V110.012H113.34V104.912H114.57V117.162H113.34V111.078H111.932V116.588H110.701ZM120.6 108.029C120.6 110.271 121.857 112.507 123.73 113.348L122.938 114.387C121.55 113.689 120.497 112.309 119.957 110.634C119.417 112.397 118.351 113.888 116.936 114.619L116.115 113.566C118.016 112.657 119.28 110.299 119.287 108.029V105.938H120.6V108.029ZM122.377 110.039V108.986H125.111V104.912H126.396V117.189H125.111V110.039H122.377ZM10.6641 124.912V132.199H9.36523V129.096H7.08203V128.029H9.36523V124.912H10.6641ZM0.451172 131.092C2.35156 130.429 3.52051 128.774 3.51367 127.086V126.812H0.861328V125.76H7.46484V126.812H4.83984V127.072C4.83301 128.624 5.94043 130.135 7.79297 130.764L7.12305 131.789C5.74902 131.317 4.7373 130.333 4.2041 129.123C3.6709 130.49 2.59766 131.591 1.13477 132.131L0.451172 131.092ZM2.41992 134.852C2.41309 133.396 3.98535 132.548 6.5625 132.541C9.12598 132.548 10.6982 133.396 10.7051 134.852C10.6982 136.308 9.12598 137.155 6.5625 137.162C3.98535 137.155 2.41309 136.308 2.41992 134.852ZM3.70508 134.852C3.69824 135.679 4.76465 136.15 6.5625 136.137C8.34668 136.15 9.41309 135.679 9.41992 134.852C9.41309 134.018 8.34668 133.546 6.5625 133.553C4.76465 133.546 3.69824 134.018 3.70508 134.852ZM23.7617 134.564V135.645H12.5508V134.564H17.4863V132.049H13.8359V125.746H15.1348V127.852H21.1504V125.746H22.4355V132.049H18.7715V134.564H23.7617ZM15.1348 130.996H21.1504V128.904H15.1348V130.996ZM35.8477 130.531V131.529H24.6367V130.531H35.8477ZM25.9629 133.32V132.391H34.4668V135.084H27.2754V136.096H34.8496V137.012H25.9766V134.223H33.1816V133.32H25.9629ZM26.0449 126.143V125.227H34.4395V127.879H27.3574V128.809H34.6445V129.725H26.0723V127.018H33.1406V126.143H26.0449ZM49.793 124.912V127.811H51.5703V128.891H49.793V132.062H48.4941V124.912H49.793ZM40.6465 131.352V125.609H41.918V127.387H45.1309V125.609H46.416V131.352H40.6465ZM41.918 130.326H45.1309V128.412H41.918V130.326ZM41.9863 136.984V132.705H49.8887V133.744H43.2852V135.959H50.1074V136.984H41.9863ZM55.5488 125.828C57.3809 125.835 58.6865 127.503 58.6934 130.121C58.6865 132.767 57.3809 134.435 55.5488 134.428C53.7168 134.435 52.4111 132.767 52.418 130.121C52.4111 127.503 53.7168 125.835 55.5488 125.828ZM53.6621 130.121C53.6553 132.069 54.4346 133.266 55.5488 133.266C56.6836 133.266 57.4492 132.069 57.4492 130.121C57.4492 128.2 56.6836 126.997 55.5488 126.99C54.4346 126.997 53.6553 128.2 53.6621 130.121ZM60.5117 137.162V124.912H61.8105V129.711H63.7793V130.805H61.8105V137.162H60.5117ZM75.5781 134.564V135.645H64.3672V134.564H69.3027V132.049H65.6523V125.746H66.9512V127.852H72.9668V125.746H74.252V132.049H70.5879V134.564H75.5781ZM66.9512 130.996H72.9668V128.904H66.9512V130.996ZM80.1992 128.262C80.1992 130.217 81.0195 132.302 82.6602 133.307L81.9355 134.305C80.7871 133.614 80.0146 132.391 79.5908 130.976C79.1465 132.527 78.2988 133.854 77.1094 134.578L76.3027 133.607C78.0322 132.568 78.9482 130.401 78.9414 128.316V126.033H80.1992V128.262ZM81.334 130.299V129.219H83.2344V125.145H84.4648V136.561H83.2344V130.299H81.334ZM85.7637 137.162V124.912H87.0078V137.162H85.7637ZM99.7773 134.551V135.631H88.5664V134.551H91.2461V131.352C90.2412 130.798 89.626 129.923 89.6328 128.822C89.626 126.895 91.5195 125.63 94.1445 125.623C96.7764 125.63 98.6699 126.895 98.6699 128.822C98.6699 129.902 98.082 130.771 97.0977 131.324V134.551H99.7773ZM90.8906 128.822C90.8906 130.135 92.2236 130.989 94.1445 130.996C96.0518 130.989 97.4053 130.135 97.4121 128.822C97.4053 127.503 96.0518 126.662 94.1445 126.662C92.2236 126.662 90.8906 127.503 90.8906 128.822ZM92.5312 134.551H95.7852V131.83C95.2861 131.946 94.7324 132.008 94.1445 132.008C93.5703 132.008 93.0234 131.946 92.5312 131.83V134.551ZM102.061 136.096C101.527 136.089 101.083 135.658 101.09 135.125C101.083 134.592 101.527 134.154 102.061 134.154C102.587 134.154 103.024 134.592 103.031 135.125C103.024 135.658 102.587 136.089 102.061 136.096Z" fill="black"/>
<circle cx="231" cy="29" r="29" fill="#FFC091"/>
<path d="M224.25 20C222.455 20 221 21.4551 221 23.25V31.75C221 33.5449 222.455 35 224.25 35H225V37.75C225 38.7801 226.176 39.368 227 38.75L232 35H237.75C239.545 35 241 33.5449 241 31.75V23.25C241 21.4551 239.545 20 237.75 20H224.25Z" fill="white"/>
<path d="M206.115 108.658C206.115 110.565 207.004 112.534 208.713 113.43L207.975 114.4C206.785 113.771 205.958 112.603 205.514 111.222C205.083 112.698 204.263 113.977 203.08 114.66L202.314 113.703C204.003 112.719 204.885 110.634 204.898 108.658V108.207H202.629V107.127H204.898V105.35H206.115V107.127H208.344V108.207H206.115V108.658ZM209.096 116.561V105.145H210.326V109.779H211.789V104.912H213.033V117.162H211.789V110.873H210.326V116.561H209.096ZM221.141 105.801V106.84H216.561V108.193H220.799V109.219H216.561V110.613C219.008 110.627 220.437 110.586 222.098 110.299L222.234 111.352C220.464 111.639 218.939 111.687 216.26 111.68H215.248V105.801H221.141ZM216.438 114.879C216.438 113.45 218.003 112.623 220.607 112.623C223.171 112.623 224.771 113.45 224.777 114.879C224.771 116.321 223.171 117.142 220.607 117.135C218.003 117.142 216.438 116.321 216.438 114.879ZM217.736 114.879C217.729 115.679 218.782 116.13 220.607 116.137C222.398 116.13 223.485 115.679 223.479 114.879C223.485 114.1 222.398 113.642 220.607 113.648C218.782 113.642 217.729 114.1 217.736 114.879ZM223.41 112.459V104.926H224.709V112.459H223.41ZM230.943 107.537C230.943 108.959 232.051 110.278 233.924 110.805L233.322 111.83C231.914 111.42 230.868 110.552 230.328 109.438C229.788 110.695 228.722 111.673 227.279 112.145L226.637 111.119C228.51 110.565 229.658 109.123 229.658 107.537V107.387H226.992V106.334H229.658V104.857H230.957V106.334H233.609V107.387H230.943V107.537ZM228.209 114.906C228.209 113.471 229.761 112.657 232.324 112.664C234.86 112.657 236.385 113.471 236.385 114.906C236.385 116.314 234.86 117.128 232.324 117.135C229.761 117.128 228.209 116.314 228.209 114.906ZM229.508 114.906C229.501 115.692 230.54 116.13 232.324 116.137C234.081 116.13 235.12 115.692 235.113 114.906C235.12 114.1 234.081 113.676 232.324 113.676C230.54 113.676 229.501 114.1 229.508 114.906ZM234.977 112.377V104.912H236.275V108.002H238.053V109.068H236.275V112.377H234.977ZM244.328 105.65C246.898 105.65 248.854 107.011 248.854 109.068C248.854 111.14 246.898 112.493 244.328 112.486C241.765 112.493 239.81 111.14 239.816 109.068C239.81 107.011 241.765 105.65 244.328 105.65ZM238.75 115.576V114.496H249.961V115.576H238.75ZM241.061 109.068C241.054 110.497 242.448 111.42 244.328 111.42C246.201 111.42 247.589 110.497 247.596 109.068C247.589 107.646 246.201 106.696 244.328 106.703C242.448 106.696 241.054 107.646 241.061 109.068ZM262.061 114.605V115.699H250.85V114.605H255.785V112.459H252.217V108.562H259.408V106.84H252.189V105.773H260.693V109.602H253.502V111.393H260.98V112.459H257.07V114.605H262.061ZM270.879 108.521C270.872 110.572 272.219 112.691 274.105 113.498L273.395 114.51C271.952 113.874 270.804 112.521 270.236 110.887C269.669 112.637 268.521 114.127 267.092 114.824L266.34 113.799C268.186 112.931 269.553 110.634 269.566 108.521V107.223H266.764V106.143H273.668V107.223H270.879V108.521ZM275.213 117.162V104.912H276.512V117.162H275.213ZM289.664 110.996V112.062H278.467V110.996H283.402V109.205H284.688V110.996H289.664ZM279.109 108.85C281.454 108.549 283.382 107.168 283.389 105.623V105.104H284.701V105.623C284.694 107.188 286.615 108.549 288.98 108.85L288.475 109.875C286.533 109.561 284.817 108.617 284.038 107.264C283.259 108.617 281.543 109.561 279.588 109.875L279.109 108.85ZM279.711 114.168V113.143H288.27V117.162H286.957V114.168H279.711ZM294.955 107.086C294.948 108.631 296.056 110.142 297.908 110.777L297.238 111.789C295.864 111.317 294.846 110.333 294.312 109.123C293.779 110.47 292.706 111.55 291.25 112.062L290.58 111.037C292.46 110.395 293.636 108.761 293.629 107.1V106.758H290.977V105.705H297.58V106.758H294.955V107.086ZM292.48 113.908V112.855H300.779V117.162H299.48V113.908H292.48ZM297.211 109.096V108.029H299.48V104.912H300.779V112.24H299.48V109.096H297.211ZM312.824 104.926V113.826H311.525V104.926H312.824ZM302.912 108.781C302.919 107.011 304.327 105.753 306.18 105.746C308.025 105.753 309.434 107.011 309.434 108.781C309.434 110.579 308.025 111.83 306.18 111.83C304.327 111.83 302.919 110.579 302.912 108.781ZM304.184 108.781C304.177 109.937 305.038 110.695 306.18 110.695C307.301 110.695 308.162 109.937 308.162 108.781C308.162 107.653 307.301 106.881 306.18 106.881C305.038 106.881 304.177 107.653 304.184 108.781ZM304.812 116.902V112.924H306.125V115.85H313.193V116.902H304.812ZM329.395 114.537V115.604H318.184V114.537H323.092V111.625H324.377V114.537H329.395ZM318.566 110.777C320.925 110.381 323.03 108.562 323.037 106.621V105.691H324.404V106.621C324.404 108.562 326.537 110.381 328.902 110.777L328.342 111.844C326.353 111.454 324.534 110.224 323.728 108.549C322.921 110.217 321.116 111.454 319.141 111.844L318.566 110.777ZM341.453 111.352V112.377H330.256V111.352H335.205V110.285H331.719V105.24H340.086V106.266H333.031V107.264H339.771V108.234H333.031V109.273H340.168V110.285H336.504V111.352H341.453ZM331.609 115.166C331.609 113.881 333.134 113.177 335.861 113.184C338.548 113.177 340.079 113.881 340.086 115.166C340.079 116.458 338.548 117.142 335.861 117.135C333.134 117.142 331.609 116.458 331.609 115.166ZM332.908 115.166C332.901 115.829 333.927 116.164 335.861 116.15C337.769 116.164 338.787 115.829 338.787 115.166C338.787 114.503 337.769 114.154 335.861 114.154C333.927 114.154 332.901 114.503 332.908 115.166ZM347.961 105.117C350.723 105.11 352.329 105.855 352.336 107.223C352.329 108.597 350.723 109.342 347.961 109.342C345.199 109.342 343.579 108.597 343.586 107.223C343.579 105.855 345.199 105.11 347.961 105.117ZM342.383 111.133V110.094H353.553V111.133H342.383ZM343.723 113.047V112.076H352.145V114.947H345.008V116.041H352.486V117.039H343.736V114.004H350.859V113.047H343.723ZM344.939 107.223C344.933 107.981 346.013 108.371 347.961 108.371C349.923 108.371 351.003 107.981 350.996 107.223C351.003 106.498 349.923 106.074 347.961 106.074C346.013 106.074 344.933 106.498 344.939 107.223ZM212.596 124.912V137.189H211.297V124.912H212.596ZM202.875 130.121C202.875 127.503 204.194 125.835 206.047 125.828C207.865 125.835 209.205 127.503 209.205 130.121C209.205 132.767 207.865 134.435 206.047 134.428C204.194 134.435 202.875 132.767 202.875 130.121ZM204.133 130.121C204.126 132.069 204.905 133.266 206.047 133.266C207.168 133.266 207.947 132.069 207.947 130.121C207.947 128.2 207.168 126.997 206.047 126.99C204.905 126.997 204.126 128.2 204.133 130.121ZM217.873 125.828C219.541 125.835 220.751 127.243 220.949 129.506H223.479V124.912H224.764V137.189H223.479V130.559H220.963C220.819 132.951 219.582 134.435 217.873 134.428C216.048 134.435 214.756 132.767 214.77 130.121C214.756 127.503 216.048 125.835 217.873 125.828ZM216 130.121C216.007 132.069 216.766 133.266 217.873 133.266C218.98 133.266 219.739 132.069 219.746 130.121C219.739 128.2 218.98 126.997 217.873 126.99C216.766 126.997 216.007 128.2 216 130.121ZM238.094 129.725V130.791H236.193V137.148H234.895V124.912H236.193V129.725H238.094ZM227.115 134.072V126.102H228.4V132.992C230.109 132.985 231.894 132.842 233.842 132.445L233.992 133.539C231.894 133.956 229.966 134.079 228.127 134.072H227.115ZM248.293 124.912V129.793H250.193V130.873H248.293V137.148H246.994V124.912H248.293ZM238.764 133.881C241.833 132.35 243.501 130.135 243.768 127.277H239.379V126.197H245.094C245.08 129.738 243.521 132.903 239.488 134.893L238.764 133.881ZM262.061 134.564V135.645H250.85V134.564H255.785V132.049H252.135V125.746H253.434V127.852H259.449V125.746H260.734V132.049H257.07V134.564H262.061ZM253.434 130.996H259.449V128.904H253.434V130.996ZM266.682 128.262C266.682 130.217 267.502 132.302 269.143 133.307L268.418 134.305C267.27 133.614 266.497 132.391 266.073 130.976C265.629 132.527 264.781 133.854 263.592 134.578L262.785 133.607C264.515 132.568 265.431 130.401 265.424 128.316V126.033H266.682V128.262ZM267.816 130.299V129.219H269.717V125.145H270.947V136.561H269.717V130.299H267.816ZM272.246 137.162V124.912H273.49V137.162H272.246ZM286.26 134.551V135.631H275.049V134.551H277.729V131.352C276.724 130.798 276.108 129.923 276.115 128.822C276.108 126.895 278.002 125.63 280.627 125.623C283.259 125.63 285.152 126.895 285.152 128.822C285.152 129.902 284.564 130.771 283.58 131.324V134.551H286.26ZM277.373 128.822C277.373 130.135 278.706 130.989 280.627 130.996C282.534 130.989 283.888 130.135 283.895 128.822C283.888 127.503 282.534 126.662 280.627 126.662C278.706 126.662 277.373 127.503 277.373 128.822ZM279.014 134.551H282.268V131.83C281.769 131.946 281.215 132.008 280.627 132.008C280.053 132.008 279.506 131.946 279.014 131.83V134.551ZM288.543 136.096C288.01 136.089 287.565 135.658 287.572 135.125C287.565 134.592 288.01 134.154 288.543 134.154C289.069 134.154 289.507 134.592 289.514 135.125C289.507 135.658 289.069 136.089 288.543 136.096Z" fill="black"/>
<path d="M213.656 72.2656V75.7031H215.562V77.1562H213.656V80.5781H211.922V72.2656H213.656ZM202.344 79.1562C203.406 79.1562 204.633 79.1562 205.906 79.125V78.4141C204.32 78.25 203.336 77.6016 203.344 76.5625C203.336 75.4219 204.68 74.75 206.75 74.75C208.82 74.75 210.156 75.4219 210.156 76.5625C210.156 77.5859 209.195 78.2422 207.641 78.4062V79.0625C208.844 79 210.055 78.9062 211.188 78.75L211.328 79.8438C208.305 80.3516 204.992 80.375 202.531 80.375L202.344 79.1562ZM202.703 74.4062V73.2188H205.906V72.1562H207.641V73.2188H210.812V74.4062H202.703ZM204.219 82.3125V81.1406H213.656V84.1875H205.984V85.0938H214.156V86.2656H204.25V83.1094H211.922V82.3125H204.219ZM205.016 76.5625C205 77.0703 205.656 77.3438 206.75 77.3438C207.844 77.3438 208.5 77.0703 208.5 76.5625C208.5 76.0938 207.844 75.8516 206.75 75.8438C205.656 75.8516 205 76.0938 205.016 76.5625ZM218.5 72.8906V74.6875H221.797V72.8906H223.516V79.0469H216.781V72.8906H218.5ZM218.203 81.4219V80.0625H227.438V83.7656H219.938V84.8906H227.875V86.2656H218.219V82.5H225.703V81.4219H218.203ZM218.5 77.6719H221.797V76H218.5V77.6719ZM225.703 79.5V72.2656H227.438V75.125H229.406V76.5312H227.438V79.5H225.703ZM241.266 72.2812V76.7188H243.234V78.1562H241.266V82.8281H239.531V72.2812H241.266ZM230.141 75.2344V73.8438H233.469V72.2656H235.203V73.8438H238.516V75.2344H230.141ZM230.859 78.5156C230.859 76.8906 232.273 75.8125 234.328 75.8125C236.367 75.8125 237.773 76.8906 237.781 78.5156C237.773 80.1328 236.367 81.1875 234.328 81.1875C232.273 81.1875 230.859 80.1328 230.859 78.5156ZM232.219 86.1094V82H233.953V84.7031H241.828V86.1094H232.219ZM232.547 78.5156C232.539 79.3672 233.258 79.8516 234.328 79.8438C235.398 79.8516 236.125 79.3672 236.125 78.5156C236.125 77.6562 235.398 77.1562 234.328 77.1562C233.258 77.1562 232.539 77.6562 232.547 78.5156ZM260.656 83.2344V84.6406H247.75V83.2344H253.281V79.9688H255V83.2344H260.656ZM248.125 78.875C251.078 78.3984 253.195 76.2812 253.203 74.1562V73.125H255.047V74.1562C255.047 76.2891 257.18 78.3984 260.156 78.875L259.406 80.3125C257.023 79.8594 255.062 78.4922 254.125 76.6406C253.195 78.4844 251.258 79.8672 248.875 80.3125L248.125 78.875ZM274.453 79.6094V80.9844H261.547V79.6094H267.125V78.5625H263.203V72.6406H272.906V73.9844H264.938V74.9531H272.562V76.2344H264.938V77.2344H273.016V78.5625H268.859V79.6094H274.453ZM263.078 84.0625C263.078 82.5859 264.852 81.7578 268 81.7656C271.102 81.7578 272.883 82.5859 272.891 84.0625C272.883 85.5781 271.102 86.375 268 86.375C264.852 86.375 263.078 85.5781 263.078 84.0625ZM264.812 84.0625C264.812 84.75 265.875 85.0781 268 85.0781C270.086 85.0781 271.141 84.75 271.156 84.0625C271.141 83.3906 270.086 83.0625 268 83.0625C265.875 83.0625 264.812 83.3906 264.812 84.0625Z" fill="black"/>
<circle cx="434" cy="29" r="29" fill="#FFC091"/>
<path d="M443 25.5V34.75C443 36.5449 441.545 38 439.75 38H428.25C426.455 38 425 36.5449 425 34.75V25.5H443ZM429.25 32C428.56 32 428 32.5596 428 33.25C428 33.9404 428.56 34.5 429.25 34.5C429.94 34.5 430.5 33.9404 430.5 33.25C430.5 32.5596 429.94 32 429.25 32ZM434 32C433.31 32 432.75 32.5596 432.75 33.25C432.75 33.9404 433.31 34.5 434 34.5C434.69 34.5 435.25 33.9404 435.25 33.25C435.25 32.5596 434.69 32 434 32ZM429.25 27.5C428.56 27.5 428 28.0596 428 28.75C428 29.4404 428.56 30 429.25 30C429.94 30 430.5 29.4404 430.5 28.75C430.5 28.0596 429.94 27.5 429.25 27.5ZM434 27.5C433.31 27.5 432.75 28.0596 432.75 28.75C432.75 29.4404 433.31 30 434 30C434.69 30 435.25 29.4404 435.25 28.75C435.25 28.0596 434.69 27.5 434 27.5ZM438.75 27.5C438.06 27.5 437.5 28.0596 437.5 28.75C437.5 29.4404 438.06 30 438.75 30C439.44 30 440 29.4404 440 28.75C440 28.0596 439.44 27.5 438.75 27.5ZM439.75 20C441.545 20 443 21.4551 443 23.25V24H425V23.25C425 21.4551 426.455 20 428.25 20H439.75Z" fill="white"/>
<path d="M415.637 104.926V114.209H414.338V113.033H411.877V112.117H414.338V104.926H415.637ZM405.396 110.518C407.659 110.497 410.715 110.477 413.326 110.148L413.408 111.078C412.362 111.256 411.262 111.365 410.182 111.44V113.826H408.883V111.509C407.693 111.557 406.552 111.557 405.561 111.557L405.396 110.518ZM406.354 107.551C406.347 106.252 407.584 105.391 409.402 105.391C411.193 105.391 412.438 106.252 412.438 107.551C412.438 108.856 411.193 109.684 409.402 109.684C407.591 109.684 406.347 108.856 406.354 107.551ZM407.092 116.902V113.307H408.377V115.85H415.938V116.902H407.092ZM407.584 107.551C407.577 108.275 408.315 108.727 409.402 108.727C410.448 108.727 411.2 108.275 411.207 107.551C411.2 106.819 410.448 106.348 409.402 106.361C408.315 106.348 407.577 106.819 407.584 107.551ZM427.094 104.912V109.875H429.062V110.955H427.094V117.162H425.809V104.912H427.094ZM417.482 107.893V106.826H420.504V105.076H421.803V106.826H424.742V107.893H417.482ZM418.111 111.639C418.111 109.971 419.396 108.795 421.16 108.795C422.917 108.795 424.202 109.971 424.209 111.639C424.202 113.32 422.917 114.489 421.16 114.496C419.396 114.489 418.111 113.32 418.111 111.639ZM419.355 111.639C419.349 112.705 420.114 113.416 421.16 113.402C422.199 113.416 422.958 112.705 422.965 111.639C422.958 110.593 422.199 109.868 421.16 109.861C420.114 109.868 419.349 110.593 419.355 111.639ZM439.562 108.494V109.533H431.127V105.35H432.412V108.494H439.562ZM429.637 112.117V111.078H440.848V112.117H429.637ZM431.031 116.875V113.279H432.33V115.809H439.645V116.875H431.031ZM448.641 105.322C450.486 105.336 451.847 106.464 451.854 108.07C451.847 109.684 450.486 110.805 448.641 110.805C446.774 110.805 445.421 109.684 445.414 108.07C445.421 106.464 446.774 105.336 448.641 105.322ZM446.686 108.07C446.679 109.082 447.513 109.752 448.641 109.752C449.762 109.752 450.596 109.082 450.596 108.07C450.596 107.072 449.762 106.402 448.641 106.416C447.513 106.402 446.679 107.072 446.686 108.07ZM447.273 112.746V111.707H455.326V114.797H448.572V115.973H455.736V117.012H447.314V113.826H454.041V112.746H447.273ZM454.027 111.146V104.912H455.326V111.146H454.027ZM467.48 104.912V112.199H466.182V109.096H463.898V108.029H466.182V104.912H467.48ZM457.268 111.092C459.168 110.429 460.337 108.774 460.33 107.086V106.812H457.678V105.76H464.281V106.812H461.656V107.072C461.649 108.624 462.757 110.135 464.609 110.764L463.939 111.789C462.565 111.317 461.554 110.333 461.021 109.123C460.487 110.49 459.414 111.591 457.951 112.131L457.268 111.092ZM459.236 114.852C459.229 113.396 460.802 112.548 463.379 112.541C465.942 112.548 467.515 113.396 467.521 114.852C467.515 116.308 465.942 117.155 463.379 117.162C460.802 117.155 459.229 116.308 459.236 114.852ZM460.521 114.852C460.515 115.679 461.581 116.15 463.379 116.137C465.163 116.15 466.229 115.679 466.236 114.852C466.229 114.018 465.163 113.546 463.379 113.553C461.581 113.546 460.515 114.018 460.521 114.852ZM479.908 104.912V117.162H478.664V104.912H479.908ZM469.504 110.203C469.504 107.551 470.543 105.89 472.143 105.896C473.633 105.89 474.638 107.305 474.788 109.602H476.176V105.145H477.42V116.561H476.176V110.654H474.795C474.679 113.047 473.66 114.53 472.143 114.523C470.543 114.53 469.504 112.862 469.504 110.203ZM470.707 110.203C470.707 112.151 471.261 113.3 472.143 113.293C473.045 113.3 473.605 112.151 473.605 110.203C473.605 108.248 473.045 107.106 472.143 107.113C471.261 107.106 470.707 108.248 470.707 110.203ZM495.043 104.926V113.895H493.744V104.926H495.043ZM484.953 111.133C486.874 110.422 488.009 108.658 488.016 106.812V105.596H489.342V106.812C489.335 108.604 490.47 110.244 492.363 110.9L491.693 111.939C490.278 111.413 489.232 110.374 488.686 109.048C488.146 110.47 487.086 111.604 485.65 112.158L484.953 111.133ZM487.031 116.902V113.047H488.344V115.85H495.412V116.902H487.031ZM501.277 107.523C501.277 108.966 502.46 110.312 504.326 110.832L503.711 111.844C502.289 111.44 501.223 110.565 500.662 109.431C500.129 110.695 499.062 111.7 497.6 112.158L496.984 111.16C498.844 110.565 499.992 109.103 499.992 107.523V107.373H497.326V106.334H499.992V104.857H501.291V106.334H503.943V107.373H501.277V107.523ZM498.953 114.865C498.946 113.43 500.525 112.616 503.096 112.609C505.659 112.616 507.231 113.43 507.238 114.865C507.231 116.308 505.659 117.142 503.096 117.135C500.525 117.142 498.946 116.308 498.953 114.865ZM500.238 114.865C500.231 115.658 501.298 116.13 503.096 116.137C504.894 116.13 505.946 115.658 505.953 114.865C505.946 114.072 504.894 113.621 503.096 113.621C501.298 113.621 500.231 114.072 500.238 114.865ZM503.561 109.41V108.344H505.898V104.912H507.197V112.336H505.898V109.41H503.561ZM518.627 104.912V109.875H520.596V110.955H518.627V117.162H517.342V104.912H518.627ZM509.016 107.893V106.826H512.037V105.076H513.336V106.826H516.275V107.893H509.016ZM509.645 111.639C509.645 109.971 510.93 108.795 512.693 108.795C514.45 108.795 515.735 109.971 515.742 111.639C515.735 113.32 514.45 114.489 512.693 114.496C510.93 114.489 509.645 113.32 509.645 111.639ZM510.889 111.639C510.882 112.705 511.647 113.416 512.693 113.402C513.732 113.416 514.491 112.705 514.498 111.639C514.491 110.593 513.732 109.868 512.693 109.861C511.647 109.868 510.882 110.593 510.889 111.639ZM524.506 105.828C525.627 105.835 526.543 106.471 527.083 107.578H530.111V104.912H531.396V117.189H530.111V112.486H527.172C526.646 113.717 525.688 114.435 524.506 114.428C522.681 114.435 521.389 112.767 521.402 110.121C521.389 107.503 522.681 105.835 524.506 105.828ZM522.633 110.121C522.64 112.069 523.398 113.266 524.506 113.266C525.613 113.266 526.372 112.069 526.379 110.121C526.372 108.2 525.613 106.997 524.506 106.99C523.398 106.997 522.64 108.2 522.633 110.121ZM527.452 108.645C527.548 109.096 527.609 109.588 527.609 110.121C527.609 110.586 527.568 111.017 527.486 111.42H530.111V108.645H527.452ZM416.648 132.117V133.143H411.645V137.162H410.373V133.143H405.438V132.117H416.648ZM406.832 130.723V125.404H408.117V127.004H413.941V125.404H415.24V130.723H406.832ZM408.117 129.684H413.941V128.043H408.117V129.684ZM427.176 124.912V127.824H428.953V128.904H427.176V131.83H425.877V124.912H427.176ZM418.098 131.201V125.719H423.539V126.771H419.383V130.148C421.769 130.148 423.108 130.053 424.646 129.752L424.797 130.791C423.143 131.14 421.693 131.201 419.068 131.201H418.098ZM419.355 136.998V132.432H427.176V136.998H419.355ZM420.627 135.959H425.891V133.471H420.627V135.959ZM432.262 132.09V133.512H434.176V132.09H435.379V137.012H431.045V132.09H432.262ZM429.828 128.262C429.821 126.587 431.168 125.432 433.041 125.432C434.654 125.432 435.905 126.341 436.172 127.715H438.564V124.912H439.863V131.406H438.564V128.781H436.179C435.926 130.183 434.668 131.112 433.041 131.105C431.168 131.112 429.821 129.95 429.828 128.262ZM431.072 128.262C431.065 129.321 431.886 130.046 433.041 130.053C434.176 130.046 434.982 129.321 434.982 128.262C434.982 127.216 434.176 126.505 433.041 126.512C431.886 126.505 431.065 127.216 431.072 128.262ZM432.262 136H434.176V134.496H432.262V136ZM435.447 136.123C436.924 135.515 437.648 134.229 437.648 133.006V132.008H438.934V133.006C438.927 134.291 439.651 135.59 441.162 136.123L440.492 137.107C439.385 136.684 438.667 135.884 438.277 134.913C437.874 135.856 437.156 136.67 436.104 137.107L435.447 136.123ZM451.895 124.912V137.189H450.596V124.912H451.895ZM442.174 130.121C442.174 127.503 443.493 125.835 445.346 125.828C447.164 125.835 448.504 127.503 448.504 130.121C448.504 132.767 447.164 134.435 445.346 134.428C443.493 134.435 442.174 132.767 442.174 130.121ZM443.432 130.121C443.425 132.069 444.204 133.266 445.346 133.266C446.467 133.266 447.246 132.069 447.246 130.121C447.246 128.2 446.467 126.997 445.346 126.99C444.204 126.997 443.425 128.2 443.432 130.121ZM461.561 127.441C461.561 128.856 462.668 130.169 464.541 130.709L463.939 131.721C462.524 131.311 461.479 130.442 460.932 129.328C460.392 130.552 459.325 131.502 457.869 131.953L457.24 130.941C459.113 130.388 460.275 128.993 460.275 127.441V127.318H457.609V126.279H460.275V124.857H461.574V126.279H464.227V127.318H461.561V127.441ZM459.072 137.012V132.691H466.893V137.012H459.072ZM460.344 135.959H465.607V133.717H460.344V135.959ZM465.594 132.145V124.912H466.893V127.947H468.67V129.027H466.893V132.145H465.594ZM478.91 124.912V129.793H480.811V130.873H478.91V137.148H477.611V124.912H478.91ZM469.381 133.881C472.45 132.35 474.118 130.135 474.385 127.277H469.996V126.197H475.711C475.697 129.738 474.139 132.903 470.105 134.893L469.381 133.881ZM487.523 126.936V127.988H481.439V126.936H483.846V125.268H485.131V126.936H487.523ZM481.836 131.543C481.829 129.896 482.95 128.727 484.488 128.727C486.04 128.727 487.147 129.896 487.154 131.543C487.147 133.218 486.04 134.394 484.488 134.387C482.95 134.394 481.829 133.218 481.836 131.543ZM482.984 131.543C482.978 132.582 483.606 133.279 484.488 133.279C485.37 133.279 486.006 132.582 486.006 131.543C486.006 130.524 485.37 129.813 484.488 129.807C483.606 129.813 482.978 130.524 482.984 131.543ZM488.084 136.588V125.186H489.314V130.012H490.723V124.912H491.953V137.162H490.723V131.078H489.314V136.588H488.084ZM504.777 134.551V135.631H493.566V134.551H496.246V131.352C495.241 130.798 494.626 129.923 494.633 128.822C494.626 126.895 496.52 125.63 499.145 125.623C501.776 125.63 503.67 126.895 503.67 128.822C503.67 129.902 503.082 130.771 502.098 131.324V134.551H504.777ZM495.891 128.822C495.891 130.135 497.224 130.989 499.145 130.996C501.052 130.989 502.405 130.135 502.412 128.822C502.405 127.503 501.052 126.662 499.145 126.662C497.224 126.662 495.891 127.503 495.891 128.822ZM497.531 134.551H500.785V131.83C500.286 131.946 499.732 132.008 499.145 132.008C498.57 132.008 498.023 131.946 497.531 131.83V134.551ZM507.061 136.096C506.527 136.089 506.083 135.658 506.09 135.125C506.083 134.592 506.527 134.154 507.061 134.154C507.587 134.154 508.024 134.592 508.031 135.125C508.024 135.658 507.587 136.089 507.061 136.096Z" fill="black"/>
<path d="M418.359 80.4844V81.8594H412.734V86.3906H411.016V81.8594H405.453V80.4844H418.359ZM407.016 79.0156V72.8281H408.734V74.5625H415.047V72.8281H416.797V79.0156H407.016ZM408.734 77.6094H415.047V75.9375H408.734V77.6094ZM430.438 72.2656V75.5469H432.406V76.9844H430.438V80.2188H428.703V72.2656H430.438ZM419.891 79.5938V73.1719H426.172V74.5781H421.609V78.1875C424.266 78.1797 425.742 78.0859 427.422 77.75L427.609 79.125C425.758 79.5312 424.117 79.5938 421.031 79.5938H419.891ZM421.312 86.2031V80.8594H430.438V86.2031H421.312ZM423.031 84.8281H428.719V82.25H423.031V84.8281ZM436.328 80.5312V82.0469H438.188V80.5312H439.797V85.0156C441.461 84.3125 442.219 82.8984 442.219 81.5469V80.4219H443.953V81.5469C443.945 83.0078 444.711 84.4375 446.453 85.0312L445.562 86.3281C444.312 85.875 443.516 85.0234 443.07 83.9531C442.602 84.9922 441.797 85.8594 440.625 86.3281L439.797 85.1016V86.2188H434.703V80.5312H436.328ZM433.312 76.125C433.312 74.1953 434.883 72.8359 437.047 72.8438C438.867 72.8359 440.305 73.8594 440.664 75.3906H443.219V72.2656H444.953V79.75H443.219V76.8281H440.672C440.328 78.3984 438.883 79.4375 437.047 79.4375C434.883 79.4375 433.312 78.0859 433.312 76.125ZM434.969 76.125C434.969 77.2656 435.828 78.0156 437.047 78.0156C438.234 78.0156 439.086 77.2656 439.094 76.125C439.086 75.0078 438.234 74.2734 437.047 74.2812C435.828 74.2734 434.969 75.0078 434.969 76.125ZM436.328 84.8906H438.188V83.3438H436.328V84.8906ZM458.391 76.2656V77.6406H448.609V72.7812H450.328V76.2656H458.391ZM446.938 80.6562V79.2812H459.844V80.6562H446.938ZM448.484 86.0625V81.9062H450.219V84.6562H458.484V86.0625H448.484ZM469.656 75.1719C469.648 76.7109 470.797 78.1953 473.016 78.8125L472.219 80.1562C470.594 79.7109 469.445 78.7656 468.805 77.5547C468.188 78.8906 467.008 79.9219 465.328 80.4062L464.5 79.0625C466.727 78.4375 467.922 76.8594 467.922 75.1719V75.1406H464.969V73.7656H467.922V72.2031H469.672V73.7656H472.609V75.1406H469.656V75.1719ZM466.594 86.2188V81.1719H475.719V86.2188H466.594ZM468.312 84.8125H474V82.5469H468.312V84.8125ZM473.984 80.5781V72.2656H475.719V75.6719H477.688V77.1094H475.719V80.5781H473.984ZM489.469 72.2656V77.7812H491.562V79.2344H489.469V86.3594H487.734V72.2656H489.469ZM478.328 82.5C481.766 80.7812 483.625 78.3906 483.969 75.1719H479.094V73.7344H485.734C485.727 77.8828 484.008 81.5312 479.312 83.8438L478.328 82.5ZM504 72.2812V82.5938H502.25V72.2812H504ZM492.25 79.2656C494.539 78.4609 495.711 76.4688 495.703 74.4375V73.0625H497.5V74.4375C497.492 76.4062 498.648 78.2656 500.891 79.0156L500 80.3906C498.391 79.8281 497.242 78.7031 496.617 77.2578C495.992 78.8047 494.82 80.0391 493.156 80.6406L492.25 79.2656ZM494.656 86.1094V81.6094H496.406V84.7031H504.391V86.1094H494.656ZM511.141 75.2812C511.133 76.8281 512.344 78.3516 514.562 78.9531L513.75 80.2969C512.125 79.8516 510.953 78.9062 510.305 77.6797C509.688 79.0625 508.516 80.1562 506.828 80.6562L506.016 79.3125C508.227 78.6406 509.406 76.9844 509.406 75.2812V75.2031H506.453V73.8281H509.406V72.2031H511.156V73.8281H514.094V75.2031H511.141V75.2812ZM508.312 83.7188C508.297 82.0391 510.141 81.0938 513.109 81.0938C516.094 81.0938 517.93 82.0391 517.938 83.7188C517.93 85.3984 516.094 86.375 513.109 86.375C510.141 86.375 508.297 85.3984 508.312 83.7188ZM510.031 83.7188C510.023 84.5547 511.148 85.0312 513.109 85.0312C515.109 85.0312 516.203 84.5547 516.203 83.7188C516.203 82.875 515.109 82.4297 513.109 82.4219C511.148 82.4297 510.023 82.875 510.031 83.7188ZM513.672 77.5469V76.1406H516.156V72.2656H517.891V80.8125H516.156V77.5469H513.672Z" fill="black"/>
</svg>
