<svg width="630" height="245" viewBox="0 0 630 245" fill="none" xmlns="http://www.w3.org/2000/svg">
<g filter="url(#filter0_d_1972_56021)">
<rect x="10" y="8" width="610" height="224.529" rx="24.75" fill="#FF7F1E"/>
<path d="M83.7886 118.498H108.929V121.738H83.7886V118.498ZM94.3186 112.348H98.3086V119.248H94.3186V112.348ZM86.3986 99.2076H106.169V112.858H86.3986V99.2076ZM102.269 102.388H90.3286V109.708H102.269V102.388ZM130.406 97.1376H134.426V125.008H130.406V97.1376ZM119.456 99.0876C123.656 99.0876 126.746 102.928 126.746 108.988C126.746 115.108 123.656 118.948 119.456 118.948C115.256 118.948 112.166 115.108 112.166 108.988C112.166 102.928 115.256 99.0876 119.456 99.0876ZM119.456 102.718C117.386 102.718 115.976 104.908 115.976 108.988C115.976 113.128 117.386 115.348 119.456 115.348C121.526 115.348 122.906 113.128 122.906 108.988C122.906 104.908 121.526 102.718 119.456 102.718ZM145.194 101.548H148.344V104.668C148.344 110.938 145.704 117.328 140.604 119.728L138.354 116.578C142.944 114.418 145.194 109.228 145.194 104.668V101.548ZM146.034 101.548H149.184V104.668C149.184 108.868 151.344 113.788 155.904 115.888L153.714 119.038C148.614 116.668 146.034 110.578 146.034 104.668V101.548ZM139.434 99.8376H154.674V103.108H139.434V99.8376ZM156.714 97.1676H160.734V124.948H156.714V97.1676ZM159.834 107.758H164.754V111.058H159.834V107.758ZM175.492 98.9976C179.872 98.9976 183.142 101.848 183.142 105.838C183.142 109.858 179.872 112.708 175.492 112.708C171.142 112.708 167.812 109.858 167.812 105.838C167.812 101.848 171.142 98.9976 175.492 98.9976ZM175.492 102.418C173.362 102.418 171.742 103.678 171.742 105.838C171.742 108.028 173.362 109.288 175.492 109.288C177.622 109.288 179.242 108.028 179.242 105.838C179.242 103.678 177.622 102.418 175.492 102.418ZM185.752 97.1376H189.742V125.008H185.752V97.1376ZM167.152 119.368L166.672 116.158C171.562 116.158 178.372 116.098 184.222 115.228L184.522 118.108C178.492 119.308 171.952 119.368 167.152 119.368ZM214.922 103.888H220.202V107.128H214.922V103.888ZM219.122 97.1676H223.112V113.668H219.122V97.1676ZM213.692 114.268C219.572 114.268 223.202 116.278 223.202 119.638C223.202 123.028 219.572 124.978 213.692 124.978C207.812 124.978 204.182 123.028 204.182 119.638C204.182 116.278 207.812 114.268 213.692 114.268ZM213.692 117.298C210.092 117.298 208.172 118.048 208.172 119.638C208.172 121.198 210.092 121.948 213.692 121.948C217.322 121.948 219.242 121.198 219.242 119.638C219.242 118.048 217.322 117.298 213.692 117.298ZM206.282 99.9576H209.522V101.698C209.522 107.008 207.062 111.868 201.752 113.668L199.712 110.518C204.302 108.958 206.282 105.268 206.282 101.698V99.9576ZM207.122 99.9576H210.332V101.698C210.332 104.968 212.222 108.358 216.602 109.828L214.652 112.978C209.492 111.268 207.122 106.648 207.122 101.698V99.9576ZM200.792 98.8476H215.732V102.028H200.792V98.8476ZM246.6 97.1676H250.62V124.948H246.6V97.1676ZM238.41 100.048H242.37C242.37 108.538 239.49 115.498 229.62 120.268L227.55 117.088C235.53 113.248 238.41 108.208 238.41 100.768V100.048ZM229.02 100.048H240.3V103.198H229.02V100.048ZM255.087 118.498H280.227V121.738H255.087V118.498ZM265.617 112.348H269.607V119.248H265.617V112.348ZM257.697 99.2076H277.467V112.858H257.697V99.2076ZM273.567 102.388H261.627V109.708H273.567V102.388ZM301.735 97.1976H305.755V112.888H301.735V97.1976ZM287.275 114.148H305.755V124.648H287.275V114.148ZM301.825 117.268H291.175V121.498H301.825V117.268ZM290.635 98.4576C294.955 98.4576 298.165 101.218 298.165 105.118C298.165 108.988 294.955 111.778 290.635 111.778C286.315 111.778 283.075 108.988 283.075 105.118C283.075 101.218 286.315 98.4576 290.635 98.4576ZM290.635 101.758C288.535 101.758 286.975 102.988 286.975 105.118C286.975 107.218 288.535 108.448 290.635 108.448C292.735 108.448 294.265 107.218 294.265 105.118C294.265 102.988 292.735 101.758 290.635 101.758ZM91.5886 132.978C95.8186 132.978 98.9986 135.618 98.9986 139.338C98.9986 143.028 95.8186 145.668 91.5886 145.668C87.3586 145.668 84.1786 143.028 84.1786 139.338C84.1786 135.618 87.3586 132.978 91.5886 132.978ZM91.5886 136.218C89.5486 136.218 88.0186 137.358 88.0186 139.338C88.0186 141.318 89.5486 142.458 91.5886 142.458C93.6286 142.458 95.1286 141.318 95.1286 139.338C95.1286 137.358 93.6286 136.218 91.5886 136.218ZM102.839 132.168H106.859V146.058H102.839V132.168ZM88.3186 147.198H106.859V154.818H92.2786V158.178H88.3786V151.938H102.899V150.288H88.3186V147.198ZM88.3786 156.558H107.549V159.648H88.3786V156.558ZM117.446 133.668H120.716V136.128C120.716 141.648 118.316 146.508 113.036 148.338L110.906 145.188C115.556 143.628 117.446 139.908 117.446 136.128V133.668ZM118.256 133.668H121.496V136.518C121.496 139.848 123.356 143.088 127.706 144.438L125.636 147.528C120.626 145.848 118.256 141.528 118.256 136.518V133.668ZM129.236 132.168H133.226V148.578H129.236V132.168ZM132.116 138.588H136.916V141.888H132.116V138.588ZM124.166 149.208C129.926 149.208 133.556 151.218 133.556 154.578C133.556 157.968 129.926 159.948 124.166 159.948C118.376 159.948 114.746 157.968 114.746 154.578C114.746 151.218 118.376 149.208 124.166 149.208ZM124.166 152.298C120.626 152.298 118.706 153.048 118.706 154.578C118.706 156.138 120.626 156.858 124.166 156.858C127.706 156.858 129.596 156.138 129.596 154.578C129.596 153.048 127.706 152.298 124.166 152.298ZM138.954 145.638H164.094V148.818H138.954V145.638ZM149.484 142.038H153.444V147.018H149.484V142.038ZM149.424 132.648H152.844V133.488C152.844 138.618 148.764 142.638 141.684 143.658L140.214 140.538C146.454 139.788 149.424 136.608 149.424 133.488V132.648ZM150.084 132.648H153.504V133.488C153.504 136.728 156.414 139.788 162.714 140.538L161.244 143.658C154.164 142.608 150.084 138.738 150.084 133.488V132.648ZM141.744 150.768H161.034V159.948H157.044V153.888H141.744V150.768Z" fill="white"/>
<path d="M93.3691 64.2922V67.6174H95.2588V68.76H93.3691V72.0413H91.9629V64.2922H93.3691ZM83.5986 71.0891V65.259H89.458V66.387H84.9756V69.9612C87.561 69.9465 89.0186 69.8733 90.6738 69.5364L90.8057 70.6643C89.0479 71.0232 87.4805 71.0891 84.6387 71.0891H83.5986ZM84.7119 74.8391C84.7119 73.2351 86.4111 72.2976 89.1211 72.2903C91.8018 72.2976 93.4717 73.2351 93.4717 74.8391C93.4717 76.4578 91.8018 77.3953 89.1211 77.3879C86.4111 77.3953 84.7119 76.4578 84.7119 74.8391ZM86.0889 74.8391C86.0815 75.7473 87.2241 76.282 89.1211 76.2747C90.9814 76.282 92.1313 75.7473 92.1387 74.8391C92.1313 73.9309 90.9814 73.4109 89.1211 73.4182C87.2241 73.4109 86.0815 73.9309 86.0889 74.8391ZM106.89 64.3069V73.9163H105.498V64.3069H106.89ZM96.0791 70.9573C98.1372 70.1956 99.353 68.3059 99.3604 66.3284V65.0247H100.781V66.3284C100.774 68.2473 101.99 70.0051 104.019 70.7083L103.301 71.8215C101.785 71.2576 100.664 70.1443 100.078 68.7234C99.4995 70.2468 98.3643 71.4626 96.8262 72.0559L96.0791 70.9573ZM98.3057 77.1389V73.0081H99.7119V76.011H107.285V77.1389H98.3057ZM113.247 65.2297C115.32 65.2224 116.814 66.5042 116.821 68.3499C116.814 70.1956 115.32 71.4773 113.247 71.4846C111.182 71.4773 109.666 70.1956 109.673 68.3499C109.666 66.5042 111.182 65.2224 113.247 65.2297ZM109.043 73.4622C111.431 73.4622 114.741 73.4402 117.612 73.0227L117.715 74.0334C114.749 74.6047 111.562 74.6194 109.219 74.6194L109.043 73.4622ZM111.05 68.3499C111.035 69.5144 111.973 70.2688 113.247 70.2688C114.521 70.2688 115.459 69.5144 115.459 68.3499C115.459 67.2 114.521 66.4309 113.247 66.4309C111.973 66.4309 111.035 67.2 111.05 68.3499ZM118.433 77.4465V64.2922H119.824V77.4465H118.433ZM129.316 64.7317C131.294 64.7463 132.751 65.9548 132.759 67.676C132.751 69.4045 131.294 70.6057 129.316 70.6057C127.317 70.6057 125.867 69.4045 125.859 67.676C125.867 65.9548 127.317 64.7463 129.316 64.7317ZM127.222 67.676C127.214 68.76 128.108 69.4778 129.316 69.4778C130.518 69.4778 131.411 68.76 131.411 67.676C131.411 66.6067 130.518 65.8889 129.316 65.9036C128.108 65.8889 127.214 66.6067 127.222 67.676ZM127.852 72.6858V71.5725H136.479V74.8831H129.243V76.1428H136.919V77.2561H127.896V73.843H135.103V72.6858H127.852ZM135.088 70.9719V64.2922H136.479V70.9719H135.088ZM143.086 66.387C143.079 68.1082 144.294 69.7122 146.25 70.3567L145.503 71.4553C144.067 70.95 142.991 69.9246 142.419 68.6282C141.848 70.1003 140.735 71.2576 139.204 71.8215L138.457 70.7083C140.508 69.9832 141.694 68.2327 141.709 66.2698V64.9807H143.086V66.387ZM140.229 74.9563C140.229 73.4182 141.907 72.5173 144.639 72.5247C147.334 72.5173 148.989 73.4182 148.989 74.9563C148.989 76.509 147.334 77.3953 144.639 77.3879C141.907 77.3953 140.229 76.509 140.229 74.9563ZM141.621 74.9563C141.614 75.8206 142.742 76.2893 144.639 76.304C146.521 76.2893 147.634 75.8206 147.627 74.9563C147.634 74.1213 146.521 73.6233 144.639 73.6233C142.742 73.6233 141.614 74.1213 141.621 74.9563ZM147.48 72.217V64.2922H148.872V67.5881H150.776V68.76H148.872V72.217H147.48ZM157.5 64.512C160.459 64.5046 162.18 65.303 162.188 66.7678C162.18 68.24 160.459 69.0383 157.5 69.0383C154.541 69.0383 152.805 68.24 152.812 66.7678C152.805 65.303 154.541 64.5046 157.5 64.512ZM151.523 70.9573V69.844H163.491V70.9573H151.523ZM152.959 73.0081V71.968H161.982V75.0442H154.336V76.2161H162.349V77.2854H152.974V74.0334H160.605V73.0081H152.959ZM154.263 66.7678C154.255 67.5808 155.413 67.9983 157.5 67.9983C159.602 67.9983 160.759 67.5808 160.752 66.7678C160.759 65.9915 159.602 65.5374 157.5 65.5374C155.413 65.5374 154.255 65.9915 154.263 66.7678ZM178.462 64.2922V67.6907H180.366V68.8772H178.462V72.2024H177.07V64.2922H178.462ZM168.164 66.7385V65.6252H171.387V64.1897H172.778V65.6252H175.986V66.7385H168.164ZM168.882 69.6536C168.875 68.2546 170.164 67.3098 172.075 67.3098C173.972 67.3098 175.254 68.2546 175.254 69.6536C175.254 71.0745 173.965 72.0046 172.075 72.012C170.164 72.0046 168.875 71.0745 168.882 69.6536ZM170.083 77.2561V72.8909H178.462V77.2561H170.083ZM170.229 69.6536C170.215 70.4666 170.962 70.95 172.075 70.9573C173.188 70.95 173.936 70.4666 173.95 69.6536C173.936 68.8699 173.188 68.3718 172.075 68.3792C170.962 68.3718 170.215 68.8699 170.229 69.6536ZM171.445 76.1282H177.085V73.9895H171.445V76.1282ZM184.365 65.845C184.351 68.782 183.984 71.8289 182.153 74.3997L181.069 73.7844C182.6 71.7336 183.062 69.4558 183.157 66.9875H181.377V65.845H184.365ZM184.014 74.5608C185.713 72.2756 186.028 69.5291 186.079 66.9875H184.761V65.845H187.28C187.28 66.9509 187.251 68.1521 187.112 69.3752H188.657V64.6292H189.976V76.7727H188.657V70.5032H186.951C186.658 72.1365 186.116 73.7551 185.098 75.1907L184.014 74.5608ZM191.133 77.4172V64.2922H192.466V77.4172H191.133ZM210 69.4485V70.5911H207.964V77.4026H206.572V64.2922H207.964V69.4485H210ZM198.237 74.1067V65.5667H199.614V72.9495C201.445 72.9421 203.357 72.7883 205.444 72.3635L205.605 73.5354C203.357 73.9822 201.292 74.114 199.321 74.1067H198.237ZM221.353 68.6135V69.7415H212.227V64.9368H213.618V68.6135H221.353ZM210.703 72.7004V71.5579H222.715V72.7004H217.339V77.4172H215.962V72.7004H210.703ZM234.287 65.552V66.8411C234.28 68.4597 234.28 70.2761 233.789 72.9641L232.383 72.8176C232.888 70.2761 232.888 68.4158 232.896 66.8411V66.6799H224.927V65.552H234.287ZM223.667 75.6448V74.4875H228.223V69.8586H229.6V74.4875H235.635V75.6448H223.667ZM251.177 64.3069V71.5872H249.785V64.3069H251.177ZM240.337 70.2395C242.388 69.5657 243.64 67.8665 243.647 66.05V64.7756H245.068V66.05C245.061 67.7859 246.321 69.3899 248.335 70.0051L247.661 71.1038C246.123 70.6057 244.966 69.573 244.365 68.2473C243.772 69.6755 242.6 70.8035 241.025 71.3381L240.337 70.2395ZM242.256 77.2561V76.1282H244.131V73.4182H242.373V72.3049H251.265V73.4182H249.536V76.1282H251.396V77.2561H242.256ZM245.508 76.1282H248.159V73.4182H245.508V76.1282ZM265.225 71.1477V72.261H253.257V71.1477H265.225ZM254.546 67.3538C254.539 65.7058 256.377 64.7244 259.233 64.7317C262.075 64.7244 263.914 65.7058 263.921 67.3538C263.914 69.009 262.075 70.0125 259.233 70.0198C256.377 70.0125 254.539 69.009 254.546 67.3538ZM254.766 77.1389V73.3303H256.172V76.011H263.877V77.1389H254.766ZM255.981 67.3538C255.974 68.3279 257.219 68.8772 259.233 68.8772C261.24 68.8772 262.493 68.3279 262.485 67.3538C262.493 66.4163 261.24 65.845 259.233 65.845C257.219 65.845 255.974 66.4163 255.981 67.3538ZM276.445 64.2922V69.5217H278.481V70.679H276.445V77.4026H275.054V64.2922H276.445ZM266.235 73.9016C269.524 72.261 271.311 69.8879 271.597 66.8264H266.895V65.6692H273.018C273.003 69.4631 271.333 72.8542 267.012 74.9856L266.235 73.9016ZM291.196 74.6194V75.7766H279.185V74.6194H282.056V71.1917C280.979 70.5984 280.32 69.6609 280.327 68.4817C280.32 66.4163 282.349 65.0613 285.161 65.054C287.981 65.0613 290.01 66.4163 290.01 68.4817C290.01 69.6389 289.38 70.5691 288.325 71.1624V74.6194H291.196ZM281.675 68.4817C281.675 69.8879 283.103 70.8035 285.161 70.8108C287.205 70.8035 288.655 69.8879 288.662 68.4817C288.655 67.0681 287.205 66.1672 285.161 66.1672C283.103 66.1672 281.675 67.0681 281.675 68.4817ZM283.433 74.6194H286.919V71.7043C286.384 71.8289 285.791 71.8948 285.161 71.8948C284.546 71.8948 283.96 71.8289 283.433 71.7043V74.6194ZM294.302 73.0227C294.324 71.1038 294.888 70.5178 295.854 69.9172C296.47 69.5437 296.938 69.0017 296.938 68.2327C296.938 67.3171 296.235 66.7385 295.356 66.7385C294.565 66.7385 293.796 67.2219 293.73 68.3059H292.148C292.207 66.4382 293.613 65.4202 295.356 65.4202C297.261 65.4202 298.535 66.5627 298.535 68.2327C298.535 69.4119 297.971 70.1956 297.041 70.7668C296.162 71.3015 295.818 71.8289 295.796 73.0227V73.1106H294.302V73.0227ZM294.067 75.2346C294.06 74.6633 294.536 74.1946 295.107 74.1946C295.671 74.1946 296.14 74.6633 296.147 75.2346C296.14 75.8059 295.671 76.2673 295.107 76.2747C294.536 76.2673 294.06 75.8059 294.067 75.2346Z" fill="white"/>
<path d="M521.87 94.7646H457C451.477 94.7646 447 99.2418 447 104.765V232.285H531.87V104.765C531.87 99.2418 527.392 94.7646 521.87 94.7646Z" fill="#FFE14F"/>
<path d="M489.427 144.364C494.402 144.364 498.434 140.342 498.434 135.38C498.434 130.418 494.402 126.396 489.427 126.396C484.453 126.396 480.42 130.418 480.42 135.38C480.42 140.342 484.453 144.364 489.427 144.364Z" fill="#231815"/>
<path d="M477.167 102.81H475.648C474.549 102.81 473.658 103.699 473.658 104.795V120.63C473.658 121.726 474.549 122.615 475.648 122.615H477.167C478.266 122.615 479.157 121.726 479.157 120.63V104.795C479.157 103.699 478.266 102.81 477.167 102.81Z" fill="#231815"/>
<path d="M503.207 102.81H501.688C500.589 102.81 499.698 103.699 499.698 104.795V120.63C499.698 121.726 500.589 122.615 501.688 122.615H503.207C504.306 122.615 505.197 121.726 505.197 120.63V104.795C505.197 103.699 504.306 102.81 503.207 102.81Z" fill="#231815"/>
</g>
<defs>
<filter id="filter0_d_1972_56021" x="0" y="0" width="630" height="244.529" filterUnits="userSpaceOnUse" color-interpolation-filters="sRGB">
<feFlood flood-opacity="0" result="BackgroundImageFix"/>
<feColorMatrix in="SourceAlpha" type="matrix" values="0 0 0 0 0 0 0 0 0 0 0 0 0 0 0 0 0 0 127 0" result="hardAlpha"/>
<feOffset dy="2"/>
<feGaussianBlur stdDeviation="5"/>
<feComposite in2="hardAlpha" operator="out"/>
<feColorMatrix type="matrix" values="0 0 0 0 0 0 0 0 0 0 0 0 0 0 0 0 0 0 0.25 0"/>
<feBlend mode="normal" in2="BackgroundImageFix" result="effect1_dropShadow_1972_56021"/>
<feBlend mode="normal" in="SourceGraphic" in2="effect1_dropShadow_1972_56021" result="shape"/>
</filter>
</defs>
</svg>
