<svg width="590" height="360" viewBox="0 0 590 360" fill="none" xmlns="http://www.w3.org/2000/svg">
<g clip-path="url(#clip0_1972_55560)">
<path d="M468.397 3.0083C501.522 3.0083 528.409 29.8259 528.409 62.8653V358.034H408.385V62.8653C408.385 29.8259 435.272 3.0083 468.397 3.0083Z" fill="#FFE14F"/>
<path d="M449.804 43.436H449.791C447.623 43.436 445.865 45.189 445.865 47.3514V67.8133C445.865 69.9757 447.623 71.7286 449.791 71.7286H449.804C451.972 71.7286 453.73 69.9757 453.73 67.8133V47.3514C453.73 45.189 451.972 43.436 449.804 43.436Z" fill="#231815"/>
<path d="M487.002 43.436H486.989C484.821 43.436 483.063 45.189 483.063 47.3514V67.8133C483.063 69.9757 484.821 71.7286 486.989 71.7286H487.002C489.17 71.7286 490.928 69.9757 490.928 67.8133V47.3514C490.928 45.189 489.17 43.436 487.002 43.436Z" fill="#231815"/>
<path d="M446.362 82.1475C446.362 94.4165 456.337 104.366 468.638 104.366C480.939 104.366 490.914 94.4165 490.914 82.1475H446.362Z" fill="#231815"/>
<path d="M332.55 126.024C356.614 126.024 376.121 106.568 376.121 82.5664C376.121 58.5652 356.614 39.1084 332.55 39.1084C308.487 39.1084 288.979 58.5652 288.979 82.5664C288.979 106.568 308.487 126.024 332.55 126.024Z" fill="#FFE14F"/>
<path d="M327.065 56.3254C329.337 52.6782 334.123 51.5652 337.78 53.8179C341.437 56.0706 342.552 60.8575 340.294 64.5047" stroke="#231815" stroke-width="2" stroke-miterlimit="10"/>
<path d="M345.349 67.6291C347.621 63.9819 352.407 62.8689 356.063 65.1216C359.72 67.3743 360.836 72.1612 358.577 75.8084" stroke="#231815" stroke-width="2" stroke-miterlimit="10"/>
<path d="M337.659 82.4724C341.253 82.4724 344.166 79.5668 344.166 75.9825C344.166 72.3983 341.253 69.4927 337.659 69.4927C334.065 69.4927 331.152 72.3983 331.152 75.9825C331.152 79.5668 334.065 82.4724 337.659 82.4724Z" fill="#231815"/>
<path d="M178.341 106.748C113.651 106.748 61.207 159.055 61.207 223.579V358.042H132.915V226.663C132.915 201.642 153.255 181.354 178.341 181.354C203.427 181.354 223.767 201.642 223.767 226.663V358.042H295.476V223.579C295.476 159.055 243.032 106.748 178.341 106.748Z" fill="#A52DB9"/>
<path d="M134.825 144.266C137.126 144.266 138.992 142.405 138.992 140.109C138.992 137.813 137.126 135.952 134.825 135.952C132.523 135.952 130.657 137.813 130.657 140.109C130.657 142.405 132.523 144.266 134.825 144.266Z" fill="#231815"/>
<path d="M118.074 157.379C120.375 157.379 122.241 155.518 122.241 153.223C122.241 150.927 120.375 149.066 118.074 149.066C115.772 149.066 113.906 150.927 113.906 153.223C113.906 155.518 115.772 157.379 118.074 157.379Z" fill="#231815"/>
<path d="M112.75 169.622C120.924 180.027 136.007 181.851 146.44 173.711C156.872 165.559 158.7 150.514 150.54 140.109L112.763 169.622H112.75Z" fill="#231815"/>
<path d="M199.677 358.042C199.677 358.042 202.433 331.949 233.824 297.354C233.824 297.354 253.102 276.959 255.885 271.301C255.885 271.301 269.826 249.056 288.203 252.14C288.203 252.14 310.398 263.47 329.717 263.363C329.717 263.363 348.78 260.547 359.252 254.231C359.252 254.231 376.46 245.998 390.509 265.079C390.509 265.079 425.758 304.139 440.627 327.631C440.627 327.631 451.57 351.593 453.331 358.042H199.677Z" fill="#07B159"/>
<path d="M299.2 293.948C299.2 288.075 303.973 283.302 309.874 283.302C315.776 283.302 320.549 288.062 320.549 293.948" stroke="#06071F" stroke-width="2" stroke-miterlimit="10"/>
<path d="M332.433 293.948C332.433 288.075 337.205 283.302 343.107 283.302C349.009 283.302 353.781 288.062 353.781 293.948" stroke="#06071F" stroke-width="2" stroke-miterlimit="10"/>
<path d="M336.99 305.064C336.99 305.064 324.945 310.696 315.373 304.447C315.373 304.447 307.038 296.684 299.604 302.463C299.604 302.463 289.83 310.843 299.604 318.661C299.604 318.661 306.003 326.492 326.518 328.208C326.518 328.208 345.715 330.89 355.704 314.745C357.223 312.305 358.029 309.436 357.572 306.593C357.156 304.072 355.865 302.865 351.926 301.162C351.926 301.162 346.831 297.529 336.99 305.078V305.064Z" fill="#231815"/>
<path d="M536.656 161C566.097 161 590 184.841 590 214.206V357.828H483.312V214.206C483.312 184.841 507.214 161 536.656 161Z" fill="#FF7F1E"/>
<path d="M550.22 201.978C552.522 201.978 554.388 200.116 554.388 197.821C554.388 195.525 552.522 193.664 550.22 193.664C547.919 193.664 546.053 195.525 546.053 197.821C546.053 200.116 547.919 201.978 550.22 201.978Z" fill="#231815"/>
<path d="M532.623 190.003C534.924 190.003 536.79 188.142 536.79 185.847C536.79 183.551 534.924 181.69 532.623 181.69C530.321 181.69 528.455 183.551 528.455 185.847C528.455 188.142 530.321 190.003 532.623 190.003Z" fill="#231815"/>
<path d="M515.348 185.726C507.873 196.641 510.669 211.525 521.612 218.993C532.555 226.449 547.478 223.66 554.966 212.745L515.361 185.726H515.348Z" fill="#231815"/>
<path d="M74.8696 220.521H10C4.47715 220.521 0 224.999 0 230.521V358.042H84.8696V230.521C84.8696 224.999 80.3924 220.521 74.8696 220.521Z" fill="#FFE14F"/>
<path d="M42.4271 270.121C47.4017 270.121 51.4344 266.098 51.4344 261.137C51.4344 256.175 47.4017 252.153 42.4271 252.153C37.4526 252.153 33.4199 256.175 33.4199 261.137C33.4199 266.098 37.4526 270.121 42.4271 270.121Z" fill="#231815"/>
<path d="M30.167 228.567H28.6479C27.549 228.567 26.6582 229.455 26.6582 230.551V246.387C26.6582 247.483 27.549 248.372 28.6479 248.372H30.167C31.2658 248.372 32.1566 247.483 32.1566 246.387V230.551C32.1566 229.455 31.2658 228.567 30.167 228.567Z" fill="#231815"/>
<path d="M56.207 228.567H54.6879C53.589 228.567 52.6982 229.455 52.6982 230.551V246.387C52.6982 247.483 53.589 248.372 54.6879 248.372H56.207C57.3059 248.372 58.1967 247.483 58.1967 246.387V230.551C58.1967 229.455 57.3059 228.567 56.207 228.567Z" fill="#231815"/>
</g>
<defs>
<clipPath id="clip0_1972_55560">
<rect width="590" height="360" fill="white"/>
</clipPath>
</defs>
</svg>
