<svg width="1130" height="317" viewBox="0 0 1130 317" fill="none" xmlns="http://www.w3.org/2000/svg">
<mask id="mask0_1972_56330" style="mask-type:alpha" maskUnits="userSpaceOnUse" x="0" y="0" width="1130" height="317">
<rect width="1130" height="317" rx="30" fill="#07B159"/>
</mask>
<g mask="url(#mask0_1972_56330)">
<rect width="1130" height="317" rx="30" fill="#07B159"/>
<circle cx="293.5" cy="317.5" r="293.5" fill="#47D88D"/>
<path d="M231.127 367.255C307.965 367.255 370.255 304.965 370.255 228.127C370.255 151.29 307.965 89 231.127 89C154.29 89 92 151.29 92 228.127C92 304.965 154.29 367.255 231.127 367.255Z" fill="#FFE14F"/>
<path d="M186.957 154.508C189.961 141.117 203.258 132.693 216.649 135.696C230.04 138.7 238.464 151.997 235.46 165.388" stroke="#231815" stroke-width="5" stroke-miterlimit="10"/>
<path d="M254.006 169.557C257.009 156.166 270.307 147.742 283.698 150.746C297.089 153.749 305.513 167.047 302.509 180.438" stroke="#231815" stroke-width="5" stroke-miterlimit="10"/>
<path d="M239.615 223.63C251.084 223.63 260.382 214.332 260.382 202.863C260.382 191.393 251.084 182.096 239.615 182.096C228.145 182.096 218.848 191.393 218.848 202.863C218.848 214.332 228.145 223.63 239.615 223.63Z" fill="#231815"/>
<path d="M380.924 385.785C436.797 385.785 482.092 340.49 482.092 284.617C482.092 228.743 436.797 183.449 380.924 183.449C325.05 183.449 279.756 228.743 279.756 284.617C279.756 340.49 325.05 385.785 380.924 385.785Z" fill="#2D81F8"/>
<path d="M353.922 218.027C353.469 216.177 351.603 215.044 349.755 215.496C347.907 215.949 346.776 217.816 347.229 219.666L351.502 237.117C351.955 238.968 353.821 240.101 355.669 239.648C357.518 239.196 358.649 237.329 358.195 235.478L353.922 218.027Z" fill="#231815"/>
<path d="M385.6 210.269C385.147 208.419 383.281 207.285 381.433 207.738C379.584 208.191 378.453 210.058 378.906 211.908L383.18 229.359C383.633 231.21 385.499 232.343 387.347 231.89C389.195 231.438 390.326 229.571 389.873 227.72L385.6 210.269Z" fill="#231815"/>
<path d="M354.924 249.255C357.489 259.736 368.065 266.15 378.546 263.584C389.027 261.019 395.441 250.443 392.876 239.962L354.924 249.255Z" fill="#231815"/>
<circle cx="663" cy="163" r="29" fill="#47D88D"/>
<path d="M668.864 167.864L667.677 169.038C666.802 169.897 665.667 171.001 664.271 172.35C663.399 173.194 662.015 173.194 661.143 172.35L657.652 168.954C657.213 168.523 656.846 168.16 656.55 167.864C653.15 164.464 653.15 158.951 656.55 155.55C659.951 152.15 665.464 152.15 668.864 155.55C672.265 158.951 672.265 164.464 668.864 167.864ZM665.208 161.982C665.208 160.601 664.088 159.482 662.707 159.482C661.327 159.482 660.207 160.601 660.207 161.982C660.207 163.363 661.327 164.482 662.707 164.482C664.088 164.482 665.208 163.363 665.208 161.982Z" fill="white"/>
<circle cx="866" cy="163" r="29" fill="#47D88D"/>
<path d="M875 159.5V168.75C875 170.545 873.545 172 871.75 172H860.25C858.455 172 857 170.545 857 168.75V159.5H875ZM861.25 166C860.56 166 860 166.56 860 167.25C860 167.94 860.56 168.5 861.25 168.5C861.94 168.5 862.5 167.94 862.5 167.25C862.5 166.56 861.94 166 861.25 166ZM866 166C865.31 166 864.75 166.56 864.75 167.25C864.75 167.94 865.31 168.5 866 168.5C866.69 168.5 867.25 167.94 867.25 167.25C867.25 166.56 866.69 166 866 166ZM861.25 161.5C860.56 161.5 860 162.06 860 162.75C860 163.44 860.56 164 861.25 164C861.94 164 862.5 163.44 862.5 162.75C862.5 162.06 861.94 161.5 861.25 161.5ZM866 161.5C865.31 161.5 864.75 162.06 864.75 162.75C864.75 163.44 865.31 164 866 164C866.69 164 867.25 163.44 867.25 162.75C867.25 162.06 866.69 161.5 866 161.5ZM870.75 161.5C870.06 161.5 869.5 162.06 869.5 162.75C869.5 163.44 870.06 164 870.75 164C871.44 164 872 163.44 872 162.75C872 162.06 871.44 161.5 870.75 161.5ZM871.75 154C873.545 154 875 155.455 875 157.25V158H857V157.25C857 155.455 858.455 154 860.25 154H871.75Z" fill="white"/>
<path d="M639.078 206.891C641.227 206.883 642.781 208.086 642.781 209.859C642.781 211.602 641.227 212.82 639.078 212.812C636.953 212.82 635.406 211.602 635.406 209.859C635.406 208.086 636.953 206.883 639.078 206.891ZM634.484 213.781C637.031 213.781 640.602 213.734 643.641 213.281L643.766 214.562C642.547 214.797 641.281 214.945 640.047 215.039V219.953H638.297V215.141C636.992 215.195 635.766 215.211 634.703 215.219L634.484 213.781ZM637.094 209.859C637.086 210.805 637.922 211.398 639.078 211.391C640.281 211.398 641.125 210.805 641.125 209.859C641.125 208.883 640.281 208.281 639.078 208.297C637.922 208.281 637.086 208.883 637.094 209.859ZM644.562 220.375V206.281H646.281V220.375H644.562ZM660.031 206.266V220.391H658.297V206.266H660.031ZM648.438 216.375C650.688 215.383 651.984 213.008 651.984 210.75V210.016H648.875V208.625H651.984V206.562H653.703V208.625H656.75V210.016H653.719V210.75C653.711 212.898 655.031 215.203 657.312 216.156L656.359 217.484C654.742 216.797 653.523 215.391 652.875 213.688C652.242 215.492 651.023 217 649.375 217.719L648.438 216.375ZM673.922 206.266V220.391H672.172V206.266H673.922ZM662.219 216.5C665.922 214.742 667.625 212.352 667.938 209.141H662.938V207.766H669.703C669.703 211.969 668.07 215.539 663.125 217.891L662.219 216.5ZM687.094 206.281V210.359H689.062V211.797H687.094V216.672H685.359V206.281H687.094ZM676.438 214.375V207.281H678.156V209.438H681.453V207.281H683.172V214.375H676.438ZM678.047 220.109V215.625H679.781V218.703H687.656V220.109H678.047ZM678.156 213H681.453V210.781H678.156V213ZM706.453 214.75V216.172H700.859V220.406H699.141V216.172H693.578V214.75H706.453ZM694.281 212.516C697.102 212.172 698.953 210.727 699.125 209.312H694.766V207.938H699.141V206.281H700.859V207.938H705.25V209.312H700.891C701.055 210.711 702.898 212.172 705.719 212.516L705.078 213.891C702.742 213.594 700.93 212.57 700.016 211.211C699.094 212.586 697.258 213.594 694.906 213.891L694.281 212.516ZM712.484 209.609C712.477 211.289 713.656 212.922 715.891 213.609L715.047 214.969C713.445 214.492 712.281 213.469 711.641 212.172C711.016 213.57 709.852 214.672 708.203 215.203L707.359 213.844C709.586 213.148 710.75 211.422 710.75 209.609V209.391H707.797V208.016H710.75V206.359H712.5V208.016H715.438V209.391H712.484V209.609ZM709.969 220.109V215.859H711.703V218.703H719.594V220.109H709.969ZM714.969 211.875V210.484H717.5V206.281H719.234V216.766H717.5V211.875H714.969Z" fill="white"/>
<path d="M644.637 238.926V248.209H643.338V247.033H640.877V246.117H643.338V238.926H644.637ZM634.396 244.518C636.659 244.497 639.715 244.477 642.326 244.148L642.408 245.078C641.362 245.256 640.262 245.365 639.182 245.44V247.826H637.883V245.509C636.693 245.557 635.552 245.557 634.561 245.557L634.396 244.518ZM635.354 241.551C635.347 240.252 636.584 239.391 638.402 239.391C640.193 239.391 641.438 240.252 641.438 241.551C641.438 242.856 640.193 243.684 638.402 243.684C636.591 243.684 635.347 242.856 635.354 241.551ZM636.092 250.902V247.307H637.377V249.85H644.938V250.902H636.092ZM636.584 241.551C636.577 242.275 637.315 242.727 638.402 242.727C639.448 242.727 640.2 242.275 640.207 241.551C640.2 240.819 639.448 240.348 638.402 240.361C637.315 240.348 636.577 240.819 636.584 241.551ZM656.094 238.912V243.875H658.062V244.955H656.094V251.162H654.809V238.912H656.094ZM646.482 241.893V240.826H649.504V239.076H650.803V240.826H653.742V241.893H646.482ZM647.111 245.639C647.111 243.971 648.396 242.795 650.16 242.795C651.917 242.795 653.202 243.971 653.209 245.639C653.202 247.32 651.917 248.489 650.16 248.496C648.396 248.489 647.111 247.32 647.111 245.639ZM648.355 245.639C648.349 246.705 649.114 247.416 650.16 247.402C651.199 247.416 651.958 246.705 651.965 245.639C651.958 244.593 651.199 243.868 650.16 243.861C649.114 243.868 648.349 244.593 648.355 245.639ZM668.562 242.494V243.533H660.127V239.35H661.412V242.494H668.562ZM658.637 246.117V245.078H669.848V246.117H658.637ZM660.031 250.875V247.279H661.33V249.809H668.645V250.875H660.031ZM678.68 242.521C678.673 244.572 680.02 246.691 681.906 247.498L681.195 248.51C679.753 247.874 678.604 246.521 678.037 244.887C677.47 246.637 676.321 248.127 674.893 248.824L674.141 247.799C675.986 246.931 677.354 244.634 677.367 242.521V241.223H674.564V240.143H681.469V241.223H678.68V242.521ZM683.014 251.162V238.912H684.312V251.162H683.014ZM696.48 246.773V251.162H695.182V247.799H688.182V246.773H696.48ZM686.445 242.549C686.438 240.819 687.812 239.589 689.658 239.596C690.697 239.589 691.593 239.992 692.16 240.662H695.182V238.912H696.48V246.131H695.182V244.449H692.16C691.586 245.119 690.697 245.522 689.658 245.516C687.812 245.522 686.438 244.292 686.445 242.549ZM687.689 242.549C687.683 243.67 688.51 244.415 689.658 244.422C690.759 244.415 691.6 243.67 691.6 242.549C691.6 241.455 690.759 240.696 689.658 240.689C688.51 240.696 687.683 241.455 687.689 242.549ZM692.728 243.383H695.182V241.729H692.734C692.803 241.988 692.844 242.262 692.844 242.549C692.844 242.843 692.803 243.123 692.728 243.383ZM703.945 239.117C706.707 239.11 708.313 239.855 708.32 241.223C708.313 242.597 706.707 243.342 703.945 243.342C701.184 243.342 699.563 242.597 699.57 241.223C699.563 239.855 701.184 239.11 703.945 239.117ZM698.367 245.133V244.094H709.537V245.133H698.367ZM699.707 247.047V246.076H708.129V248.947H700.992V250.041H708.471V251.039H699.721V248.004H706.844V247.047H699.707ZM700.924 241.223C700.917 241.981 701.997 242.371 703.945 242.371C705.907 242.371 706.987 241.981 706.98 241.223C706.987 240.498 705.907 240.074 703.945 240.074C701.997 240.074 700.917 240.498 700.924 241.223ZM724.098 238.912V245.215H722.799V242.07H720.215V241.018H722.799V238.912H724.098ZM713.844 244.23C715.758 243.622 716.899 242.098 716.906 240.375V239.309H718.191V240.375C718.191 241.934 719.312 243.383 721.158 243.971L720.475 244.982C719.128 244.518 718.109 243.595 717.569 242.426C717.036 243.745 715.99 244.771 714.541 245.27L713.844 244.23ZM716.086 246.814V245.789H724.098V248.838H717.385V249.973H724.521V251.012H716.113V247.854H722.812V246.814H716.086ZM736.197 238.912V246.199H734.898V243.096H732.615V242.029H734.898V238.912H736.197ZM725.984 245.092C727.885 244.429 729.054 242.774 729.047 241.086V240.812H726.395V239.76H732.998V240.812H730.373V241.072C730.366 242.624 731.474 244.135 733.326 244.764L732.656 245.789C731.282 245.317 730.271 244.333 729.737 243.123C729.204 244.49 728.131 245.591 726.668 246.131L725.984 245.092ZM727.953 248.852C727.946 247.396 729.519 246.548 732.096 246.541C734.659 246.548 736.231 247.396 736.238 248.852C736.231 250.308 734.659 251.155 732.096 251.162C729.519 251.155 727.946 250.308 727.953 248.852ZM729.238 248.852C729.231 249.679 730.298 250.15 732.096 250.137C733.88 250.15 734.946 249.679 734.953 248.852C734.946 248.018 733.88 247.546 732.096 247.553C730.298 247.546 729.231 248.018 729.238 248.852ZM744.141 240.936V241.988H738.057V240.936H740.463V239.268H741.748V240.936H744.141ZM738.453 245.543C738.446 243.896 739.567 242.727 741.105 242.727C742.657 242.727 743.765 243.896 743.771 245.543C743.765 247.218 742.657 248.394 741.105 248.387C739.567 248.394 738.446 247.218 738.453 245.543ZM739.602 245.543C739.595 246.582 740.224 247.279 741.105 247.279C741.987 247.279 742.623 246.582 742.623 245.543C742.623 244.524 741.987 243.813 741.105 243.807C740.224 243.813 739.595 244.524 739.602 245.543ZM744.701 250.588V239.186H745.932V244.012H747.34V238.912H748.57V251.162H747.34V245.078H745.932V250.588H744.701ZM754.6 242.029C754.6 244.271 755.857 246.507 757.73 247.348L756.938 248.387C755.55 247.689 754.497 246.309 753.957 244.634C753.417 246.397 752.351 247.888 750.936 248.619L750.115 247.566C752.016 246.657 753.28 244.299 753.287 242.029V239.938H754.6V242.029ZM756.377 244.039V242.986H759.111V238.912H760.396V251.189H759.111V244.039H756.377ZM644.664 258.912V266.199H643.365V263.096H641.082V262.029H643.365V258.912H644.664ZM634.451 265.092C636.352 264.429 637.521 262.774 637.514 261.086V260.812H634.861V259.76H641.465V260.812H638.84V261.072C638.833 262.624 639.94 264.135 641.793 264.764L641.123 265.789C639.749 265.317 638.737 264.333 638.204 263.123C637.671 264.49 636.598 265.591 635.135 266.131L634.451 265.092ZM636.42 268.852C636.413 267.396 637.985 266.548 640.562 266.541C643.126 266.548 644.698 267.396 644.705 268.852C644.698 270.308 643.126 271.155 640.562 271.162C637.985 271.155 636.413 270.308 636.42 268.852ZM637.705 268.852C637.698 269.679 638.765 270.15 640.562 270.137C642.347 270.15 643.413 269.679 643.42 268.852C643.413 268.018 642.347 267.546 640.562 267.553C638.765 267.546 637.698 268.018 637.705 268.852ZM657.762 268.564V269.645H646.551V268.564H651.486V266.049H647.836V259.746H649.135V261.852H655.15V259.746H656.436V266.049H652.771V268.564H657.762ZM649.135 264.996H655.15V262.904H649.135V264.996ZM669.848 264.531V265.529H658.637V264.531H669.848ZM659.963 267.32V266.391H668.467V269.084H661.275V270.096H668.85V271.012H659.977V268.223H667.182V267.32H659.963ZM660.045 260.143V259.227H668.439V261.879H661.357V262.809H668.645V263.725H660.072V261.018H667.141V260.143H660.045ZM683.793 258.912V261.811H685.57V262.891H683.793V266.062H682.494V258.912H683.793ZM674.646 265.352V259.609H675.918V261.387H679.131V259.609H680.416V265.352H674.646ZM675.918 264.326H679.131V262.412H675.918V264.326ZM675.986 270.984V266.705H683.889V267.744H677.285V269.959H684.107V270.984H675.986ZM689.549 259.828C691.381 259.835 692.687 261.503 692.693 264.121C692.687 266.767 691.381 268.435 689.549 268.428C687.717 268.435 686.411 266.767 686.418 264.121C686.411 261.503 687.717 259.835 689.549 259.828ZM687.662 264.121C687.655 266.069 688.435 267.266 689.549 267.266C690.684 267.266 691.449 266.069 691.449 264.121C691.449 262.2 690.684 260.997 689.549 260.99C688.435 260.997 687.655 262.2 687.662 264.121ZM694.512 271.162V258.912H695.811V263.711H697.779V264.805H695.811V271.162H694.512ZM709.578 268.564V269.645H698.367V268.564H703.303V266.049H699.652V259.746H700.951V261.852H706.967V259.746H708.252V266.049H704.588V268.564H709.578ZM700.951 264.996H706.967V262.904H700.951V264.996ZM714.199 262.262C714.199 264.217 715.02 266.302 716.66 267.307L715.936 268.305C714.787 267.614 714.015 266.391 713.591 264.976C713.146 266.527 712.299 267.854 711.109 268.578L710.303 267.607C712.032 266.568 712.948 264.401 712.941 262.316V260.033H714.199V262.262ZM715.334 264.299V263.219H717.234V259.145H718.465V270.561H717.234V264.299H715.334ZM719.764 271.162V258.912H721.008V271.162H719.764ZM733.777 268.551V269.631H722.566V268.551H725.246V265.352C724.241 264.798 723.626 263.923 723.633 262.822C723.626 260.895 725.52 259.63 728.145 259.623C730.776 259.63 732.67 260.895 732.67 262.822C732.67 263.902 732.082 264.771 731.098 265.324V268.551H733.777ZM724.891 262.822C724.891 264.135 726.224 264.989 728.145 264.996C730.052 264.989 731.405 264.135 731.412 262.822C731.405 261.503 730.052 260.662 728.145 260.662C726.224 260.662 724.891 261.503 724.891 262.822ZM726.531 268.551H729.785V265.83C729.286 265.946 728.732 266.008 728.145 266.008C727.57 266.008 727.023 265.946 726.531 265.83V268.551ZM736.061 270.096C735.527 270.089 735.083 269.658 735.09 269.125C735.083 268.592 735.527 268.154 736.061 268.154C736.587 268.154 737.024 268.592 737.031 269.125C737.024 269.658 736.587 270.089 736.061 270.096Z" fill="white"/>
<path d="M847.637 238.926V248.209H846.338V247.033H843.877V246.117H846.338V238.926H847.637ZM837.396 244.518C839.659 244.497 842.715 244.477 845.326 244.148L845.408 245.078C844.362 245.256 843.262 245.365 842.182 245.44V247.826H840.883V245.509C839.693 245.557 838.552 245.557 837.561 245.557L837.396 244.518ZM838.354 241.551C838.347 240.252 839.584 239.391 841.402 239.391C843.193 239.391 844.438 240.252 844.438 241.551C844.438 242.856 843.193 243.684 841.402 243.684C839.591 243.684 838.347 242.856 838.354 241.551ZM839.092 250.902V247.307H840.377V249.85H847.938V250.902H839.092ZM839.584 241.551C839.577 242.275 840.315 242.727 841.402 242.727C842.448 242.727 843.2 242.275 843.207 241.551C843.2 240.819 842.448 240.348 841.402 240.361C840.315 240.348 839.577 240.819 839.584 241.551ZM859.094 238.912V243.875H861.062V244.955H859.094V251.162H857.809V238.912H859.094ZM849.482 241.893V240.826H852.504V239.076H853.803V240.826H856.742V241.893H849.482ZM850.111 245.639C850.111 243.971 851.396 242.795 853.16 242.795C854.917 242.795 856.202 243.971 856.209 245.639C856.202 247.32 854.917 248.489 853.16 248.496C851.396 248.489 850.111 247.32 850.111 245.639ZM851.355 245.639C851.349 246.705 852.114 247.416 853.16 247.402C854.199 247.416 854.958 246.705 854.965 245.639C854.958 244.593 854.199 243.868 853.16 243.861C852.114 243.868 851.349 244.593 851.355 245.639ZM871.562 242.494V243.533H863.127V239.35H864.412V242.494H871.562ZM861.637 246.117V245.078H872.848V246.117H861.637ZM863.031 250.875V247.279H864.33V249.809H871.645V250.875H863.031ZM880.641 239.322C882.486 239.336 883.847 240.464 883.854 242.07C883.847 243.684 882.486 244.805 880.641 244.805C878.774 244.805 877.421 243.684 877.414 242.07C877.421 240.464 878.774 239.336 880.641 239.322ZM878.686 242.07C878.679 243.082 879.513 243.752 880.641 243.752C881.762 243.752 882.596 243.082 882.596 242.07C882.596 241.072 881.762 240.402 880.641 240.416C879.513 240.402 878.679 241.072 878.686 242.07ZM879.273 246.746V245.707H887.326V248.797H880.572V249.973H887.736V251.012H879.314V247.826H886.041V246.746H879.273ZM886.027 245.146V238.912H887.326V245.146H886.027ZM899.48 238.912V246.199H898.182V243.096H895.898V242.029H898.182V238.912H899.48ZM889.268 245.092C891.168 244.429 892.337 242.774 892.33 241.086V240.812H889.678V239.76H896.281V240.812H893.656V241.072C893.649 242.624 894.757 244.135 896.609 244.764L895.939 245.789C894.565 245.317 893.554 244.333 893.021 243.123C892.487 244.49 891.414 245.591 889.951 246.131L889.268 245.092ZM891.236 248.852C891.229 247.396 892.802 246.548 895.379 246.541C897.942 246.548 899.515 247.396 899.521 248.852C899.515 250.308 897.942 251.155 895.379 251.162C892.802 251.155 891.229 250.308 891.236 248.852ZM892.521 248.852C892.515 249.679 893.581 250.15 895.379 250.137C897.163 250.15 898.229 249.679 898.236 248.852C898.229 248.018 897.163 247.546 895.379 247.553C893.581 247.546 892.515 248.018 892.521 248.852ZM911.908 238.912V251.162H910.664V238.912H911.908ZM901.504 244.203C901.504 241.551 902.543 239.89 904.143 239.896C905.633 239.89 906.638 241.305 906.788 243.602H908.176V239.145H909.42V250.561H908.176V244.654H906.795C906.679 247.047 905.66 248.53 904.143 248.523C902.543 248.53 901.504 246.862 901.504 244.203ZM902.707 244.203C902.707 246.151 903.261 247.3 904.143 247.293C905.045 247.3 905.605 246.151 905.605 244.203C905.605 242.248 905.045 241.106 904.143 241.113C903.261 241.106 902.707 242.248 902.707 244.203ZM927.043 238.926V247.895H925.744V238.926H927.043ZM916.953 245.133C918.874 244.422 920.009 242.658 920.016 240.812V239.596H921.342V240.812C921.335 242.604 922.47 244.244 924.363 244.9L923.693 245.939C922.278 245.413 921.232 244.374 920.686 243.048C920.146 244.47 919.086 245.604 917.65 246.158L916.953 245.133ZM919.031 250.902V247.047H920.344V249.85H927.412V250.902H919.031ZM933.277 241.523C933.277 242.966 934.46 244.312 936.326 244.832L935.711 245.844C934.289 245.44 933.223 244.565 932.662 243.431C932.129 244.695 931.062 245.7 929.6 246.158L928.984 245.16C930.844 244.565 931.992 243.103 931.992 241.523V241.373H929.326V240.334H931.992V238.857H933.291V240.334H935.943V241.373H933.277V241.523ZM930.953 248.865C930.946 247.43 932.525 246.616 935.096 246.609C937.659 246.616 939.231 247.43 939.238 248.865C939.231 250.308 937.659 251.142 935.096 251.135C932.525 251.142 930.946 250.308 930.953 248.865ZM932.238 248.865C932.231 249.658 933.298 250.13 935.096 250.137C936.894 250.13 937.946 249.658 937.953 248.865C937.946 248.072 936.894 247.621 935.096 247.621C933.298 247.621 932.231 248.072 932.238 248.865ZM935.561 243.41V242.344H937.898V238.912H939.197V246.336H937.898V243.41H935.561ZM950.627 238.912V243.875H952.596V244.955H950.627V251.162H949.342V238.912H950.627ZM941.016 241.893V240.826H944.037V239.076H945.336V240.826H948.275V241.893H941.016ZM941.645 245.639C941.645 243.971 942.93 242.795 944.693 242.795C946.45 242.795 947.735 243.971 947.742 245.639C947.735 247.32 946.45 248.489 944.693 248.496C942.93 248.489 941.645 247.32 941.645 245.639ZM942.889 245.639C942.882 246.705 943.647 247.416 944.693 247.402C945.732 247.416 946.491 246.705 946.498 245.639C946.491 244.593 945.732 243.868 944.693 243.861C943.647 243.868 942.882 244.593 942.889 245.639ZM956.506 239.828C957.627 239.835 958.543 240.471 959.083 241.578H962.111V238.912H963.396V251.189H962.111V246.486H959.172C958.646 247.717 957.688 248.435 956.506 248.428C954.681 248.435 953.389 246.767 953.402 244.121C953.389 241.503 954.681 239.835 956.506 239.828ZM954.633 244.121C954.64 246.069 955.398 247.266 956.506 247.266C957.613 247.266 958.372 246.069 958.379 244.121C958.372 242.2 957.613 240.997 956.506 240.99C955.398 240.997 954.64 242.2 954.633 244.121ZM959.452 242.645C959.548 243.096 959.609 243.588 959.609 244.121C959.609 244.586 959.568 245.017 959.486 245.42H962.111V242.645H959.452ZM848.648 266.117V267.143H843.645V271.162H842.373V267.143H837.438V266.117H848.648ZM838.832 264.723V259.404H840.117V261.004H845.941V259.404H847.24V264.723H838.832ZM840.117 263.684H845.941V262.043H840.117V263.684ZM859.176 258.912V261.824H860.953V262.904H859.176V265.83H857.877V258.912H859.176ZM850.098 265.201V259.719H855.539V260.771H851.383V264.148C853.769 264.148 855.108 264.053 856.646 263.752L856.797 264.791C855.143 265.14 853.693 265.201 851.068 265.201H850.098ZM851.355 270.998V266.432H859.176V270.998H851.355ZM852.627 269.959H857.891V267.471H852.627V269.959ZM864.262 266.09V267.512H866.176V266.09H867.379V271.012H863.045V266.09H864.262ZM861.828 262.262C861.821 260.587 863.168 259.432 865.041 259.432C866.654 259.432 867.905 260.341 868.172 261.715H870.564V258.912H871.863V265.406H870.564V262.781H868.179C867.926 264.183 866.668 265.112 865.041 265.105C863.168 265.112 861.821 263.95 861.828 262.262ZM863.072 262.262C863.065 263.321 863.886 264.046 865.041 264.053C866.176 264.046 866.982 263.321 866.982 262.262C866.982 261.216 866.176 260.505 865.041 260.512C863.886 260.505 863.065 261.216 863.072 262.262ZM864.262 270H866.176V268.496H864.262V270ZM867.447 270.123C868.924 269.515 869.648 268.229 869.648 267.006V266.008H870.934V267.006C870.927 268.291 871.651 269.59 873.162 270.123L872.492 271.107C871.385 270.684 870.667 269.884 870.277 268.913C869.874 269.856 869.156 270.67 868.104 271.107L867.447 270.123ZM883.895 258.912V271.189H882.596V258.912H883.895ZM874.174 264.121C874.174 261.503 875.493 259.835 877.346 259.828C879.164 259.835 880.504 261.503 880.504 264.121C880.504 266.767 879.164 268.435 877.346 268.428C875.493 268.435 874.174 266.767 874.174 264.121ZM875.432 264.121C875.425 266.069 876.204 267.266 877.346 267.266C878.467 267.266 879.246 266.069 879.246 264.121C879.246 262.2 878.467 260.997 877.346 260.99C876.204 260.997 875.425 262.2 875.432 264.121ZM893.561 261.441C893.561 262.856 894.668 264.169 896.541 264.709L895.939 265.721C894.524 265.311 893.479 264.442 892.932 263.328C892.392 264.552 891.325 265.502 889.869 265.953L889.24 264.941C891.113 264.388 892.275 262.993 892.275 261.441V261.318H889.609V260.279H892.275V258.857H893.574V260.279H896.227V261.318H893.561V261.441ZM891.072 271.012V266.691H898.893V271.012H891.072ZM892.344 269.959H897.607V267.717H892.344V269.959ZM897.594 266.145V258.912H898.893V261.947H900.67V263.027H898.893V266.145H897.594ZM910.91 258.912V263.793H912.811V264.873H910.91V271.148H909.611V258.912H910.91ZM901.381 267.881C904.45 266.35 906.118 264.135 906.385 261.277H901.996V260.197H907.711C907.697 263.738 906.139 266.903 902.105 268.893L901.381 267.881ZM919.523 260.936V261.988H913.439V260.936H915.846V259.268H917.131V260.936H919.523ZM913.836 265.543C913.829 263.896 914.95 262.727 916.488 262.727C918.04 262.727 919.147 263.896 919.154 265.543C919.147 267.218 918.04 268.394 916.488 268.387C914.95 268.394 913.829 267.218 913.836 265.543ZM914.984 265.543C914.978 266.582 915.606 267.279 916.488 267.279C917.37 267.279 918.006 266.582 918.006 265.543C918.006 264.524 917.37 263.813 916.488 263.807C915.606 263.813 914.978 264.524 914.984 265.543ZM920.084 270.588V259.186H921.314V264.012H922.723V258.912H923.953V271.162H922.723V265.078H921.314V270.588H920.084ZM936.777 268.551V269.631H925.566V268.551H928.246V265.352C927.241 264.798 926.626 263.923 926.633 262.822C926.626 260.895 928.52 259.63 931.145 259.623C933.776 259.63 935.67 260.895 935.67 262.822C935.67 263.902 935.082 264.771 934.098 265.324V268.551H936.777ZM927.891 262.822C927.891 264.135 929.224 264.989 931.145 264.996C933.052 264.989 934.405 264.135 934.412 262.822C934.405 261.503 933.052 260.662 931.145 260.662C929.224 260.662 927.891 261.503 927.891 262.822ZM929.531 268.551H932.785V265.83C932.286 265.946 931.732 266.008 931.145 266.008C930.57 266.008 930.023 265.946 929.531 265.83V268.551ZM939.061 270.096C938.527 270.089 938.083 269.658 938.09 269.125C938.083 268.592 938.527 268.154 939.061 268.154C939.587 268.154 940.024 268.592 940.031 269.125C940.024 269.658 939.587 270.089 939.061 270.096Z" fill="white"/>
<path d="M850.359 214.484V215.859H844.734V220.391H843.016V215.859H837.453V214.484H850.359ZM839.016 213.016V206.828H840.734V208.562H847.047V206.828H848.797V213.016H839.016ZM840.734 211.609H847.047V209.938H840.734V211.609ZM862.438 206.266V209.547H864.406V210.984H862.438V214.219H860.703V206.266H862.438ZM851.891 213.594V207.172H858.172V208.578H853.609V212.188C856.266 212.18 857.742 212.086 859.422 211.75L859.609 213.125C857.758 213.531 856.117 213.594 853.031 213.594H851.891ZM853.312 220.203V214.859H862.438V220.203H853.312ZM855.031 218.828H860.719V216.25H855.031V218.828ZM868.328 214.531V216.047H870.188V214.531H871.797V219.016C873.461 218.312 874.219 216.898 874.219 215.547V214.422H875.953V215.547C875.945 217.008 876.711 218.438 878.453 219.031L877.562 220.328C876.312 219.875 875.516 219.023 875.07 217.953C874.602 218.992 873.797 219.859 872.625 220.328L871.797 219.102V220.219H866.703V214.531H868.328ZM865.312 210.125C865.312 208.195 866.883 206.836 869.047 206.844C870.867 206.836 872.305 207.859 872.664 209.391H875.219V206.266H876.953V213.75H875.219V210.828H872.672C872.328 212.398 870.883 213.438 869.047 213.438C866.883 213.438 865.312 212.086 865.312 210.125ZM866.969 210.125C866.969 211.266 867.828 212.016 869.047 212.016C870.234 212.016 871.086 211.266 871.094 210.125C871.086 209.008 870.234 208.273 869.047 208.281C867.828 208.273 866.969 209.008 866.969 210.125ZM868.328 218.891H870.188V217.344H868.328V218.891ZM890.391 210.266V211.641H880.609V206.781H882.328V210.266H890.391ZM878.938 214.656V213.281H891.844V214.656H878.938ZM880.484 220.062V215.906H882.219V218.656H890.484V220.062H880.484ZM901.656 209.172C901.648 210.711 902.797 212.195 905.016 212.812L904.219 214.156C902.594 213.711 901.445 212.766 900.805 211.555C900.188 212.891 899.008 213.922 897.328 214.406L896.5 213.062C898.727 212.438 899.922 210.859 899.922 209.172V209.141H896.969V207.766H899.922V206.203H901.672V207.766H904.609V209.141H901.656V209.172ZM898.594 220.219V215.172H907.719V220.219H898.594ZM900.312 218.812H906V216.547H900.312V218.812ZM905.984 214.578V206.266H907.719V209.672H909.688V211.109H907.719V214.578H905.984ZM921.469 206.266V211.781H923.562V213.234H921.469V220.359H919.734V206.266H921.469ZM910.328 216.5C913.766 214.781 915.625 212.391 915.969 209.172H911.094V207.734H917.734C917.727 211.883 916.008 215.531 911.312 217.844L910.328 216.5ZM936 206.281V216.594H934.25V206.281H936ZM924.25 213.266C926.539 212.461 927.711 210.469 927.703 208.438V207.062H929.5V208.438C929.492 210.406 930.648 212.266 932.891 213.016L932 214.391C930.391 213.828 929.242 212.703 928.617 211.258C927.992 212.805 926.82 214.039 925.156 214.641L924.25 213.266ZM926.656 220.109V215.609H928.406V218.703H936.391V220.109H926.656ZM943.141 209.281C943.133 210.828 944.344 212.352 946.562 212.953L945.75 214.297C944.125 213.852 942.953 212.906 942.305 211.68C941.688 213.062 940.516 214.156 938.828 214.656L938.016 213.312C940.227 212.641 941.406 210.984 941.406 209.281V209.203H938.453V207.828H941.406V206.203H943.156V207.828H946.094V209.203H943.141V209.281ZM940.312 217.719C940.297 216.039 942.141 215.094 945.109 215.094C948.094 215.094 949.93 216.039 949.938 217.719C949.93 219.398 948.094 220.375 945.109 220.375C942.141 220.375 940.297 219.398 940.312 217.719ZM942.031 217.719C942.023 218.555 943.148 219.031 945.109 219.031C947.109 219.031 948.203 218.555 948.203 217.719C948.203 216.875 947.109 216.43 945.109 216.422C943.148 216.43 942.023 216.875 942.031 217.719ZM945.672 211.547V210.141H948.156V206.266H949.891V214.812H948.156V211.547H945.672Z" fill="white"/>
</g>
</svg>
