<svg width="820" height="241" viewBox="0 0 820 241" fill="none" xmlns="http://www.w3.org/2000/svg">
<g filter="url(#filter0_d_1972_56317)">
<rect x="10" y="8" width="800" height="221" rx="30" fill="#07B159"/>
</g>
<path d="M152.8 93.11V100.43H164.71V93.11H152.8ZM160.75 109.16H171.31V112.37H146.29V109.16H156.79V103.55H148.93V89.99H168.58V103.55H160.75V109.16ZM192.818 87.92H196.778V115.64H192.818V87.92ZM181.928 89.87C186.098 89.87 189.188 93.65 189.188 99.71C189.188 105.8 186.098 109.61 181.928 109.61C177.758 109.61 174.668 105.8 174.668 99.71C174.668 93.65 177.758 89.87 181.928 89.87ZM181.928 93.44C179.888 93.44 178.478 95.63 178.478 99.71C178.478 103.82 179.888 106.01 181.928 106.01C183.968 106.01 185.378 103.82 185.378 99.71C185.378 95.63 183.968 93.44 181.928 93.44ZM211.625 93.86V95.39C211.625 99.59 213.815 104.48 218.345 106.58L216.155 109.7C213.095 108.29 210.935 105.53 209.705 102.26C208.475 105.86 206.255 108.89 203.105 110.39L200.885 107.24C205.415 105.14 207.665 99.95 207.665 95.39V93.86H201.935V90.59H217.115V93.86H211.625ZM227.135 98.48V101.75H223.115V115.58H219.155V87.95H223.115V98.48H227.135ZM237.963 89.78C242.283 89.78 245.583 92.63 245.583 96.59C245.583 100.58 242.283 103.4 237.963 103.4C233.643 103.4 230.373 100.58 230.373 96.59C230.373 92.63 233.643 89.78 237.963 89.78ZM237.963 93.17C235.833 93.17 234.213 94.43 234.213 96.59C234.213 98.75 235.833 100.01 237.963 100.01C240.093 100.01 241.713 98.75 241.713 96.59C241.713 94.43 240.093 93.17 237.963 93.17ZM248.163 87.92H252.123V115.64H248.163V87.92ZM229.713 110.03L229.203 106.82C234.063 106.82 240.843 106.79 246.663 105.92L246.903 108.77C240.963 109.97 234.483 110.03 229.713 110.03ZM285.344 87.95V101.78H281.354V87.95H285.344ZM266.624 95.06C266.624 97.04 268.154 98.18 270.194 98.18C272.234 98.18 273.704 97.04 273.704 95.06C273.704 93.11 272.234 91.94 270.194 91.94C268.154 91.94 266.624 93.11 266.624 95.06ZM277.544 95.06C277.544 98.75 274.394 101.39 270.194 101.39C265.964 101.39 262.784 98.75 262.784 95.06C262.784 91.4 265.964 88.76 270.194 88.76C274.394 88.76 277.544 91.4 277.544 95.06ZM270.884 112.19H286.034V115.25H266.954V107.63H281.414V105.95H266.924V102.92H285.344V110.45H270.884V112.19ZM312.941 87.95V101.78H308.951V87.95H312.941ZM294.221 95.06C294.221 97.04 295.751 98.18 297.791 98.18C299.831 98.18 301.301 97.04 301.301 95.06C301.301 93.11 299.831 91.94 297.791 91.94C295.751 91.94 294.221 93.11 294.221 95.06ZM305.141 95.06C305.141 98.75 301.991 101.39 297.791 101.39C293.561 101.39 290.381 98.75 290.381 95.06C290.381 91.4 293.561 88.76 297.791 88.76C301.991 88.76 305.141 91.4 305.141 95.06ZM298.481 112.19H313.631V115.25H294.551V107.63H309.011V105.95H294.521V102.92H312.941V110.45H298.481V112.19ZM324.099 93.11V100.43H336.009V93.11H324.099ZM332.049 109.16H342.609V112.37H317.589V109.16H328.089V103.55H320.229V89.99H339.879V103.55H332.049V109.16ZM364.146 87.95H368.136V103.61H364.146V87.95ZM349.746 104.84H368.136V115.25H349.746V104.84ZM364.266 107.93H353.646V112.16H364.266V107.93ZM353.106 89.21C357.396 89.21 360.606 91.97 360.606 95.87C360.606 99.74 357.396 102.5 353.106 102.5C348.816 102.5 345.576 99.74 345.576 95.87C345.576 91.97 348.816 89.21 353.106 89.21ZM353.106 92.51C351.006 92.51 349.446 93.77 349.446 95.87C349.446 97.94 351.006 99.2 353.106 99.2C355.176 99.2 356.736 97.94 356.736 95.87C356.736 93.77 355.176 92.51 353.106 92.51ZM154.27 141.7C156.13 141.7 157.48 140.44 157.48 138.31C157.48 136.24 156.13 134.95 154.27 134.95C152.41 134.95 151.03 136.24 151.03 138.34C151.03 140.44 152.41 141.7 154.27 141.7ZM154.27 131.74C158.26 131.74 161.23 134.47 161.23 138.31C161.23 142.21 158.26 144.94 154.27 144.94C150.25 144.94 147.25 142.21 147.25 138.31C147.25 134.47 150.25 131.74 154.27 131.74ZM156.22 123.43V127.03H162.22V130.18H146.14V127.03H152.26V123.43H156.22ZM171.94 133.75V137.02H167.98V150.58H164.02V122.95H167.98V133.75H171.94ZM192.008 129.1V126.94H176.768V123.82H196.028V132.07H180.848V134.35H196.688V137.47H176.798V129.1H192.008ZM198.908 139.48V142.66H188.318V150.64H184.358V142.66H173.888V139.48H198.908ZM225.095 131.26L223.655 134.35C219.005 133.69 215.645 131.77 213.905 129.01C212.165 131.74 208.805 133.69 204.185 134.35L202.715 131.26C208.925 130.51 211.895 127.36 211.895 124.24V123.43H215.945V124.24C215.945 127.45 218.855 130.51 225.095 131.26ZM204.245 144.55V141.43H223.445V150.61H219.485V144.55H204.245ZM215.915 136.33H226.475V139.48H201.485V136.33H211.955V132.76H215.915V136.33Z" fill="white"/>
<path d="M157.811 63.1201V66.4453H159.7V67.5879H157.811V70.8691H156.404V63.1201H157.811ZM148.04 69.917V64.0869H153.899V65.2148H149.417V68.7891C152.002 68.7744 153.46 68.7012 155.115 68.3643L155.247 69.4922C153.489 69.8511 151.922 69.917 149.08 69.917H148.04ZM149.153 73.667C149.153 72.063 150.853 71.1255 153.562 71.1182C156.243 71.1255 157.913 72.063 157.913 73.667C157.913 75.2856 156.243 76.2231 153.562 76.2158C150.853 76.2231 149.153 75.2856 149.153 73.667ZM150.53 73.667C150.523 74.5752 151.666 75.1099 153.562 75.1025C155.423 75.1099 156.573 74.5752 156.58 73.667C156.573 72.7588 155.423 72.2388 153.562 72.2461C151.666 72.2388 150.523 72.7588 150.53 73.667ZM171.331 63.1348V72.7441H169.939V63.1348H171.331ZM160.521 69.7852C162.579 69.0234 163.794 67.1338 163.802 65.1562V63.8525H165.223V65.1562C165.215 67.0752 166.431 68.833 168.46 69.5361L167.742 70.6494C166.226 70.0854 165.105 68.9722 164.52 67.5513C163.941 69.0747 162.806 70.2905 161.268 70.8838L160.521 69.7852ZM162.747 75.9668V71.8359H164.153V74.8389H171.727V75.9668H162.747ZM177.688 64.0576C179.761 64.0503 181.255 65.332 181.263 67.1777C181.255 69.0234 179.761 70.3052 177.688 70.3125C175.623 70.3052 174.107 69.0234 174.114 67.1777C174.107 65.332 175.623 64.0503 177.688 64.0576ZM173.484 72.29C175.872 72.29 179.183 72.2681 182.054 71.8506L182.156 72.8613C179.19 73.4326 176.004 73.4473 173.66 73.4473L173.484 72.29ZM175.491 67.1777C175.477 68.3423 176.414 69.0967 177.688 69.0967C178.963 69.0967 179.9 68.3423 179.9 67.1777C179.9 66.0278 178.963 65.2588 177.688 65.2588C176.414 65.2588 175.477 66.0278 175.491 67.1777ZM182.874 76.2744V63.1201H184.266V76.2744H182.874ZM200.262 63.1201V68.4375H202.371V69.5947H200.262V76.2451H198.885V63.1201H200.262ZM189.964 66.3135V65.1709H193.201V63.2959H194.593V65.1709H197.742V66.3135H189.964ZM190.638 70.3271C190.638 68.54 192.015 67.2803 193.904 67.2803C195.787 67.2803 197.164 68.54 197.171 70.3271C197.164 72.1289 195.787 73.3813 193.904 73.3887C192.015 73.3813 190.638 72.1289 190.638 70.3271ZM191.971 70.3271C191.963 71.4697 192.784 72.2314 193.904 72.2168C195.018 72.2314 195.831 71.4697 195.838 70.3271C195.831 69.2065 195.018 68.4302 193.904 68.4229C192.784 68.4302 191.963 69.2065 191.971 70.3271ZM213.577 63.6035V67.1777H205.843V68.6865H213.855V69.8145H204.451V66.1084H212.156V64.7314H204.407V63.6035H213.577ZM202.986 72.1729V71.0596H214.998V72.1729H209.666V76.2744H208.274V72.1729H202.986ZM227.962 69.1406V70.21H215.95V69.1406H227.962ZM217.371 72.1289V71.1328H226.482V74.0186H218.777V75.1025H226.893V76.084H217.386V73.0957H225.105V72.1289H217.371ZM217.459 64.4385V63.457H226.453V66.2988H218.865V67.2949H226.673V68.2764H217.488V65.376H225.062V64.4385H217.459ZM242.903 63.1201V66.5186H244.808V67.7051H242.903V71.0303H241.512V63.1201H242.903ZM232.605 65.5664V64.4531H235.828V63.0176H237.22V64.4531H240.428V65.5664H232.605ZM233.323 68.4814C233.316 67.0825 234.605 66.1377 236.517 66.1377C238.414 66.1377 239.695 67.0825 239.695 68.4814C239.695 69.9023 238.406 70.8325 236.517 70.8398C234.605 70.8325 233.316 69.9023 233.323 68.4814ZM234.524 76.084V71.7188H242.903V76.084H234.524ZM234.671 68.4814C234.656 69.2944 235.403 69.7778 236.517 69.7852C237.63 69.7778 238.377 69.2944 238.392 68.4814C238.377 67.6978 237.63 67.1997 236.517 67.207C235.403 67.1997 234.656 67.6978 234.671 68.4814ZM235.887 74.9561H241.526V72.8174H235.887V74.9561ZM248.807 64.6729C248.792 67.6099 248.426 70.6567 246.595 73.2275L245.511 72.6123C247.042 70.5615 247.503 68.2837 247.598 65.8154H245.818V64.6729H248.807ZM248.455 73.3887C250.154 71.1035 250.469 68.3569 250.521 65.8154H249.202V64.6729H251.722C251.722 65.7788 251.692 66.98 251.553 68.2031H253.099V63.457H254.417V75.6006H253.099V69.3311H251.392C251.099 70.9644 250.557 72.583 249.539 74.0186L248.455 73.3887ZM255.574 76.2451V63.1201H256.907V76.2451H255.574ZM268.743 63.1201V68.4375H270.853V69.5947H268.743V76.2451H267.366V63.1201H268.743ZM258.445 66.3135V65.1709H261.683V63.2959H263.074V65.1709H266.224V66.3135H258.445ZM259.119 70.3271C259.119 68.54 260.496 67.2803 262.386 67.2803C264.268 67.2803 265.645 68.54 265.652 70.3271C265.645 72.1289 264.268 73.3813 262.386 73.3887C260.496 73.3813 259.119 72.1289 259.119 70.3271ZM260.452 70.3271C260.445 71.4697 261.265 72.2314 262.386 72.2168C263.499 72.2314 264.312 71.4697 264.319 70.3271C264.312 69.2065 263.499 68.4302 262.386 68.4229C261.265 68.4302 260.445 69.2065 260.452 70.3271ZM282.103 64.3799V65.6689C282.095 67.2876 282.095 69.104 281.604 71.792L280.198 71.6455C280.704 69.104 280.704 67.2437 280.711 65.6689V65.5078H272.742V64.3799H282.103ZM271.482 74.4727V73.3154H276.038V68.6865H277.415V73.3154H283.45V74.4727H271.482ZM298.992 63.1348V70.415H297.601V63.1348H298.992ZM288.152 69.0674C290.203 68.3936 291.456 66.6943 291.463 64.8779V63.6035H292.884V64.8779C292.876 66.6138 294.136 68.2178 296.15 68.833L295.477 69.9316C293.938 69.4336 292.781 68.4009 292.181 67.0752C291.587 68.5034 290.416 69.6313 288.841 70.166L288.152 69.0674ZM290.071 76.084V74.9561H291.946V72.2461H290.188V71.1328H299.08V72.2461H297.352V74.9561H299.212V76.084H290.071ZM293.323 74.9561H295.975V72.2461H293.323V74.9561ZM313.04 69.9756V71.0889H301.072V69.9756H313.04ZM302.361 66.1816C302.354 64.5337 304.192 63.5522 307.049 63.5596C309.891 63.5522 311.729 64.5337 311.736 66.1816C311.729 67.8369 309.891 68.8403 307.049 68.8477C304.192 68.8403 302.354 67.8369 302.361 66.1816ZM302.581 75.9668V72.1582H303.987V74.8389H311.692V75.9668H302.581ZM303.797 66.1816C303.79 67.1558 305.035 67.7051 307.049 67.7051C309.056 67.7051 310.308 67.1558 310.301 66.1816C310.308 65.2441 309.056 64.6729 307.049 64.6729C305.035 64.6729 303.79 65.2441 303.797 66.1816ZM324.261 63.1201V68.3496H326.297V69.5068H324.261V76.2305H322.869V63.1201H324.261ZM314.051 72.7295C317.339 71.0889 319.126 68.7158 319.412 65.6543H314.71V64.4971H320.833C320.818 68.291 319.148 71.6821 314.827 73.8135L314.051 72.7295ZM339.012 73.4473V74.6045H327V73.4473H329.871V70.0195C328.794 69.4263 328.135 68.4888 328.143 67.3096C328.135 65.2441 330.164 63.8892 332.977 63.8818C335.796 63.8892 337.825 65.2441 337.825 67.3096C337.825 68.4668 337.195 69.397 336.141 69.9902V73.4473H339.012ZM329.49 67.3096C329.49 68.7158 330.918 69.6313 332.977 69.6387C335.02 69.6313 336.47 68.7158 336.478 67.3096C336.47 65.896 335.02 64.9951 332.977 64.9951C330.918 64.9951 329.49 65.896 329.49 67.3096ZM331.248 73.4473H334.734V70.5322C334.2 70.6567 333.606 70.7227 332.977 70.7227C332.361 70.7227 331.775 70.6567 331.248 70.5322V73.4473ZM342.117 71.8506C342.139 69.9316 342.703 69.3457 343.67 68.7451C344.285 68.3716 344.754 67.8296 344.754 67.0605C344.754 66.145 344.051 65.5664 343.172 65.5664C342.381 65.5664 341.612 66.0498 341.546 67.1338H339.964C340.022 65.2661 341.429 64.248 343.172 64.248C345.076 64.248 346.351 65.3906 346.351 67.0605C346.351 68.2397 345.787 69.0234 344.856 69.5947C343.978 70.1294 343.633 70.6567 343.611 71.8506V71.9385H342.117V71.8506ZM341.883 74.0625C341.875 73.4912 342.352 73.0225 342.923 73.0225C343.487 73.0225 343.956 73.4912 343.963 74.0625C343.956 74.6338 343.487 75.0952 342.923 75.1025C342.352 75.0952 341.875 74.6338 341.883 74.0625Z" fill="white"/>
<mask id="mask0_1972_56317" style="mask-type:alpha" maskUnits="userSpaceOnUse" x="479" y="53" width="196" height="176">
<rect x="479" y="53" width="196" height="176" fill="#D9D9D9"/>
</mask>
<g mask="url(#mask0_1972_56317)">
<path d="M577.337 53C611.732 53 639.663 79.9338 639.663 113.112V275.36H515V113.112C515 79.9338 542.931 53 577.337 53Z" fill="#A271D2"/>
<path d="M593.185 99.2918C595.871 99.2918 598.049 97.1917 598.049 94.6011C598.049 92.0105 595.871 89.9104 593.185 89.9104C590.498 89.9104 588.32 92.0105 588.32 94.6011C588.32 97.1917 590.498 99.2918 593.185 99.2918Z" fill="#231815"/>
<path d="M572.63 85.7642C575.316 85.7642 577.494 83.6641 577.494 81.0735C577.494 78.4829 575.316 76.3828 572.63 76.3828C569.943 76.3828 567.766 78.4829 567.766 81.0735C567.766 83.6641 569.943 85.7642 572.63 85.7642Z" fill="#231815"/>
<path d="M552.449 80.9424C543.704 93.2694 546.978 110.085 559.762 118.519C572.545 126.952 589.983 123.794 598.728 111.467L552.449 80.9424Z" fill="#231815"/>
</g>
<defs>
<filter id="filter0_d_1972_56317" x="0" y="0" width="820" height="241" filterUnits="userSpaceOnUse" color-interpolation-filters="sRGB">
<feFlood flood-opacity="0" result="BackgroundImageFix"/>
<feColorMatrix in="SourceAlpha" type="matrix" values="0 0 0 0 0 0 0 0 0 0 0 0 0 0 0 0 0 0 127 0" result="hardAlpha"/>
<feOffset dy="2"/>
<feGaussianBlur stdDeviation="5"/>
<feComposite in2="hardAlpha" operator="out"/>
<feColorMatrix type="matrix" values="0 0 0 0 0 0 0 0 0 0 0 0 0 0 0 0 0 0 0.25 0"/>
<feBlend mode="normal" in2="BackgroundImageFix" result="effect1_dropShadow_1972_56317"/>
<feBlend mode="normal" in="SourceGraphic" in2="effect1_dropShadow_1972_56317" result="shape"/>
</filter>
</defs>
</svg>
