<svg width="1280" height="360" viewBox="0 0 1280 360" fill="none" xmlns="http://www.w3.org/2000/svg">
<rect width="1280" height="360" fill="#FFE14F"/>
<g clip-path="url(#clip0_1972_56406)">
<path d="M954.189 106.262C889.214 106.262 836.539 159.078 836.539 224.229V360H908.563V227.343C908.563 202.079 928.993 181.594 954.189 181.594C979.385 181.594 999.815 202.079 999.815 227.343V360H1071.84V224.229C1071.84 159.078 1019.16 106.262 954.189 106.262Z" fill="#07B159"/>
<path d="M910.467 144.145C912.779 144.145 914.653 142.265 914.653 139.947C914.653 137.629 912.779 135.75 910.467 135.75C908.155 135.75 906.281 137.629 906.281 139.947C906.281 142.265 908.155 144.145 910.467 144.145Z" fill="#231815"/>
<path d="M893.657 157.386C895.968 157.386 897.842 155.507 897.842 153.189C897.842 150.871 895.968 148.992 893.657 148.992C891.345 148.992 889.471 150.871 889.471 153.189C889.471 155.507 891.345 157.386 893.657 157.386Z" fill="#231815"/>
<path d="M888.309 169.747C896.518 180.254 911.668 182.095 922.147 173.877C932.625 165.645 934.461 150.454 926.265 139.948L888.322 169.747H888.309Z" fill="#231815"/>
<path d="M1067.36 200.779L955.175 312.315C937.541 329.848 949.923 360.014 974.768 360.014H1199.12C1223.96 360.014 1236.34 329.848 1218.71 312.315L1106.53 200.779C1095.69 190.002 1078.2 190.002 1067.36 200.779Z" fill="#FF7F1E"/>
<path d="M1077.86 212.03C1077.86 210.684 1076.77 209.593 1075.43 209.593C1074.09 209.593 1073 210.684 1073 212.03V224.771C1073 226.117 1074.09 227.208 1075.43 227.208C1076.77 227.208 1077.86 226.117 1077.86 224.771V212.03Z" fill="#231815"/>
<path d="M1100.9 212.03C1100.9 210.684 1099.81 209.593 1098.47 209.593C1097.13 209.593 1096.04 210.684 1096.04 212.03V224.771C1096.04 226.117 1097.13 227.208 1098.47 227.208C1099.81 227.208 1100.9 226.117 1100.9 224.771V212.03Z" fill="#231815"/>
<path d="M1073.31 233.693C1073.31 241.329 1079.48 247.53 1087.11 247.53C1094.74 247.53 1100.91 241.343 1100.91 233.693H1073.31Z" fill="#231815"/>
<path d="M792.763 162.761C816.932 162.761 836.525 143.115 836.525 118.881C836.525 94.646 816.932 75 792.763 75C768.593 75 749 94.646 749 118.881C749 143.115 768.593 162.761 792.763 162.761Z" fill="#2D81F8"/>
<path d="M787.24 92.3842C789.522 88.7016 794.329 87.5778 798.002 89.8524C801.675 92.127 802.795 96.9605 800.527 100.643" stroke="#231815" stroke-width="2" stroke-miterlimit="10"/>
<path d="M805.617 103.798C807.899 100.115 812.706 98.9914 816.379 101.266C820.052 103.541 821.172 108.374 818.904 112.057" stroke="#231815" stroke-width="2" stroke-miterlimit="10"/>
<path d="M797.895 118.786C801.504 118.786 804.43 115.852 804.43 112.233C804.43 108.614 801.504 105.68 797.895 105.68C794.285 105.68 791.359 108.614 791.359 112.233C791.359 115.852 794.285 118.786 797.895 118.786Z" fill="#231815"/>
</g>
<path d="M172.394 161.716H200.886V165.388H172.394V161.716ZM184.328 154.746H188.85V162.566H184.328V154.746ZM175.352 139.854H197.758V155.324H175.352V139.854ZM193.338 143.458H179.806V151.754H193.338V143.458ZM225.227 137.508H229.783V169.094H225.227V137.508ZM212.817 139.718C217.577 139.718 221.079 144.07 221.079 150.938C221.079 157.874 217.577 162.226 212.817 162.226C208.057 162.226 204.555 157.874 204.555 150.938C204.555 144.07 208.057 139.718 212.817 139.718ZM212.817 143.832C210.471 143.832 208.873 146.314 208.873 150.938C208.873 155.63 210.471 158.146 212.817 158.146C215.163 158.146 216.727 155.63 216.727 150.938C216.727 146.314 215.163 143.832 212.817 143.832ZM241.987 142.506H245.557V146.042C245.557 153.148 242.565 160.39 236.785 163.11L234.235 159.54C239.437 157.092 241.987 151.21 241.987 146.042V142.506ZM242.939 142.506H246.509V146.042C246.509 150.802 248.957 156.378 254.125 158.758L251.643 162.328C245.863 159.642 242.939 152.74 242.939 146.042V142.506ZM235.459 140.568H252.731V144.274H235.459V140.568ZM255.043 137.542H259.599V169.026H255.043V137.542ZM258.579 149.544H264.155V153.284H258.579V149.544ZM276.324 139.616C281.288 139.616 284.994 142.846 284.994 147.368C284.994 151.924 281.288 155.154 276.324 155.154C271.394 155.154 267.62 151.924 267.62 147.368C267.62 142.846 271.394 139.616 276.324 139.616ZM276.324 143.492C273.91 143.492 272.074 144.92 272.074 147.368C272.074 149.85 273.91 151.278 276.324 151.278C278.738 151.278 280.574 149.85 280.574 147.368C280.574 144.92 278.738 143.492 276.324 143.492ZM287.952 137.508H292.474V169.094H287.952V137.508ZM266.872 162.702L266.328 159.064C271.87 159.064 279.588 158.996 286.218 158.01L286.558 161.274C279.724 162.634 272.312 162.702 266.872 162.702ZM312.818 138.46C317.612 138.46 321.216 141.452 321.216 145.668C321.216 149.85 317.612 152.842 312.818 152.842C308.024 152.842 304.42 149.85 304.42 145.668C304.42 141.452 308.024 138.46 312.818 138.46ZM312.818 142.132C310.506 142.132 308.772 143.424 308.772 145.668C308.772 147.912 310.506 149.204 312.818 149.204C315.13 149.204 316.83 147.912 316.83 145.668C316.83 143.424 315.13 142.132 312.818 142.132ZM325.568 137.542H330.124V153.284H325.568V137.542ZM309.112 154.576H330.124V163.212H313.6V167.02H309.18V159.948H325.636V158.078H309.112V154.576ZM309.18 165.184H330.906V168.686H309.18V165.184ZM344.095 138.46C348.889 138.46 352.493 141.452 352.493 145.668C352.493 149.85 348.889 152.842 344.095 152.842C339.301 152.842 335.697 149.85 335.697 145.668C335.697 141.452 339.301 138.46 344.095 138.46ZM344.095 142.132C341.783 142.132 340.049 143.424 340.049 145.668C340.049 147.912 341.783 149.204 344.095 149.204C346.407 149.204 348.107 147.912 348.107 145.668C348.107 143.424 346.407 142.132 344.095 142.132ZM356.845 137.542H361.401V153.284H356.845V137.542ZM340.389 154.576H361.401V163.212H344.877V167.02H340.457V159.948H356.913V158.078H340.389V154.576ZM340.457 165.184H362.183V168.686H340.457V165.184ZM366.533 161.716H395.025V165.388H366.533V161.716ZM378.467 154.746H382.989V162.566H378.467V154.746ZM369.491 139.854H391.897V155.324H369.491V139.854ZM387.477 143.458H373.945V151.754H387.477V143.458ZM419.4 137.576H423.956V155.358H419.4V137.576ZM403.012 156.786H423.956V168.686H403.012V156.786ZM419.502 160.322H407.432V165.116H419.502V160.322ZM406.82 139.004C411.716 139.004 415.354 142.132 415.354 146.552C415.354 150.938 411.716 154.1 406.82 154.1C401.924 154.1 398.252 150.938 398.252 146.552C398.252 142.132 401.924 139.004 406.82 139.004ZM406.82 142.744C404.44 142.744 402.672 144.138 402.672 146.552C402.672 148.932 404.44 150.326 406.82 150.326C409.2 150.326 410.934 148.932 410.934 146.552C410.934 144.138 409.2 142.744 406.82 142.744ZM192.556 177.542H197.044V209.026H192.556V177.542ZM196.024 189.816H201.6V193.59H196.024V189.816ZM172.224 182.2H190.55V185.804H172.224V182.2ZM181.438 187.572C186.028 187.572 189.428 190.7 189.428 195.086C189.428 199.472 186.028 202.6 181.438 202.6C176.848 202.6 173.448 199.472 173.448 195.086C173.448 190.7 176.848 187.572 181.438 187.572ZM181.438 191.244C179.296 191.244 177.766 192.672 177.766 195.086C177.766 197.5 179.296 198.928 181.438 198.928C183.58 198.928 185.11 197.5 185.11 195.086C185.11 192.672 183.58 191.244 181.438 191.244ZM179.16 178.052H183.682V183.56H179.16V178.052ZM206.901 178.528H228.865V187.912H211.559V192.706H206.969V184.546H224.275V182.132H206.901V178.528ZM206.969 190.496H229.647V194.066H206.969V190.496ZM203.637 196.378H232.163V200.016H203.637V196.378ZM215.571 197.704H220.093V209.094H215.571V197.704ZM234.915 192.808H263.407V196.412H234.915V192.808ZM246.849 188.728H251.337V194.372H246.849V188.728ZM246.781 178.086H250.657V179.038C250.657 184.852 246.033 189.408 238.009 190.564L236.343 187.028C243.415 186.178 246.781 182.574 246.781 179.038V178.086ZM247.529 178.086H251.405V179.038C251.405 182.71 254.703 186.178 261.843 187.028L260.177 190.564C252.153 189.374 247.529 184.988 247.529 179.038V178.086ZM238.077 198.622H259.939V209.026H255.417V202.158H238.077V198.622ZM280.438 177.984C287.612 177.984 291.828 179.888 291.828 183.356C291.828 186.824 287.612 188.728 280.438 188.728C273.23 188.728 269.048 186.824 269.048 183.356C269.048 179.888 273.23 177.984 280.438 177.984ZM280.438 181.282C275.882 181.282 273.74 181.962 273.74 183.356C273.74 184.818 275.882 185.43 280.438 185.43C284.994 185.43 287.136 184.818 287.136 183.356C287.136 181.962 284.994 181.282 280.438 181.282ZM266.192 190.19H294.65V193.76H266.192V190.19ZM269.456 195.528H291.216V203.62H273.944V206.408H269.49V200.492H286.762V198.894H269.456V195.528ZM269.49 205.422H292.032V208.822H269.49V205.422ZM304.862 180.126H319.856V195.324H304.862V180.126ZM315.402 183.696H309.316V191.754H315.402V183.696ZM324.208 177.542H328.73V200.492H324.208V177.542ZM327.438 186.62H332.912V190.326H327.438V186.62ZM308.432 204.878H329.852V208.482H308.432V204.878ZM308.432 198.248H312.954V206.68H308.432V198.248ZM358.715 189.442H364.257V193.148H358.715V189.442ZM355.349 177.508H359.905V208.992H355.349V177.508ZM336.173 180.534H340.695V200.084H336.173V180.534ZM336.173 197.568H338.893C343.381 197.568 348.243 197.262 353.309 196.242L353.785 199.948C348.583 201.036 343.517 201.308 338.893 201.308H336.173V197.568ZM367.995 180.058H372.483V183.9H379.385V180.058H383.873V194.542H367.995V180.058ZM372.483 187.368V190.972H379.385V187.368H372.483ZM373.707 193.556H378.229V200.356H373.707V193.556ZM386.831 177.542H391.353V209.026H386.831V177.542ZM389.959 190.122H395.501V193.862H389.959V190.122ZM366.703 203.144L366.159 199.472C371.599 199.472 378.943 199.506 385.199 198.656L385.539 201.92C379.011 203.144 372.007 203.178 366.703 203.144ZM404.066 193.522H408.554V202.362H404.066V193.522ZM415.49 193.522H420.012V202.362H415.49V193.522ZM397.81 201.716H426.302V205.388H397.81V201.716ZM412.022 179.072C418.788 179.072 423.786 182.404 423.786 187.538C423.786 192.672 418.788 195.97 412.022 195.97C405.222 195.97 400.258 192.672 400.258 187.538C400.258 182.404 405.222 179.072 412.022 179.072ZM412.022 182.608C407.636 182.608 404.712 184.41 404.712 187.538C404.712 190.632 407.636 192.468 412.022 192.468C416.408 192.468 419.332 190.632 419.332 187.538C419.332 184.41 416.408 182.608 412.022 182.608Z" fill="black"/>
<path d="M188.297 94.9922V100.312H191.32V102.141H188.297V107.391H186.047V94.9922H188.297ZM172.664 105.867V96.5391H182.039V98.3438H174.867V104.062C179.004 104.039 181.336 103.922 183.984 103.383L184.195 105.188C181.383 105.762 178.875 105.867 174.328 105.867H172.664ZM174.445 111.867C174.445 109.301 177.164 107.801 181.5 107.789C185.789 107.801 188.461 109.301 188.461 111.867C188.461 114.457 185.789 115.957 181.5 115.945C177.164 115.957 174.445 114.457 174.445 111.867ZM176.648 111.867C176.637 113.32 178.465 114.176 181.5 114.164C184.477 114.176 186.316 113.32 186.328 111.867C186.316 110.414 184.477 109.582 181.5 109.594C178.465 109.582 176.637 110.414 176.648 111.867ZM209.93 95.0156V110.391H207.703V95.0156H209.93ZM192.633 105.656C195.926 104.438 197.871 101.414 197.883 98.25V96.1641H200.156V98.25C200.145 101.32 202.09 104.133 205.336 105.258L204.188 107.039C201.762 106.137 199.969 104.355 199.031 102.082C198.105 104.52 196.289 106.465 193.828 107.414L192.633 105.656ZM196.195 115.547V108.938H198.445V113.742H210.562V115.547H196.195ZM220.102 96.4922C223.418 96.4805 225.809 98.5312 225.82 101.484C225.809 104.438 223.418 106.488 220.102 106.5C216.797 106.488 214.371 104.438 214.383 101.484C214.371 98.5312 216.797 96.4805 220.102 96.4922ZM213.375 109.664C217.195 109.664 222.492 109.629 227.086 108.961L227.25 110.578C222.504 111.492 217.406 111.516 213.656 111.516L213.375 109.664ZM216.586 101.484C216.562 103.348 218.062 104.555 220.102 104.555C222.141 104.555 223.641 103.348 223.641 101.484C223.641 99.6445 222.141 98.4141 220.102 98.4141C218.062 98.4141 216.562 99.6445 216.586 101.484ZM228.398 116.039V94.9922H230.625V116.039H228.398ZM247.969 99.0469C247.957 101.027 249.844 102.762 252.914 103.406L252 105.141C249.586 104.59 247.805 103.383 246.879 101.789C245.977 103.523 244.172 104.848 241.688 105.422L240.75 103.688C243.855 103.02 245.73 101.145 245.742 99.0469H241.219V97.2891H245.742V95.0391H247.969V97.2891H252.469V99.0469H247.969ZM239.836 106.711C243.82 106.711 249.094 106.676 253.664 106.102L253.828 107.719C251.906 108.035 249.926 108.234 247.992 108.352V115.359H245.766V108.469C243.75 108.551 241.828 108.562 240.141 108.562L239.836 106.711ZM255.117 115.992V95.0156H257.32V115.992H255.117ZM280.078 98.4609V100.289H277.102V102.938H280.078V104.766H277.102V108.469H274.875V94.9922H277.102V98.4609H280.078ZM260.625 99V97.2422H265.781V94.8281H268.008V97.2422H273.141V99H260.625ZM261.773 103.711C261.762 101.449 263.824 99.9727 266.883 99.9609C269.906 99.9727 271.969 101.449 271.969 103.711C271.969 105.961 269.906 107.426 266.883 107.414C263.824 107.426 261.762 105.961 261.773 103.711ZM263.438 112.312C263.414 109.992 266.062 108.633 270.398 108.633C274.676 108.633 277.336 109.992 277.336 112.312C277.336 114.598 274.676 115.957 270.398 115.945C266.062 115.957 263.414 114.598 263.438 112.312ZM263.93 103.711C263.906 104.953 265.102 105.727 266.883 105.727C268.664 105.727 269.859 104.953 269.883 103.711C269.859 102.434 268.664 101.625 266.883 101.625C265.102 101.625 263.906 102.434 263.93 103.711ZM265.641 112.312C265.629 113.543 267.375 114.258 270.398 114.258C273.375 114.258 275.121 113.543 275.133 112.312C275.121 111.035 273.375 110.355 270.398 110.344C267.375 110.355 265.629 111.035 265.641 112.312ZM290.906 95.3438C295.641 95.332 298.395 96.6094 298.406 98.9531C298.395 101.309 295.641 102.586 290.906 102.586C286.172 102.586 283.395 101.309 283.406 98.9531C283.395 96.6094 286.172 95.332 290.906 95.3438ZM281.344 105.656V103.875H300.492V105.656H281.344ZM283.641 108.938V107.273H298.078V112.195H285.844V114.07H298.664V115.781H283.664V110.578H295.875V108.938H283.641ZM285.727 98.9531C285.715 100.254 287.566 100.922 290.906 100.922C294.27 100.922 296.121 100.254 296.109 98.9531C296.121 97.7109 294.27 96.9844 290.906 96.9844C287.566 96.9844 285.715 97.7109 285.727 98.9531ZM315.305 99.3281C315.305 101.719 317.203 103.969 320.414 104.859L319.406 106.57C316.957 105.879 315.164 104.402 314.227 102.516C313.301 104.602 311.461 106.207 308.977 106.969L307.898 105.211C311.109 104.297 313.102 101.941 313.102 99.3281V99.0938H308.531V97.3125H313.102V94.8984H315.328V97.3125H319.875V99.0938H315.305V99.3281ZM309.984 114.188C313.512 113.684 316.184 111.961 316.582 109.945H310.828V108.164H324.773V109.945H319.031C319.418 111.914 322.125 113.684 325.641 114.211L324.82 115.922C321.621 115.43 319.008 113.965 317.789 111.973C316.582 113.965 313.98 115.395 310.805 115.898L309.984 114.188ZM322.219 107.109V94.9922H324.445V100.031H327.492V101.883H324.445V107.109H322.219ZM338.25 96.2578C342.656 96.2578 346.008 98.5898 346.008 102.117C346.008 105.668 342.656 107.988 338.25 107.977C333.855 107.988 330.504 105.668 330.516 102.117C330.504 98.5898 333.855 96.2578 338.25 96.2578ZM328.688 113.273V111.422H347.906V113.273H328.688ZM332.648 102.117C332.637 104.566 335.027 106.148 338.25 106.148C341.461 106.148 343.84 104.566 343.852 102.117C343.84 99.6797 341.461 98.0508 338.25 98.0625C335.027 98.0508 332.637 99.6797 332.648 102.117ZM366.914 94.9922V116.039H364.711V104.742H360.867V102.891H364.711V94.9922H366.914ZM350.156 98.6953V96.8906H359.625V104.391H352.43V109.172C355.781 109.148 358.359 109.043 361.289 108.516L361.477 110.344C358.336 110.895 355.57 111.023 351.867 111.047H350.203V102.586H357.469V98.6953H350.156ZM392.391 94.9922V103.359H395.648V105.211H392.391V115.969H390.164V94.9922H392.391ZM376.055 110.367C381.316 107.742 384.176 103.945 384.633 99.0469H377.109V97.1953H386.906C386.883 103.266 384.211 108.691 377.297 112.102L376.055 110.367ZM401.484 95.3203V97.1484H411.211V95.3203H413.438V102.281H407.391V104.109H415.922V105.891H396.773V104.109H405.211V102.281H399.281V95.3203H401.484ZM399.07 109.078V107.414H413.508V112.312H401.273V114.07H414.094V115.781H399.094V110.719H411.305V109.078H399.07ZM401.484 100.594H411.211V98.7891H401.484V100.594ZM434.203 94.9922V103.523H437.25V105.352H434.203V115.992H431.977V94.9922H434.203ZM417.328 110.086C420.398 106.887 421.512 103.277 421.734 99.0703H418.078V97.2422H423.844C423.832 102.492 422.895 107.273 419.086 111.328L417.328 110.086ZM423.328 111.492C426.457 107.836 427.371 103.547 427.535 99.0703H424.523V97.2422H429.633C429.633 102.551 428.965 108.152 425.109 112.711L423.328 111.492ZM457.477 111.516V113.367H438.258V111.516H442.852V106.031C441.129 105.082 440.074 103.582 440.086 101.695C440.074 98.3906 443.32 96.2227 447.82 96.2109C452.332 96.2227 455.578 98.3906 455.578 101.695C455.578 103.547 454.57 105.035 452.883 105.984V111.516H457.477ZM442.242 101.695C442.242 103.945 444.527 105.41 447.82 105.422C451.09 105.41 453.41 103.945 453.422 101.695C453.41 99.4336 451.09 97.9922 447.82 97.9922C444.527 97.9922 442.242 99.4336 442.242 101.695ZM445.055 111.516H450.633V106.852C449.777 107.051 448.828 107.156 447.82 107.156C446.836 107.156 445.898 107.051 445.055 106.852V111.516ZM462.445 108.961C462.48 105.891 463.383 104.953 464.93 103.992C465.914 103.395 466.664 102.527 466.664 101.297C466.664 99.832 465.539 98.9062 464.133 98.9062C462.867 98.9062 461.637 99.6797 461.531 101.414H459C459.094 98.4258 461.344 96.7969 464.133 96.7969C467.18 96.7969 469.219 98.625 469.219 101.297C469.219 103.184 468.316 104.438 466.828 105.352C465.422 106.207 464.871 107.051 464.836 108.961V109.102H462.445V108.961ZM462.07 112.5C462.059 111.586 462.82 110.836 463.734 110.836C464.637 110.836 465.387 111.586 465.398 112.5C465.387 113.414 464.637 114.152 463.734 114.164C462.82 114.152 462.059 113.414 462.07 112.5Z" fill="black"/>
<circle cx="188" cy="252" r="16" stroke="black" stroke-width="2"/>
<path d="M187.515 244.714V258.8" stroke="black" stroke-width="2" stroke-linecap="round" stroke-linejoin="round"/>
<path d="M194.558 251.757L180.472 251.757" stroke="black" stroke-width="2" stroke-linecap="round" stroke-linejoin="round"/>
<defs>
<clipPath id="clip0_1972_56406">
<rect width="478" height="285" fill="white" transform="translate(749 75)"/>
</clipPath>
</defs>
</svg>
