<svg width="200" height="60" viewBox="0 0 200 60" fill="none" xmlns="http://www.w3.org/2000/svg">
<rect x="0.5" y="0.5" width="199" height="59" rx="29.5" fill="#FF7F1E" stroke="#FF7F1E"/>
<path d="M54.8477 19.5781C58.0586 19.5898 60.4492 21.5703 60.4727 24.3594C60.4492 27.1602 58.0586 29.1289 54.8477 29.1406C51.6133 29.1289 49.2227 27.1602 49.2227 24.3594C49.2227 21.5703 51.6133 19.5898 54.8477 19.5781ZM51.7539 24.3594C51.7539 26 53.0664 27.0312 54.8477 27.0312C56.6289 27.0312 57.9297 26 57.9414 24.3594C57.9297 22.7539 56.6289 21.7227 54.8477 21.7344C53.0664 21.7227 51.7539 22.7539 51.7539 24.3594ZM52.4336 32.5625V30.5234H66.4961V36.0547H55.0352V37.7656H67.1289V39.8281H52.4805V34.1328H63.8945V32.5625H52.4336ZM63.8711 29.6094V18.8984H66.4961V29.6094H63.8711ZM77.0898 22.2734C77.0898 24.9336 78.8125 27.4531 82.082 28.4844L80.6758 30.5234C78.3906 29.75 76.75 28.2031 75.8242 26.2344C74.9102 28.4844 73.1992 30.2539 70.7617 31.1094L69.3555 29.0703C72.7656 27.8867 74.4766 25.0625 74.4883 22.0391V20.0234H77.0898V22.2734ZM72.2383 36.0312C72.2383 33.5234 74.9922 32.0352 79.4102 32.0469C83.793 32.0352 86.5 33.5234 86.5117 36.0312C86.5 38.5977 83.793 40.0625 79.4102 40.0625C74.9922 40.0625 72.2383 38.5977 72.2383 36.0312ZM74.8398 36.0312C74.8398 37.3438 76.5039 38 79.4102 38C82.3047 38 83.9336 37.3438 83.9336 36.0312C83.9336 34.7891 82.3047 34.0859 79.4102 34.0859C76.5039 34.0859 74.8398 34.7891 74.8398 36.0312ZM83.6992 31.5781V18.8984H86.3008V24.0547H89.2539V26.2109H86.3008V31.5781H83.6992ZM109.645 29.3047V31.4141H90.332V29.3047H98.6758V26.3516H101.254V29.3047H109.645ZM91.3867 25.5312C95.7578 24.9805 98.6289 22.5781 98.6289 20.0469V19.25H101.277V20.0469C101.277 22.6367 104.125 24.9805 108.543 25.5312L107.535 27.5703C104.066 27.043 101.289 25.4727 99.9414 23.2461C98.582 25.4609 95.8164 27.043 92.3242 27.5703L91.3867 25.5312ZM92.4648 35.1406V33.1016H107.277V40.0859H104.676V35.1406H92.4648ZM120.707 20.0938C125.172 20.0938 128.617 22.4727 128.605 26.0703C128.617 29.7148 125.172 32.0938 120.707 32.0938C116.266 32.0938 112.844 29.7148 112.855 26.0703C112.844 22.4727 116.266 20.0938 120.707 20.0938ZM111.074 37.4141V35.2812H130.434V37.4141H111.074ZM115.363 26.0703C115.352 28.4727 117.625 29.9492 120.707 29.9609C123.801 29.9492 126.051 28.4727 126.051 26.0703C126.051 23.7266 123.801 22.1797 120.707 22.2031C117.625 22.1797 115.352 23.7266 115.363 26.0703ZM151.176 35.4688V37.625H131.816V35.4688H140.16V32.0234H134.113V25.0859H146.301V22.4609H134.066V20.3516H148.879V27.1484H136.715V29.8906H149.371V32.0234H142.738V35.4688H151.176Z" fill="white"/>
</svg>
