<svg width="200" height="60" viewBox="0 0 200 60" fill="none" xmlns="http://www.w3.org/2000/svg">
<rect x="0.5" y="0.5" width="199" height="59" rx="29.5" fill="#07B159" stroke="#07B159"/>
<path d="M65.4593 18.8984V27.3359H68.7171V29.4922H65.4593V40.0859H62.8811V18.8984H65.4593ZM48.7483 24.2422V22.1562H53.764V19.2031H56.3655V22.1562H61.2405V24.2422H48.7483ZM49.7327 30.6172C49.7093 27.6875 51.9827 25.6133 55.0765 25.625C58.1233 25.6133 60.385 27.6875 60.3968 30.6172C60.385 33.5352 58.1233 35.5859 55.0765 35.5859C51.9827 35.5859 49.7093 33.5352 49.7327 30.6172ZM52.2171 30.6172C52.2054 32.3398 53.4124 33.4414 55.0765 33.4297C56.7054 33.4414 57.889 32.3398 57.9124 30.6172C57.889 28.8945 56.7054 27.7578 55.0765 27.7578C53.4124 27.7578 52.2054 28.8945 52.2171 30.6172ZM86.6936 19.625V25.6484H74.5296V27.7578H87.1624V29.8438H71.9046V23.6797H84.0218V21.7344H71.8577V19.625H86.6936ZM69.5843 33.7344V31.6484H88.9436V33.7344H80.5296V40.1094H77.928V33.7344H69.5843ZM109.662 29.3047V31.4141H90.3499V29.3047H98.6936V26.3516H101.272V29.3047H109.662ZM91.4046 25.5312C95.7757 24.9805 98.6468 22.5781 98.6468 20.0469V19.25H101.295V20.0469C101.295 22.6367 104.143 24.9805 108.561 25.5312L107.553 27.5703C104.084 27.043 101.307 25.4727 99.9593 23.2461C98.5999 25.4609 95.8343 27.043 92.3421 27.5703L91.4046 25.5312ZM92.4827 35.1406V33.1016H107.295V40.0859H104.694V35.1406H92.4827ZM120.725 20.0938C125.19 20.0938 128.635 22.4727 128.623 26.0703C128.635 29.7148 125.19 32.0938 120.725 32.0938C116.283 32.0938 112.862 29.7148 112.873 26.0703C112.862 22.4727 116.283 20.0938 120.725 20.0938ZM111.092 37.4141V35.2812H130.451V37.4141H111.092ZM115.381 26.0703C115.369 28.4727 117.643 29.9492 120.725 29.9609C123.819 29.9492 126.069 28.4727 126.069 26.0703C126.069 23.7266 123.819 22.1797 120.725 22.2031C117.643 22.1797 115.369 23.7266 115.381 26.0703ZM151.194 35.4688V37.625H131.834V35.4688H140.178V32.0234H134.131V25.0859H146.319V22.4609H134.084V20.3516H148.897V27.1484H136.733V29.8906H149.389V32.0234H142.756V35.4688H151.194Z" fill="white"/>
</svg>
