<svg width="200" height="60" viewBox="0 0 200 60" fill="none" xmlns="http://www.w3.org/2000/svg">
<rect x="0.5" y="0.5" width="199" height="59" rx="29.5" fill="#FFE14F" stroke="#FFE14F"/>
<path d="M89.4531 31.5625V34.0508H79.6641V41.4609H76.6562V34.0508H66.9219V31.5625H89.4531ZM68.1523 27.6523C73.0879 27.0508 76.3281 24.5215 76.6289 22.0469H69V19.6406H76.6562V16.7422H79.6641V19.6406H87.3477V22.0469H79.7188C80.0059 24.4941 83.2324 27.0508 88.168 27.6523L87.0469 30.0586C82.959 29.5391 79.7871 27.748 78.1875 25.3691C76.5742 27.7754 73.3613 29.5391 69.2461 30.0586L68.1523 27.6523ZM100.008 22.5664C99.9941 25.5059 102.059 28.3633 105.969 29.5664L104.492 31.9453C101.689 31.1113 99.6523 29.3203 98.5312 27.0508C97.4375 29.498 95.4004 31.4258 92.5156 32.3555L91.0391 29.9766C94.9355 28.7598 96.9727 25.7383 96.9727 22.5664V22.1836H91.8047V19.7773H96.9727V16.8789H100.035V19.7773H105.176V22.1836H100.008V22.5664ZM95.6055 40.9414V33.5039H98.6406V38.4805H112.449V40.9414H95.6055ZM104.355 26.5312V24.0977H108.785V16.7422H111.82V35.0898H108.785V26.5312H104.355ZM137.906 35.9375V38.4258H115.32V35.9375H125.055V30.5508H117.809V18.6289H135.309V30.5508H128.062V35.9375H137.906ZM120.789 28.1719H132.301V21.0625H120.789V28.1719ZM160.109 16.7422V30.7422H157.047V16.7422H160.109ZM139.957 23.8242C139.957 20.3379 142.801 17.9316 146.629 17.918C150.443 17.9316 153.287 20.3379 153.273 23.8242C153.287 27.2285 150.443 29.6758 146.629 29.6758C142.801 29.6758 139.957 27.2285 139.957 23.8242ZM142.938 23.8242C142.924 25.8203 144.469 27.1191 146.629 27.1055C148.748 27.1191 150.293 25.8203 150.293 23.8242C150.293 21.7734 148.748 20.4883 146.629 20.4883C144.469 20.4883 142.924 21.7734 142.938 23.8242ZM143.703 41.1328V31.9453H160.109V41.1328H143.703ZM146.711 38.6719H157.129V34.3516H146.711V38.6719Z" fill="white"/>
<path d="M56.1573 35.2538L54.9703 36.5013C54.0954 37.4138 52.9603 38.587 51.5644 40.0211C50.6922 40.9174 49.3084 40.9173 48.4363 40.0209L44.9451 36.4121C44.5064 35.9543 44.1391 35.5682 43.8433 35.2538C40.4429 31.6402 40.4429 25.7813 43.8433 22.1677C47.2437 18.5541 52.7569 18.5541 56.1573 22.1677C59.5577 25.7813 59.5577 31.6402 56.1573 35.2538ZM52.5005 29.0027C52.5005 27.5353 51.3811 26.3457 50.0003 26.3457C48.6195 26.3457 47.5001 27.5353 47.5001 29.0027C47.5001 30.4701 48.6195 31.6597 50.0003 31.6597C51.3811 31.6597 52.5005 30.4701 52.5005 29.0027Z" fill="white"/>
</svg>
