<svg width="200" height="60" viewBox="0 0 200 60" fill="none" xmlns="http://www.w3.org/2000/svg">
<rect x="0.5" y="0.5" width="199" height="59" rx="29.5" fill="#FFE14F" stroke="#FFE14F"/>
<path d="M79.0352 19.8984V41.0859H76.5273V30.375H74.1836V40.0078H71.7461V20.2969H74.1836V28.2422H76.5273V19.8984H79.0352ZM61.7617 35.8125V22.3359H64.3867V33.5156C66.2148 33.4805 68.207 33.3164 70.4336 32.8828L70.6914 35.1562C67.832 35.6602 65.4062 35.8125 63.168 35.8125H61.7617ZM100.902 31.7109V33.8203H92.4883V41.0625H89.9102V33.8203H81.5898V31.7109H100.902ZM82.5977 28.2422C86.7578 27.7148 89.5469 25.4766 89.7344 23.1562H83.3711V21.0938H99.1211V23.1562H92.7578C92.9336 25.4766 95.6992 27.7148 99.8945 28.2422L98.957 30.2812C95.3477 29.7656 92.5352 28.1133 91.2461 25.8281C89.9453 28.1133 87.1562 29.7656 83.582 30.2812L82.5977 28.2422ZM120.074 19.9219V35.5547H117.473V30.2344H113.207V32.1094H103.293V21.3047H105.895V24.7266H110.629V21.3047H113.207V23.5781H117.473V19.9219H120.074ZM105.895 30.0469H110.629V26.7422H105.895V30.0469ZM106.105 40.6641V34.0078H108.754V38.5547H120.543V40.6641H106.105ZM113.207 28.125H117.473V25.6875H113.207V28.125ZM142.434 36.375V38.5078H123.074V36.375H131.418V31.7578H125.207V21.5391H140.207V31.7578H133.996V36.375H142.434ZM127.762 29.7188H137.629V23.625H127.762V29.7188ZM161.465 19.9219V31.9219H158.84V19.9219H161.465ZM144.191 25.9922C144.191 23.0039 146.629 20.9414 149.91 20.9297C153.18 20.9414 155.617 23.0039 155.605 25.9922C155.617 28.9102 153.18 31.0078 149.91 31.0078C146.629 31.0078 144.191 28.9102 144.191 25.9922ZM146.746 25.9922C146.734 27.7031 148.059 28.8164 149.91 28.8047C151.727 28.8164 153.051 27.7031 153.051 25.9922C153.051 24.2344 151.727 23.1328 149.91 23.1328C148.059 23.1328 146.734 24.2344 146.746 25.9922ZM147.402 40.8281V32.9531H161.465V40.8281H147.402ZM149.98 38.7188H158.91V35.0156H149.98V38.7188Z" fill="white"/>
<path d="M54.1573 35.2538L52.9703 36.5013C52.0954 37.4138 50.9603 38.587 49.5644 40.0211C48.6922 40.9174 47.3084 40.9173 46.4363 40.0209L42.9451 36.4121C42.5064 35.9543 42.1391 35.5682 41.8433 35.2538C38.4429 31.6402 38.4429 25.7813 41.8433 22.1677C45.2437 18.5541 50.7569 18.5541 54.1573 22.1677C57.5577 25.7813 57.5577 31.6402 54.1573 35.2538ZM50.5005 29.0027C50.5005 27.5353 49.3811 26.3457 48.0003 26.3457C46.6195 26.3457 45.5001 27.5353 45.5001 29.0027C45.5001 30.4701 46.6195 31.6597 48.0003 31.6597C49.3811 31.6597 50.5005 30.4701 50.5005 29.0027Z" fill="white"/>
</svg>
