<svg width="200" height="60" viewBox="0 0 200 60" fill="none" xmlns="http://www.w3.org/2000/svg">
<rect x="0.5" y="0.5" width="199" height="59" rx="29.5" fill="#FFE14F" stroke="#FFE14F"/>
<path d="M91.0312 32.625V34.7578H82.6406V41.1094H80.0625V34.7578H71.7188V32.625H91.0312ZM72.7734 29.2734C77.0039 28.7578 79.7812 26.5898 80.0391 24.4688H73.5V22.4062H80.0625V19.9219H82.6406V22.4062H89.2266V24.4688H82.6875C82.9336 26.5664 85.6992 28.7578 89.9297 29.2734L88.9688 31.3359C85.4648 30.8906 82.7461 29.3555 81.375 27.3164C79.9922 29.3789 77.2383 30.8906 73.7109 31.3359L72.7734 29.2734ZM100.078 24.9141C100.066 27.4336 101.836 29.8828 105.188 30.9141L103.922 32.9531C101.52 32.2383 99.7734 30.7031 98.8125 28.7578C97.875 30.8555 96.1289 32.5078 93.6562 33.3047L92.3906 31.2656C95.7305 30.2227 97.4766 27.6328 97.4766 24.9141V24.5859H93.0469V22.5234H97.4766V20.0391H100.102V22.5234H104.508V24.5859H100.078V24.9141ZM96.3047 40.6641V34.2891H98.9062V38.5547H110.742V40.6641H96.3047ZM103.805 28.3125V26.2266H107.602V19.9219H110.203V35.6484H107.602V28.3125H103.805ZM132.562 36.375V38.5078H113.203V36.375H121.547V31.7578H115.336V21.5391H130.336V31.7578H124.125V36.375H132.562ZM117.891 29.7188H127.758V23.625H117.891V29.7188ZM151.594 19.9219V31.9219H148.969V19.9219H151.594ZM134.32 25.9922C134.32 23.0039 136.758 20.9414 140.039 20.9297C143.309 20.9414 145.746 23.0039 145.734 25.9922C145.746 28.9102 143.309 31.0078 140.039 31.0078C136.758 31.0078 134.32 28.9102 134.32 25.9922ZM136.875 25.9922C136.863 27.7031 138.188 28.8164 140.039 28.8047C141.855 28.8164 143.18 27.7031 143.18 25.9922C143.18 24.2344 141.855 23.1328 140.039 23.1328C138.188 23.1328 136.863 24.2344 136.875 25.9922ZM137.531 40.8281V32.9531H151.594V40.8281H137.531ZM140.109 38.7188H149.039V35.0156H140.109V38.7188Z" fill="white"/>
<path d="M58.1573 35.2538L56.9703 36.5013C56.0954 37.4138 54.9603 38.587 53.5644 40.0211C52.6922 40.9174 51.3084 40.9173 50.4363 40.0209L46.9451 36.4121C46.5064 35.9543 46.1391 35.5682 45.8433 35.2538C42.4429 31.6402 42.4429 25.7813 45.8433 22.1677C49.2437 18.5541 54.7569 18.5541 58.1573 22.1677C61.5577 25.7813 61.5577 31.6402 58.1573 35.2538ZM54.5005 29.0027C54.5005 27.5353 53.3811 26.3457 52.0003 26.3457C50.6195 26.3457 49.5001 27.5353 49.5001 29.0027C49.5001 30.4701 50.6195 31.6597 52.0003 31.6597C53.3811 31.6597 54.5005 30.4701 54.5005 29.0027Z" fill="white"/>
</svg>
