<svg width="16" height="16" viewBox="0 0 16 16" fill="none" xmlns="http://www.w3.org/2000/svg">
<path d="M12.1049 11.2543L11.3135 12.0369C10.7303 12.6093 9.97352 13.3453 9.04292 14.2449C8.46146 14.8072 7.53892 14.8071 6.95752 14.2448L4.6301 11.9809C4.33759 11.6937 4.09274 11.4515 3.89552 11.2543C1.62858 8.98734 1.62858 5.31187 3.89552 3.04493C6.16246 0.777992 9.83792 0.777992 12.1049 3.04493C14.3718 5.31187 14.3718 8.98734 12.1049 11.2543ZM9.66699 7.33274C9.66699 6.41217 8.92072 5.66592 8.00019 5.66592C7.07966 5.66592 6.33338 6.41217 6.33338 7.33274C6.33338 8.25327 7.07966 8.99954 8.00019 8.99954C8.92072 8.99954 9.66699 8.25327 9.66699 7.33274Z" fill="#212121"/>
</svg>
