<svg width="16" height="16" viewBox="0 0 16 16" fill="none" xmlns="http://www.w3.org/2000/svg">
<path d="M9.28378 1.66895C9.81565 1.66895 10.3078 1.95059 10.5771 2.40919L11.1202 3.33358H12.5007C13.6973 3.33358 14.6673 4.30363 14.6673 5.50025V11.8336C14.6673 13.0302 13.6973 14.0003 12.5007 14.0003H3.50065C2.30403 14.0003 1.33398 13.0302 1.33398 11.8336V5.50025C1.33398 4.30363 2.30403 3.33358 3.50065 3.33358H4.8876L5.47065 2.38405C5.74348 1.93971 6.22749 1.66895 6.74892 1.66895H9.28378ZM8.00065 5.33358C6.3438 5.33358 5.00065 6.67674 5.00065 8.33361C5.00065 9.99041 6.3438 11.3336 8.00065 11.3336C9.65752 11.3336 11.0007 9.99041 11.0007 8.33361C11.0007 6.67674 9.65752 5.33358 8.00065 5.33358ZM8.00065 6.33358C9.10525 6.33358 10.0007 7.22901 10.0007 8.33361C10.0007 9.43814 9.10525 10.3336 8.00065 10.3336C6.89605 10.3336 6.00065 9.43814 6.00065 8.33361C6.00065 7.22901 6.89605 6.33358 8.00065 6.33358Z" fill="#212121"/>
</svg>
