<svg width="16" height="16" viewBox="0 0 16 16" fill="none" xmlns="http://www.w3.org/2000/svg">
<path d="M7.99935 5.33301V1.33301H3.99935C3.26297 1.33301 2.66602 1.92996 2.66602 2.66634V13.333C2.66602 14.0694 3.26297 14.6663 3.99935 14.6663H11.9993C12.7357 14.6663 13.3327 14.0694 13.3327 13.333V6.66634H9.33268C8.59628 6.66634 7.99935 6.06939 7.99935 5.33301ZM5.49935 7.66634H10.4993C10.7755 7.66634 10.9993 7.89021 10.9993 8.16634C10.9993 8.44247 10.7755 8.66634 10.4993 8.66634H5.49935C5.22321 8.66634 4.99935 8.44247 4.99935 8.16634C4.99935 7.89021 5.22321 7.66634 5.49935 7.66634ZM5.49935 9.49967H10.4993C10.7755 9.49967 10.9993 9.72354 10.9993 9.99967C10.9993 10.2758 10.7755 10.4997 10.4993 10.4997H5.49935C5.22321 10.4997 4.99935 10.2758 4.99935 9.99967C4.99935 9.72354 5.22321 9.49967 5.49935 9.49967ZM5.49935 11.333H10.4993C10.7755 11.333 10.9993 11.5569 10.9993 11.833C10.9993 12.1091 10.7755 12.333 10.4993 12.333H5.49935C5.22321 12.333 4.99935 12.1091 4.99935 11.833C4.99935 11.5569 5.22321 11.333 5.49935 11.333ZM8.99935 5.33301V1.66634L12.9993 5.66634H9.33268C9.14862 5.66634 8.99935 5.5171 8.99935 5.33301Z" fill="#212121"/>
</svg>
