<svg width="16" height="15" viewBox="0 0 16 15" fill="none" xmlns="http://www.w3.org/2000/svg">
<path d="M14 5.28843V11.044C14 12.1608 13.0299 13.0662 11.8333 13.0662H4.16667C2.97005 13.0662 2 12.1608 2 11.044V5.28843H14ZM4.83333 9.33288C4.37309 9.33288 4 9.68107 4 10.1107C4 10.5402 4.37309 10.8884 4.83333 10.8884C5.29357 10.8884 5.66667 10.5402 5.66667 10.1107C5.66667 9.68107 5.29357 9.33288 4.83333 9.33288ZM8 9.33288C7.53973 9.33288 7.16667 9.68107 7.16667 10.1107C7.16667 10.5402 7.53973 10.8884 8 10.8884C8.46027 10.8884 8.83333 10.5402 8.83333 10.1107C8.83333 9.68107 8.46027 9.33288 8 9.33288ZM4.83333 6.53288C4.37309 6.53288 4 6.88107 4 7.31066C4 7.74024 4.37309 8.08843 4.83333 8.08843C5.29357 8.08843 5.66667 7.74024 5.66667 7.31066C5.66667 6.88107 5.29357 6.53288 4.83333 6.53288ZM8 6.53288C7.53973 6.53288 7.16667 6.88107 7.16667 7.31066C7.16667 7.74024 7.53973 8.08843 8 8.08843C8.46027 8.08843 8.83333 7.74024 8.83333 7.31066C8.83333 6.88107 8.46027 6.53288 8 6.53288ZM11.1667 6.53288C10.7064 6.53288 10.3333 6.88107 10.3333 7.31066C10.3333 7.74024 10.7064 8.08843 11.1667 8.08843C11.6269 8.08843 12 7.74024 12 7.31066C12 6.88107 11.6269 6.53288 11.1667 6.53288ZM11.8333 1.86621C13.0299 1.86621 14 2.77159 14 3.88843V4.3551H2V3.88843C2 2.77159 2.97005 1.86621 4.16667 1.86621H11.8333Z" fill="#212121"/>
</svg>
