<svg width="16" height="14" viewBox="0 0 16 14" fill="none" xmlns="http://www.w3.org/2000/svg">
<path d="M4.79995 6.39994C6.56721 6.39994 7.99992 4.96723 7.99992 3.19997C7.99992 1.43267 6.56721 0 4.79995 0C3.03266 0 1.59998 1.43267 1.59998 3.19997C1.59998 4.96723 3.03266 6.39994 4.79995 6.39994ZM11.9999 6.39994C13.3254 6.39994 14.3999 5.32547 14.3999 3.99996C14.3999 2.67449 13.3254 1.59998 11.9999 1.59998C10.6744 1.59998 9.5999 2.67449 9.5999 3.99996C9.5999 5.32547 10.6744 6.39994 11.9999 6.39994ZM1.79998 7.99992C0.80588 7.99992 0 8.80583 0 9.7999V9.9999C0 9.9999 0 13.5999 4.79995 13.5999C9.5999 13.5999 9.5999 9.9999 9.5999 9.9999V9.7999C9.5999 8.80583 8.79399 7.99992 7.79992 7.99992H1.79998ZM12 12.3999C11.0631 12.3999 10.3456 12.255 9.79614 12.0332C10.0697 11.5732 10.2174 11.1312 10.2978 10.7868C10.3461 10.5797 10.3715 10.4021 10.3849 10.2681C10.3917 10.2009 10.3954 10.1439 10.3975 10.0989C10.3985 10.0763 10.3992 10.0566 10.3996 10.0401L10.4 10.0177L10.4001 10.0081V10.0039V10.0018C10.4001 9.99926 10.4001 9.9999 10.4001 9.9999V9.7999C10.4001 9.10223 10.1253 8.4688 9.67806 8.00176C9.70518 8.00056 9.73254 7.99992 9.76006 7.99992H14.24C15.212 7.99992 16 8.78791 16 9.7599C16 9.7599 16 12.3999 12 12.3999Z" fill="#212121"/>
</svg>
