<svg width="60" height="60" viewBox="0 0 60 60" fill="none" xmlns="http://www.w3.org/2000/svg">
<circle cx="30" cy="30" r="30" fill="#F5F2F0"/>
<path d="M30.0002 14.9941C36.075 14.9941 41.0352 19.7863 41.2439 25.8677L41.2502 26.2441V32.3896L43.3202 37.1236C43.4238 37.3605 43.4772 37.6162 43.4772 37.8748C43.4772 38.9103 42.6378 39.7498 41.6022 39.7498L34.5002 39.7521C34.5002 42.2373 32.4855 44.2521 30.0002 44.2521C27.6036 44.2521 25.6447 42.3786 25.5078 40.0164L25.4995 39.7486L18.4125 39.7498C18.1555 39.7498 17.9012 39.6969 17.6655 39.5946C16.7157 39.1819 16.2801 38.0776 16.6927 37.1278L18.7502 32.391V26.244C18.7511 20.0118 23.7783 14.9941 30.0002 14.9941ZM32.2496 39.7486L27.7502 39.7521C27.7502 40.9947 28.7576 42.0021 30.0002 42.0021C31.1697 42.0021 32.1309 41.1097 32.2398 39.9687L32.2496 39.7486ZM30.0002 17.2441C25.0199 17.2441 21.0009 21.2555 21.0002 26.2441V32.8585L18.9842 37.4998H41.0289L39.0002 32.86L39.0003 26.2634L38.9948 25.9256C38.8281 21.0754 34.8626 17.2441 30.0002 17.2441Z" fill="#212121"/>
</svg>
