<svg width="18" height="15" viewBox="0 0 18 15" fill="none" xmlns="http://www.w3.org/2000/svg">
<path d="M5.66602 7.00016C7.50693 7.00016 8.99935 5.50775 8.99935 3.66683C8.99935 1.82588 7.50693 0.333496 5.66602 0.333496C3.82507 0.333496 2.33268 1.82588 2.33268 3.66683C2.33268 5.50775 3.82507 7.00016 5.66602 7.00016ZM13.166 7.00016C14.5468 7.00016 15.666 5.88091 15.666 4.50016C15.666 3.11945 14.5468 2.00016 13.166 2.00016C11.7853 2.00016 10.666 3.11945 10.666 4.50016C10.666 5.88091 11.7853 7.00016 13.166 7.00016ZM2.54102 8.66683C1.50548 8.66683 0.666016 9.50633 0.666016 10.5418V10.7502C0.666016 10.7502 0.666016 14.5002 5.66602 14.5002C10.666 14.5002 10.666 10.7502 10.666 10.7502V10.5418C10.666 9.50633 9.82652 8.66683 8.79102 8.66683H2.54102ZM13.1662 13.2502C12.1902 13.2502 11.4428 13.0992 10.8704 12.8682C11.1554 12.3891 11.3093 11.9287 11.393 11.5698C11.4434 11.3541 11.4698 11.1691 11.4838 11.0296C11.4908 10.9595 11.4947 10.9002 11.4969 10.8532C11.4979 10.8297 11.4986 10.8092 11.499 10.7921L11.4994 10.7687L11.4995 10.7587V10.7543V10.7522C11.4995 10.7495 11.4995 10.7502 11.4995 10.7502V10.5418C11.4995 9.81508 11.2133 9.15525 10.7474 8.66875C10.7757 8.6675 10.8042 8.66683 10.8329 8.66683H15.4995C16.512 8.66683 17.3329 9.48766 17.3329 10.5002C17.3329 10.5002 17.3329 13.2502 13.1662 13.2502Z" fill="#747474"/>
</svg>
