<svg width="14" height="14" viewBox="0 0 14 14" fill="none" xmlns="http://www.w3.org/2000/svg">
<path d="M4.40998 6.61499C5.62772 6.61499 6.61494 5.62778 6.61494 4.41004C6.61494 3.19227 5.62772 2.20508 4.40998 2.20508C3.19221 2.20508 2.20502 3.19227 2.20502 4.41004C2.20502 5.62778 3.19221 6.61499 4.40998 6.61499ZM9.37113 6.61499C10.2845 6.61499 11.0249 5.87462 11.0249 4.96128C11.0249 4.04795 10.2845 3.30756 9.37113 3.30756C8.45779 3.30756 7.71741 4.04795 7.71741 4.96128C7.71741 5.87462 8.45779 6.61499 9.37113 6.61499ZM2.34283 7.71747C1.65784 7.71747 1.10254 8.27279 1.10254 8.95776V9.09557C1.10254 9.09557 1.10254 11.5762 4.40998 11.5762C7.71741 11.5762 7.71741 9.09557 7.71741 9.09557V8.95776C7.71741 8.27279 7.1621 7.71747 6.47713 7.71747H2.34283ZM9.37124 10.7493C8.72563 10.7493 8.23123 10.6495 7.85263 10.4966C8.04116 10.1797 8.14292 9.87514 8.19832 9.63777C8.23161 9.49506 8.24909 9.37268 8.25835 9.2804C8.26298 9.23404 8.26557 9.1948 8.267 9.16376C8.26772 9.14822 8.26816 9.13466 8.26843 9.1233L8.26871 9.10781L8.26876 9.10125V9.09833V9.0969C8.26876 9.09513 8.26876 9.09557 8.26876 9.09557V8.95776C8.26876 8.47703 8.07941 8.04056 7.77127 7.71874C7.78996 7.71791 7.80881 7.71747 7.82777 7.71747H10.9147C11.5845 7.71747 12.1274 8.26045 12.1274 8.9302C12.1274 8.9302 12.1274 10.7493 9.37124 10.7493Z" fill="#747474"/>
</svg>
