<svg width="723" height="215" viewBox="0 0 723 215" fill="none" xmlns="http://www.w3.org/2000/svg">
<rect width="723" height="215" rx="30" fill="#FF7F1E"/>
<mask id="mask0_1336_1078" style="mask-type:alpha" maskUnits="userSpaceOnUse" x="0" y="0" width="723" height="215">
<rect width="723" height="215" rx="30" fill="#FF7F1E"/>
</mask>
<g mask="url(#mask0_1336_1078)">
<path d="M573.893 185.361V284.316H626.212C626.212 284.316 631.197 256.761 601.851 256.761V185.349" fill="#FDA22C"/>
<path d="M573.893 185.361V284.316H626.212C626.212 284.316 631.197 256.761 601.851 256.761V185.349" stroke="#231815" stroke-width="2" stroke-linecap="round" stroke-linejoin="round"/>
<path d="M527.719 185.361V284.316H580.038C580.038 284.316 585.023 256.761 555.677 256.761V185.349" fill="#FDA22C"/>
<path d="M527.719 185.361V284.316H580.038C580.038 284.316 585.023 256.761 555.677 256.761V185.349" stroke="#231815" stroke-width="2" stroke-linecap="round" stroke-linejoin="round"/>
<path d="M564.839 206.226C519.997 206.226 483.645 169.864 483.645 125.009C483.645 80.1546 519.997 43.7925 564.839 43.7925C609.682 43.7925 646.033 80.1546 646.033 125.009C646.033 169.864 609.682 206.226 564.839 206.226Z" fill="#FDA22C"/>
<path d="M569.438 101.173C569.438 101.173 569.269 111.679 560.505 113.502C560.505 113.502 548.965 116.485 546.768 105.907" stroke="#040000" stroke-width="2" stroke-linecap="round" stroke-linejoin="round"/>
<path d="M541.638 100.002C538.611 100.002 536.157 97.5478 536.157 94.5202C536.157 91.4925 538.611 89.0381 541.638 89.0381C544.664 89.0381 547.118 91.4925 547.118 94.5202C547.118 97.5478 544.664 100.002 541.638 100.002Z" fill="#040000"/>
<path d="M569.777 94.1336C566.75 94.1336 564.296 91.6792 564.296 88.6515C564.296 85.6238 566.75 83.1694 569.777 83.1694C572.804 83.1694 575.257 85.6238 575.257 88.6515C575.257 91.6792 572.804 94.1336 569.777 94.1336Z" fill="#040000"/>
<path d="M615.311 120.819C615.311 120.819 644.838 81.8774 637.643 52.3417C637.643 52.3417 623.339 44.1065 629.29 36.7649C629.29 36.7649 632.815 32.4058 640.36 42.8507C640.36 42.8507 629.7 26.5856 637.643 22.9872C637.643 22.9872 645.949 19.2922 647.977 37.4773" stroke="#231815" stroke-width="2" stroke-linecap="round" stroke-linejoin="round"/>
<path d="M640.504 137.616C640.504 137.616 666.386 108.406 658.914 51.786C658.914 51.786 671.782 34.5307 662.837 28.1551C662.837 28.1551 658.503 26.3076 656.005 30.2803" stroke="#231815" stroke-width="2" stroke-linecap="round" stroke-linejoin="round"/>
<path d="M654.894 40.7981C654.894 40.7981 659.421 23.5428 650.922 20.029C650.922 20.029 645.297 19.2562 644.416 25.6922" stroke="#231815" stroke-width="2" stroke-linecap="round" stroke-linejoin="round"/>
<path d="M521.478 139.681C521.478 139.681 474.652 125.71 463.002 97.6354C463.002 97.6354 469.678 82.5416 460.54 80.1386C460.54 80.1386 455.12 78.7017 455.204 91.5979C455.204 91.5979 454.19 72.1811 445.667 73.9683C445.667 73.9683 436.783 75.9003 445.897 91.7669" stroke="#231815" stroke-width="2" stroke-linecap="round" stroke-linejoin="round"/>
<path d="M511.072 168.118C511.072 168.118 472.937 159.858 445.511 109.759C445.511 109.759 424.928 103.443 428.393 93.0226C428.393 93.0226 430.795 88.9654 435.153 90.7042" stroke="#231815" stroke-width="2" stroke-linecap="round" stroke-linejoin="round"/>
<path d="M442.263 98.5289C442.263 98.5289 428.417 87.2749 433.197 79.4261C433.197 79.4261 437.278 75.4776 441.792 80.1506" stroke="#231815" stroke-width="2" stroke-linecap="round" stroke-linejoin="round"/>
</g>
<path d="M114.555 114.049V117.535H86.8965V114.049H98.5508V107.873H89.8184V93.0645H111.467V107.873H102.768V114.049H114.555ZM94.002 104.553H107.283V96.4512H94.002V104.553ZM141.582 90.8398V121.121H137.299V90.8398H141.582ZM117.178 103.723C117.161 97.1318 120.531 92.9648 125.18 92.9648C129.729 92.9648 133.115 97.1318 133.115 103.723C133.115 110.363 129.729 114.514 125.18 114.514C120.531 114.514 117.161 110.363 117.178 103.723ZM121.262 103.723C121.245 108.222 122.822 110.679 125.18 110.662C127.471 110.679 129.015 108.222 129.031 103.723C129.015 99.2402 127.471 96.7832 125.18 96.7832C122.822 96.7832 121.245 99.2402 121.262 103.723ZM156.822 99.0742C156.806 103.673 159.263 108.985 164.227 111.293L161.869 114.613C158.499 113.069 156.108 109.981 154.747 106.362C153.402 110.347 150.912 113.733 147.426 115.377L144.969 112.023C149.999 109.683 152.539 104.071 152.572 99.0742V97.2148H146.164V93.7617H162.898V97.2148H156.822V99.0742ZM165.256 121.055V90.8398H169.506V102.361H173.955V105.914H169.506V121.055H165.256ZM184.846 92.8652C189.644 92.8486 193.196 95.9365 193.213 100.27C193.196 104.619 189.644 107.69 184.846 107.707C180.081 107.69 176.429 104.619 176.445 100.27C176.429 95.9365 180.081 92.8486 184.846 92.8652ZM175.184 111.492C180.579 111.509 188.05 111.442 194.508 110.529L194.84 113.584C188.133 114.896 180.961 114.945 175.682 114.945L175.184 111.492ZM180.662 100.27C180.646 102.66 182.455 104.038 184.846 104.021C187.253 104.038 189.079 102.66 189.096 100.27C189.079 97.9121 187.253 96.5176 184.846 96.5176C182.455 96.5176 180.646 97.9121 180.662 100.27ZM196.234 121.121V90.8398H200.451V121.121H196.234ZM237.738 90.8398V108.77H233.521V101.631H228.807V98.2109H233.521V90.8398H237.738ZM212.072 105.449C217.02 103.789 219.277 99.8379 219.377 96.0527H213.301V92.666H229.703V96.0527H223.693C223.776 99.5723 225.935 103.125 230.633 104.686L228.541 108.006C225.221 106.927 222.913 104.735 221.602 102.029C220.273 105.101 217.85 107.574 214.264 108.803L212.072 105.449ZM217.02 115.277C217.02 111.608 220.971 109.45 227.412 109.434C233.87 109.45 237.821 111.608 237.838 115.277C237.821 118.946 233.87 121.088 227.412 121.088C220.971 121.088 217.02 118.946 217.02 115.277ZM221.236 115.277C221.236 117.004 223.411 117.867 227.412 117.867C231.43 117.867 233.604 117.004 233.621 115.277C233.604 113.534 231.43 112.671 227.412 112.688C223.411 112.671 221.236 113.534 221.236 115.277ZM267.057 90.8398V121.055H262.773V90.8398H267.057ZM241.756 112.488C249.559 108.803 252.995 104.021 253.676 97.3145H243.383V93.9941H257.992C257.976 103.158 254.771 110.778 243.98 115.875L241.756 112.488ZM298.699 114.049V117.535H271.041V114.049H282.695V107.873H273.963V93.0645H295.611V107.873H286.912V114.049H298.699ZM278.146 104.553H291.428V96.4512H278.146V104.553ZM325.727 90.873V107.939H321.477V90.873H325.727ZM300.891 99.5391C300.891 95.2227 304.443 92.2344 309.158 92.2344C313.856 92.2344 317.409 95.2227 317.426 99.5391C317.409 103.689 313.856 106.744 309.158 106.744C304.443 106.744 300.891 103.689 300.891 99.5391ZM305.041 99.5391C305.008 101.78 306.734 103.191 309.158 103.191C311.516 103.191 313.226 101.78 313.242 99.5391C313.226 97.165 311.516 95.7871 309.158 95.7871C306.734 95.7871 305.008 97.165 305.041 99.5391ZM305.473 120.723V109.301H325.727V120.723H305.473ZM309.656 117.336H321.576V112.654H309.656V117.336ZM95.4961 132.736C100.095 132.72 103.548 135.608 103.564 139.643C103.548 143.644 100.095 146.499 95.4961 146.516C90.8311 146.499 87.3613 143.644 87.3613 139.643C87.3613 135.608 90.8311 132.72 95.4961 132.736ZM91.4785 139.643C91.4453 141.801 93.1553 143.079 95.4961 143.096C97.7871 143.079 99.4639 141.801 99.4805 139.643C99.4639 137.468 97.7871 136.189 95.4961 136.189C93.1719 136.189 91.4453 137.468 91.4785 139.643ZM91.9102 151.496V148.242H112.197V156.443H96.127V158.402H113.027V161.723H91.9766V153.355H107.98V151.496H91.9102ZM107.947 146.98V131.84H112.197V146.98H107.947ZM127.305 136.588C127.288 140.257 129.43 143.776 134.211 145.254L131.953 148.541C128.749 147.479 126.508 145.42 125.213 142.78C123.901 145.818 121.561 148.209 118.107 149.371L115.816 146.051C120.863 144.374 123.021 140.356 123.055 136.189V133.434H127.305V136.588ZM120 156.211C119.983 152.542 123.984 150.367 130.359 150.367C136.618 150.367 140.536 152.542 140.553 156.211C140.536 159.913 136.618 162.071 130.359 162.055C123.984 162.071 119.983 159.913 120 156.211ZM124.25 156.211C124.217 157.921 126.392 158.734 130.359 158.734C134.277 158.734 136.369 157.921 136.369 156.211C136.369 154.567 134.277 153.688 130.359 153.688C126.392 153.688 124.217 154.567 124.25 156.211ZM136.004 149.77V131.84H140.254V138.912H144.338V142.432H140.254V149.77H136.004ZM173.225 146.549V149.936H145.666V146.549H157.32V142.531H161.504V146.549H173.225ZM147.094 141.037C153.768 140.19 157.237 136.737 157.254 133.334V132.338H161.57V133.334C161.554 136.87 164.94 140.19 171.764 141.037L170.137 144.324C165.023 143.561 161.271 141.419 159.362 138.397C157.437 141.402 153.685 143.577 148.588 144.324L147.094 141.037ZM148.721 155.348V152.061H169.871V162.055H165.654V155.348H148.721Z" fill="white"/>
<path d="M98.9727 52.7441V56.7344H101.24V58.1055H98.9727V62.043H97.2852V52.7441H98.9727ZM87.248 60.9004V53.9043H94.2793V55.2578H88.9004V59.5469C92.0029 59.5293 93.752 59.4414 95.7383 59.0371L95.8965 60.3906C93.7871 60.8213 91.9062 60.9004 88.4961 60.9004H87.248ZM88.584 65.4004C88.584 63.4756 90.623 62.3506 93.875 62.3418C97.0918 62.3506 99.0957 63.4756 99.0957 65.4004C99.0957 67.3428 97.0918 68.4678 93.875 68.459C90.623 68.4678 88.584 67.3428 88.584 65.4004ZM90.2363 65.4004C90.2275 66.4902 91.5986 67.1318 93.875 67.123C96.1074 67.1318 97.4873 66.4902 97.4961 65.4004C97.4873 64.3105 96.1074 63.6865 93.875 63.6953C91.5986 63.6865 90.2275 64.3105 90.2363 65.4004ZM115.197 52.7617V64.293H113.527V52.7617H115.197ZM102.225 60.7422C104.694 59.8281 106.153 57.5605 106.162 55.1875V53.623H107.867V55.1875C107.858 57.4902 109.317 59.5996 111.752 60.4434L110.891 61.7793C109.071 61.1025 107.727 59.7666 107.023 58.0615C106.329 59.8896 104.967 61.3486 103.121 62.0605L102.225 60.7422ZM104.896 68.1602V63.2031H106.584V66.8066H115.672V68.1602H104.896ZM122.826 53.8691C125.313 53.8604 127.106 55.3984 127.115 57.6133C127.106 59.8281 125.313 61.3662 122.826 61.375C120.348 61.3662 118.528 59.8281 118.537 57.6133C118.528 55.3984 120.348 53.8604 122.826 53.8691ZM117.781 63.748C120.646 63.748 124.619 63.7217 128.064 63.2207L128.188 64.4336C124.628 65.1191 120.805 65.1367 117.992 65.1367L117.781 63.748ZM120.189 57.6133C120.172 59.0107 121.297 59.916 122.826 59.916C124.355 59.916 125.48 59.0107 125.48 57.6133C125.48 56.2334 124.355 55.3105 122.826 55.3105C121.297 55.3105 120.172 56.2334 120.189 57.6133ZM129.049 68.5293V52.7441H130.719V68.5293H129.049ZM142.109 53.2715C144.482 53.2891 146.231 54.7393 146.24 56.8047C146.231 58.8789 144.482 60.3203 142.109 60.3203C139.71 60.3203 137.97 58.8789 137.961 56.8047C137.97 54.7393 139.71 53.2891 142.109 53.2715ZM139.596 56.8047C139.587 58.1055 140.659 58.9668 142.109 58.9668C143.551 58.9668 144.623 58.1055 144.623 56.8047C144.623 55.5215 143.551 54.6602 142.109 54.6777C140.659 54.6602 139.587 55.5215 139.596 56.8047ZM140.352 62.8164V61.4805H150.705V65.4531H142.021V66.9648H151.232V68.3008H140.404V64.2051H149.053V62.8164H140.352ZM149.035 60.7598V52.7441H150.705V60.7598H149.035ZM158.633 55.2578C158.624 57.3232 160.083 59.248 162.43 60.0215L161.533 61.3398C159.811 60.7334 158.519 59.5029 157.833 57.9473C157.147 59.7139 155.812 61.1025 153.975 61.7793L153.078 60.4434C155.539 59.5732 156.963 57.4727 156.98 55.1172V53.5703H158.633V55.2578ZM155.205 65.541C155.205 63.6953 157.218 62.6143 160.496 62.623C163.73 62.6143 165.717 63.6953 165.717 65.541C165.717 67.4043 163.73 68.4678 160.496 68.459C157.218 68.4678 155.205 67.4043 155.205 65.541ZM156.875 65.541C156.866 66.5781 158.22 67.1406 160.496 67.1582C162.755 67.1406 164.091 66.5781 164.082 65.541C164.091 64.5391 162.755 63.9414 160.496 63.9414C158.22 63.9414 156.866 64.5391 156.875 65.541ZM163.906 62.2539V52.7441H165.576V56.6992H167.861V58.1055H165.576V62.2539H163.906ZM175.93 53.0078C179.48 52.999 181.546 53.957 181.555 55.7148C181.546 57.4814 179.48 58.4395 175.93 58.4395C172.379 58.4395 170.296 57.4814 170.305 55.7148C170.296 53.957 172.379 52.999 175.93 53.0078ZM168.758 60.7422V59.4062H183.119V60.7422H168.758ZM170.48 63.2031V61.9551H181.309V65.6465H172.133V67.0527H181.748V68.3359H170.498V64.4336H179.656V63.2031H170.48ZM172.045 55.7148C172.036 56.6904 173.425 57.1914 175.93 57.1914C178.452 57.1914 179.841 56.6904 179.832 55.7148C179.841 54.7832 178.452 54.2383 175.93 54.2383C173.425 54.2383 172.036 54.7832 172.045 55.7148ZM201.084 52.7441V56.8223H203.369V58.2461H201.084V62.2363H199.414V52.7441H201.084ZM188.727 55.6797V54.3438H192.594V52.6211H194.264V54.3438H198.113V55.6797H188.727ZM189.588 59.1777C189.579 57.499 191.126 56.3652 193.42 56.3652C195.696 56.3652 197.234 57.499 197.234 59.1777C197.234 60.8828 195.688 61.999 193.42 62.0078C191.126 61.999 189.579 60.8828 189.588 59.1777ZM191.029 68.3008V63.0625H201.084V68.3008H191.029ZM191.205 59.1777C191.188 60.1533 192.084 60.7334 193.42 60.7422C194.756 60.7334 195.652 60.1533 195.67 59.1777C195.652 58.2373 194.756 57.6396 193.42 57.6484C192.084 57.6396 191.188 58.2373 191.205 59.1777ZM192.664 66.9473H199.432V64.3809H192.664V66.9473ZM208.168 54.6074C208.15 58.1318 207.711 61.7881 205.514 64.873L204.213 64.1348C206.05 61.6738 206.604 58.9404 206.718 55.9785H204.582V54.6074H208.168ZM207.746 65.0664C209.785 62.3242 210.163 59.0283 210.225 55.9785H208.643V54.6074H211.666C211.666 55.9346 211.631 57.376 211.464 58.8438H213.318V53.1484H214.9V67.7207H213.318V60.1973H211.271C210.919 62.1572 210.269 64.0996 209.047 65.8223L207.746 65.0664ZM216.289 68.4941V52.7441H217.889V68.4941H216.289ZM238.93 58.9316V60.3027H236.486V68.4766H234.816V52.7441H236.486V58.9316H238.93ZM224.814 64.5215V54.2734H226.467V63.1328C228.664 63.124 230.958 62.9395 233.463 62.4297L233.656 63.8359C230.958 64.3721 228.479 64.5303 226.115 64.5215H224.814ZM252.553 57.9297V59.2832H241.602V53.5176H243.271V57.9297H252.553ZM239.773 62.834V61.4629H254.188V62.834H247.736V68.4941H246.084V62.834H239.773ZM268.074 54.2559V55.8027C268.065 57.7451 268.065 59.9248 267.477 63.1504L265.789 62.9746C266.396 59.9248 266.396 57.6924 266.404 55.8027V55.6094H256.842V54.2559H268.074ZM255.33 66.3672V64.9785H260.797V59.4238H262.449V64.9785H269.691V66.3672H255.33ZM288.342 52.7617V61.498H286.672V52.7617H288.342ZM275.334 59.8809C277.795 59.0723 279.298 57.0332 279.307 54.8535V53.3242H281.012V54.8535C281.003 56.9365 282.515 58.8613 284.932 59.5996L284.123 60.918C282.277 60.3203 280.889 59.0811 280.168 57.4902C279.456 59.2041 278.05 60.5576 276.16 61.1992L275.334 59.8809ZM277.637 68.3008V66.9473H279.887V63.6953H277.777V62.3594H288.447V63.6953H286.373V66.9473H288.605V68.3008H277.637ZM281.539 66.9473H284.721V63.6953H281.539V66.9473ZM305.199 60.9707V62.3066H290.838V60.9707H305.199ZM292.385 56.418C292.376 54.4404 294.582 53.2627 298.01 53.2715C301.42 53.2627 303.626 54.4404 303.635 56.418C303.626 58.4043 301.42 59.6084 298.01 59.6172C294.582 59.6084 292.376 58.4043 292.385 56.418ZM292.648 68.1602V63.5898H294.336V66.8066H303.582V68.1602H292.648ZM294.107 56.418C294.099 57.5869 295.593 58.2461 298.01 58.2461C300.418 58.2461 301.921 57.5869 301.912 56.418C301.921 55.293 300.418 54.6074 298.01 54.6074C295.593 54.6074 294.099 55.293 294.107 56.418ZM318.664 52.7441V59.0195H321.107V60.4082H318.664V68.4766H316.994V52.7441H318.664ZM306.412 64.2754C310.358 62.3066 312.503 59.459 312.846 55.7852H307.203V54.3965H314.551C314.533 58.9492 312.529 63.0186 307.344 65.5762L306.412 64.2754ZM336.365 65.1367V66.5254H321.951V65.1367H325.396V61.0234C324.104 60.3115 323.313 59.1865 323.322 57.7715C323.313 55.293 325.748 53.667 329.123 53.6582C332.507 53.667 334.941 55.293 334.941 57.7715C334.941 59.1602 334.186 60.2764 332.92 60.9883V65.1367H336.365ZM324.939 57.7715C324.939 59.459 326.653 60.5576 329.123 60.5664C331.575 60.5576 333.315 59.459 333.324 57.7715C333.315 56.0752 331.575 54.9941 329.123 54.9941C326.653 54.9941 324.939 56.0752 324.939 57.7715ZM327.049 65.1367H331.232V61.6387C330.591 61.7881 329.879 61.8672 329.123 61.8672C328.385 61.8672 327.682 61.7881 327.049 61.6387V65.1367ZM340.092 63.2207C340.118 60.918 340.795 60.2148 341.955 59.4941C342.693 59.0459 343.256 58.3955 343.256 57.4727C343.256 56.374 342.412 55.6797 341.357 55.6797C340.408 55.6797 339.485 56.2598 339.406 57.5605H337.508C337.578 55.3193 339.266 54.0977 341.357 54.0977C343.643 54.0977 345.172 55.4688 345.172 57.4727C345.172 58.8877 344.495 59.8281 343.379 60.5137C342.324 61.1553 341.911 61.7881 341.885 63.2207V63.3262H340.092V63.2207ZM339.811 65.875C339.802 65.1895 340.373 64.627 341.059 64.627C341.735 64.627 342.298 65.1895 342.307 65.875C342.298 66.5605 341.735 67.1143 341.059 67.123C340.373 67.1143 339.802 66.5605 339.811 65.875Z" fill="white"/>
</svg>
