<svg width="723" height="215" viewBox="0 0 723 215" fill="none" xmlns="http://www.w3.org/2000/svg">
<rect width="723" height="215" rx="30" fill="#07B159"/>
<mask id="mask0_1336_1079" style="mask-type:alpha" maskUnits="userSpaceOnUse" x="0" y="0" width="723" height="215">
<rect width="723" height="215" rx="30" fill="#07B159"/>
</mask>
<g mask="url(#mask0_1336_1079)">
<path d="M526.207 140.765C526.207 140.765 516.707 151.656 512.25 147.185C512.25 147.185 507.415 142.714 515.416 131.446C515.416 131.446 525.098 116.45 515.976 115.426" stroke="#231815" stroke-width="2" stroke-linecap="round" stroke-linejoin="round"/>
<path d="M511.41 124.928C511.41 124.928 519.131 113.099 515.136 107.703C515.136 107.703 512.908 103.049 506.855 105.278" stroke="#231815" stroke-width="2" stroke-linecap="round" stroke-linejoin="round"/>
<path d="M504.979 118.606C504.979 118.606 511.117 104.45 503.579 101.477C503.579 101.477 500.132 100.271 497.526 103.804" stroke="#231815" stroke-width="2" stroke-linecap="round" stroke-linejoin="round"/>
<path d="M496.698 117.302C496.698 117.302 501.813 102.099 493.531 101.27C493.531 101.27 487.576 99.6989 487.015 112.088C487.015 112.088 487.113 126.524 484.592 133.504C484.592 133.504 472.206 168.614 493.434 179.042C493.434 179.042 513.723 190.956 540.541 163.217" stroke="#231815" stroke-width="2" stroke-linecap="round" stroke-linejoin="round"/>
<path d="M580.085 232.875C534.845 232.875 498.171 196.19 498.171 150.937C498.171 105.685 534.845 69 580.085 69C625.325 69 662 105.685 662 150.937C662 196.19 625.325 232.875 580.085 232.875Z" fill="#A271D2"/>
<path d="M600.838 158.162C600.838 158.162 591.338 169.053 586.881 164.582C586.881 164.582 582.046 160.111 590.048 148.842C590.048 148.842 599.73 133.846 590.608 132.823" stroke="#231815" stroke-width="2" stroke-linecap="round" stroke-linejoin="round"/>
<path d="M586.041 142.325C586.041 142.325 593.762 130.496 589.767 125.099C589.767 125.099 587.539 120.446 581.486 122.675" stroke="#231815" stroke-width="2" stroke-linecap="round" stroke-linejoin="round"/>
<path d="M579.611 136.002C579.611 136.002 585.749 121.846 578.21 118.874C578.21 118.874 574.763 117.668 572.157 121.201" stroke="#231815" stroke-width="2" stroke-linecap="round" stroke-linejoin="round"/>
<path d="M571.329 134.699C571.329 134.699 576.444 119.495 568.162 118.667C568.162 118.667 562.207 117.095 561.647 129.485C561.647 129.485 561.744 143.921 559.223 150.901C559.223 150.901 546.837 186.01 568.065 196.438C568.065 196.438 588.355 208.352 615.172 180.613" stroke="#231815" stroke-width="2" stroke-linecap="round" stroke-linejoin="round"/>
<path d="M536.766 110.042C533.712 110.042 531.236 107.566 531.236 104.511C531.236 101.457 533.712 98.9805 536.766 98.9805C539.819 98.9805 542.295 101.457 542.295 104.511C542.295 107.566 539.819 110.042 536.766 110.042Z" fill="#040000"/>
<path d="M565.374 114.708C562.32 114.708 559.845 112.232 559.845 109.177C559.845 106.123 562.32 103.646 565.374 103.646C568.427 103.646 570.903 106.123 570.903 109.177C570.903 112.232 568.427 114.708 565.374 114.708Z" fill="#040000"/>
<path d="M540.628 120.495C540.935 117.422 543.672 115.18 546.74 115.487C549.809 115.794 552.047 118.534 551.74 121.606L550.598 133.037C550.29 136.11 547.554 138.352 544.485 138.045C541.417 137.738 539.178 134.999 539.485 131.926L540.628 120.495Z" fill="#040000"/>
</g>
<path d="M122.555 114.049V117.535H94.8965V114.049H106.551V107.873H97.8184V93.0645H119.467V107.873H110.768V114.049H122.555ZM102.002 104.553H115.283V96.4512H102.002V104.553ZM149.582 90.8398V121.121H145.299V90.8398H149.582ZM125.178 103.723C125.161 97.1318 128.531 92.9648 133.18 92.9648C137.729 92.9648 141.115 97.1318 141.115 103.723C141.115 110.363 137.729 114.514 133.18 114.514C128.531 114.514 125.161 110.363 125.178 103.723ZM129.262 103.723C129.245 108.222 130.822 110.679 133.18 110.662C135.471 110.679 137.015 108.222 137.031 103.723C137.015 99.2402 135.471 96.7832 133.18 96.7832C130.822 96.7832 129.245 99.2402 129.262 103.723ZM164.822 99.0742C164.806 103.673 167.263 108.985 172.227 111.293L169.869 114.613C166.499 113.069 164.108 109.981 162.747 106.362C161.402 110.347 158.912 113.733 155.426 115.377L152.969 112.023C157.999 109.683 160.539 104.071 160.572 99.0742V97.2148H154.164V93.7617H170.898V97.2148H164.822V99.0742ZM173.256 121.055V90.8398H177.506V102.361H181.955V105.914H177.506V121.055H173.256ZM192.846 92.8652C197.644 92.8486 201.196 95.9365 201.213 100.27C201.196 104.619 197.644 107.69 192.846 107.707C188.081 107.69 184.429 104.619 184.445 100.27C184.429 95.9365 188.081 92.8486 192.846 92.8652ZM183.184 111.492C188.579 111.509 196.05 111.442 202.508 110.529L202.84 113.584C196.133 114.896 188.961 114.945 183.682 114.945L183.184 111.492ZM188.662 100.27C188.646 102.66 190.455 104.038 192.846 104.021C195.253 104.038 197.079 102.66 197.096 100.27C197.079 97.9121 195.253 96.5176 192.846 96.5176C190.455 96.5176 188.646 97.9121 188.662 100.27ZM204.234 121.121V90.8398H208.451V121.121H204.234ZM228.871 91.7363C233.47 91.7197 236.923 94.6084 236.939 98.6426C236.923 102.644 233.47 105.499 228.871 105.516C224.206 105.499 220.736 102.644 220.736 98.6426C220.736 94.6084 224.206 91.7197 228.871 91.7363ZM224.854 98.6426C224.82 100.801 226.53 102.079 228.871 102.096C231.162 102.079 232.839 100.801 232.855 98.6426C232.839 96.4678 231.162 95.1895 228.871 95.1895C226.547 95.1895 224.82 96.4678 224.854 98.6426ZM225.285 110.496V107.242H245.572V115.443H229.502V117.402H246.402V120.723H225.352V112.355H241.355V110.496H225.285ZM241.322 105.98V90.8398H245.572V105.98H241.322ZM258.256 91.7363C262.854 91.7197 266.308 94.6084 266.324 98.6426C266.308 102.644 262.854 105.499 258.256 105.516C253.591 105.499 250.121 102.644 250.121 98.6426C250.121 94.6084 253.591 91.7197 258.256 91.7363ZM254.238 98.6426C254.205 100.801 255.915 102.079 258.256 102.096C260.547 102.079 262.224 100.801 262.24 98.6426C262.224 96.4678 260.547 95.1895 258.256 95.1895C255.932 95.1895 254.205 96.4678 254.238 98.6426ZM254.67 110.496V107.242H274.957V115.443H258.887V117.402H275.787V120.723H254.736V112.355H270.74V110.496H254.67ZM270.707 105.98V90.8398H274.957V105.98H270.707ZM306.699 114.049V117.535H279.041V114.049H290.695V107.873H281.963V93.0645H303.611V107.873H294.912V114.049H306.699ZM286.146 104.553H299.428V96.4512H286.146V104.553ZM333.727 90.873V107.939H329.477V90.873H333.727ZM308.891 99.5391C308.891 95.2227 312.443 92.2344 317.158 92.2344C321.856 92.2344 325.409 95.2227 325.426 99.5391C325.409 103.689 321.856 106.744 317.158 106.744C312.443 106.744 308.891 103.689 308.891 99.5391ZM313.041 99.5391C313.008 101.78 314.734 103.191 317.158 103.191C319.516 103.191 321.226 101.78 321.242 99.5391C321.226 97.165 319.516 95.7871 317.158 95.7871C314.734 95.7871 313.008 97.165 313.041 99.5391ZM313.473 120.723V109.301H333.727V120.723H313.473ZM317.656 117.336H329.576V112.654H317.656V117.336ZM118.736 131.84V143.66H123.186V147.146H118.736V162.055H114.553V131.84H118.736ZM94.7305 139.742V136.355H101.57V132.305H105.82V136.355H112.494V139.742H94.7305ZM95.959 148.641C95.9424 144.424 99.2295 141.419 103.695 141.436C108.095 141.419 111.398 144.424 111.398 148.641C111.398 152.857 108.095 155.829 103.695 155.846C99.2295 155.829 95.9424 152.857 95.959 148.641ZM100.01 148.641C100.01 150.981 101.554 152.376 103.695 152.359C105.804 152.376 107.348 150.981 107.348 148.641C107.348 146.316 105.804 144.889 103.695 144.855C101.554 144.889 100.01 146.316 100.01 148.641ZM148.719 132.77V141.768H131.818V144.291H149.416V147.678H127.535V138.58H144.369V136.189H127.436V132.77H148.719ZM124.248 153.322V149.936H151.906V153.322H140.152V162.121H135.902V153.322H124.248ZM181.225 146.549V149.936H153.666V146.549H165.32V142.531H169.504V146.549H181.225ZM155.094 141.037C161.768 140.19 165.237 136.737 165.254 133.334V132.338H169.57V133.334C169.554 136.87 172.94 140.19 179.764 141.037L178.137 144.324C173.023 143.561 169.271 141.419 167.362 138.397C165.437 141.402 161.685 143.577 156.588 144.324L155.094 141.037ZM156.721 155.348V152.061H177.871V162.055H173.654V155.348H156.721Z" fill="white"/>
<path d="M108.973 52.7441V56.7344H111.24V58.1055H108.973V62.043H107.285V52.7441H108.973ZM97.248 60.9004V53.9043H104.279V55.2578H98.9004V59.5469C102.003 59.5293 103.752 59.4414 105.738 59.0371L105.896 60.3906C103.787 60.8213 101.906 60.9004 98.4961 60.9004H97.248ZM98.584 65.4004C98.584 63.4756 100.623 62.3506 103.875 62.3418C107.092 62.3506 109.096 63.4756 109.096 65.4004C109.096 67.3428 107.092 68.4678 103.875 68.459C100.623 68.4678 98.584 67.3428 98.584 65.4004ZM100.236 65.4004C100.228 66.4902 101.599 67.1318 103.875 67.123C106.107 67.1318 107.487 66.4902 107.496 65.4004C107.487 64.3105 106.107 63.6865 103.875 63.6953C101.599 63.6865 100.228 64.3105 100.236 65.4004ZM125.197 52.7617V64.293H123.527V52.7617H125.197ZM112.225 60.7422C114.694 59.8281 116.153 57.5605 116.162 55.1875V53.623H117.867V55.1875C117.858 57.4902 119.317 59.5996 121.752 60.4434L120.891 61.7793C119.071 61.1025 117.727 59.7666 117.023 58.0615C116.329 59.8896 114.967 61.3486 113.121 62.0605L112.225 60.7422ZM114.896 68.1602V63.2031H116.584V66.8066H125.672V68.1602H114.896ZM132.826 53.8691C135.313 53.8604 137.106 55.3984 137.115 57.6133C137.106 59.8281 135.313 61.3662 132.826 61.375C130.348 61.3662 128.528 59.8281 128.537 57.6133C128.528 55.3984 130.348 53.8604 132.826 53.8691ZM127.781 63.748C130.646 63.748 134.619 63.7217 138.064 63.2207L138.188 64.4336C134.628 65.1191 130.805 65.1367 127.992 65.1367L127.781 63.748ZM130.189 57.6133C130.172 59.0107 131.297 59.916 132.826 59.916C134.355 59.916 135.48 59.0107 135.48 57.6133C135.48 56.2334 134.355 55.3105 132.826 55.3105C131.297 55.3105 130.172 56.2334 130.189 57.6133ZM139.049 68.5293V52.7441H140.719V68.5293H139.049ZM159.914 52.7441V59.125H162.445V60.5137H159.914V68.4941H158.262V52.7441H159.914ZM147.557 56.5762V55.2051H151.441V52.9551H153.111V55.2051H156.891V56.5762H147.557ZM148.365 61.3926C148.365 59.248 150.018 57.7363 152.285 57.7363C154.544 57.7363 156.196 59.248 156.205 61.3926C156.196 63.5547 154.544 65.0576 152.285 65.0664C150.018 65.0576 148.365 63.5547 148.365 61.3926ZM149.965 61.3926C149.956 62.7637 150.94 63.6777 152.285 63.6602C153.621 63.6777 154.597 62.7637 154.605 61.3926C154.597 60.0479 153.621 59.1162 152.285 59.1074C150.94 59.1162 149.956 60.0479 149.965 61.3926ZM175.893 53.3242V57.6133H166.611V59.4238H176.227V60.7773H164.941V56.3301H174.188V54.6777H164.889V53.3242H175.893ZM163.184 63.6074V62.2715H177.598V63.6074H171.199V68.5293H169.529V63.6074H163.184ZM193.154 59.9688V61.252H178.74V59.9688H193.154ZM180.445 63.5547V62.3594H191.379V65.8223H182.133V67.123H191.871V68.3008H180.463V64.7148H189.727V63.5547H180.445ZM180.551 54.3262V53.1484H191.344V56.5586H182.238V57.7539H191.607V58.9316H180.586V55.4512H189.674V54.3262H180.551ZM211.084 52.7441V56.8223H213.369V58.2461H211.084V62.2363H209.414V52.7441H211.084ZM198.727 55.6797V54.3438H202.594V52.6211H204.264V54.3438H208.113V55.6797H198.727ZM199.588 59.1777C199.579 57.499 201.126 56.3652 203.42 56.3652C205.696 56.3652 207.234 57.499 207.234 59.1777C207.234 60.8828 205.688 61.999 203.42 62.0078C201.126 61.999 199.579 60.8828 199.588 59.1777ZM201.029 68.3008V63.0625H211.084V68.3008H201.029ZM201.205 59.1777C201.188 60.1533 202.084 60.7334 203.42 60.7422C204.756 60.7334 205.652 60.1533 205.67 59.1777C205.652 58.2373 204.756 57.6396 203.42 57.6484C202.084 57.6396 201.188 58.2373 201.205 59.1777ZM202.664 66.9473H209.432V64.3809H202.664V66.9473ZM218.168 54.6074C218.15 58.1318 217.711 61.7881 215.514 64.873L214.213 64.1348C216.05 61.6738 216.604 58.9404 216.718 55.9785H214.582V54.6074H218.168ZM217.746 65.0664C219.785 62.3242 220.163 59.0283 220.225 55.9785H218.643V54.6074H221.666C221.666 55.9346 221.631 57.376 221.464 58.8438H223.318V53.1484H224.9V67.7207H223.318V60.1973H221.271C220.919 62.1572 220.269 64.0996 219.047 65.8223L217.746 65.0664ZM226.289 68.4941V52.7441H227.889V68.4941H226.289ZM242.092 52.7441V59.125H244.623V60.5137H242.092V68.4941H240.439V52.7441H242.092ZM229.734 56.5762V55.2051H233.619V52.9551H235.289V55.2051H239.068V56.5762H229.734ZM230.543 61.3926C230.543 59.248 232.195 57.7363 234.463 57.7363C236.722 57.7363 238.374 59.248 238.383 61.3926C238.374 63.5547 236.722 65.0576 234.463 65.0664C232.195 65.0576 230.543 63.5547 230.543 61.3926ZM232.143 61.3926C232.134 62.7637 233.118 63.6777 234.463 63.6602C235.799 63.6777 236.774 62.7637 236.783 61.3926C236.774 60.0479 235.799 59.1162 234.463 59.1074C233.118 59.1162 232.134 60.0479 232.143 61.3926ZM258.123 54.2559V55.8027C258.114 57.7451 258.114 59.9248 257.525 63.1504L255.838 62.9746C256.444 59.9248 256.444 57.6924 256.453 55.8027V55.6094H246.891V54.2559H258.123ZM245.379 66.3672V64.9785H250.846V59.4238H252.498V64.9785H259.74V66.3672H245.379ZM278.391 52.7617V61.498H276.721V52.7617H278.391ZM265.383 59.8809C267.844 59.0723 269.347 57.0332 269.355 54.8535V53.3242H271.061V54.8535C271.052 56.9365 272.563 58.8613 274.98 59.5996L274.172 60.918C272.326 60.3203 270.938 59.0811 270.217 57.4902C269.505 59.2041 268.099 60.5576 266.209 61.1992L265.383 59.8809ZM267.686 68.3008V66.9473H269.936V63.6953H267.826V62.3594H278.496V63.6953H276.422V66.9473H278.654V68.3008H267.686ZM271.588 66.9473H274.77V63.6953H271.588V66.9473ZM295.248 60.9707V62.3066H280.887V60.9707H295.248ZM282.434 56.418C282.425 54.4404 284.631 53.2627 288.059 53.2715C291.469 53.2627 293.675 54.4404 293.684 56.418C293.675 58.4043 291.469 59.6084 288.059 59.6172C284.631 59.6084 282.425 58.4043 282.434 56.418ZM282.697 68.1602V63.5898H284.385V66.8066H293.631V68.1602H282.697ZM284.156 56.418C284.147 57.5869 285.642 58.2461 288.059 58.2461C290.467 58.2461 291.97 57.5869 291.961 56.418C291.97 55.293 290.467 54.6074 288.059 54.6074C285.642 54.6074 284.147 55.293 284.156 56.418ZM308.713 52.7441V59.0195H311.156V60.4082H308.713V68.4766H307.043V52.7441H308.713ZM296.461 64.2754C300.407 62.3066 302.552 59.459 302.895 55.7852H297.252V54.3965H304.6C304.582 58.9492 302.578 63.0186 297.393 65.5762L296.461 64.2754ZM326.414 65.1367V66.5254H312V65.1367H315.445V61.0234C314.153 60.3115 313.362 59.1865 313.371 57.7715C313.362 55.293 315.797 53.667 319.172 53.6582C322.556 53.667 324.99 55.293 324.99 57.7715C324.99 59.1602 324.234 60.2764 322.969 60.9883V65.1367H326.414ZM314.988 57.7715C314.988 59.459 316.702 60.5576 319.172 60.5664C321.624 60.5576 323.364 59.459 323.373 57.7715C323.364 56.0752 321.624 54.9941 319.172 54.9941C316.702 54.9941 314.988 56.0752 314.988 57.7715ZM317.098 65.1367H321.281V61.6387C320.64 61.7881 319.928 61.8672 319.172 61.8672C318.434 61.8672 317.73 61.7881 317.098 61.6387V65.1367ZM330.141 63.2207C330.167 60.918 330.844 60.2148 332.004 59.4941C332.742 59.0459 333.305 58.3955 333.305 57.4727C333.305 56.374 332.461 55.6797 331.406 55.6797C330.457 55.6797 329.534 56.2598 329.455 57.5605H327.557C327.627 55.3193 329.314 54.0977 331.406 54.0977C333.691 54.0977 335.221 55.4688 335.221 57.4727C335.221 58.8877 334.544 59.8281 333.428 60.5137C332.373 61.1553 331.96 61.7881 331.934 63.2207V63.3262H330.141V63.2207ZM329.859 65.875C329.851 65.1895 330.422 64.627 331.107 64.627C331.784 64.627 332.347 65.1895 332.355 65.875C332.347 66.5605 331.784 67.1143 331.107 67.123C330.422 67.1143 329.851 66.5605 329.859 65.875Z" fill="white"/>
</svg>
