<svg width="36" height="36" viewBox="0 0 36 36" fill="none" xmlns="http://www.w3.org/2000/svg">
<path d="M15 24H21C21.8285 24 22.5 24.6715 22.5 25.5C22.5 26.2692 21.921 26.9032 21.1749 26.9899L21 27H15C14.1716 27 13.5 26.3284 13.5 25.5C13.5 24.7308 14.0791 24.0968 14.8251 24.0101L15 24ZM12 16.5H24C24.8284 16.5 25.5 17.1715 25.5 18C25.5 18.7692 24.921 19.4033 24.1749 19.49L24 19.5H12C11.1716 19.5 10.5 18.8285 10.5 18C10.5 17.2308 11.0791 16.5967 11.8251 16.51L12 16.5ZM7.5 9H28.5C29.3284 9 30 9.67158 30 10.5C30 11.2693 29.421 11.9033 28.6749 11.9899L28.5 12H7.5C6.67158 12 6 11.3284 6 10.5C6 9.73074 6.57906 9.09674 7.32507 9.0101L7.5 9Z" fill="#212121"/>
</svg>
