<svg width="15" height="15" viewBox="0 0 15 15" fill="none" xmlns="http://www.w3.org/2000/svg">
<path d="M11.3488 10.5512L10.6069 11.2849C10.0601 11.8215 9.35067 12.5115 8.47823 13.3549C7.9331 13.8821 7.06823 13.882 6.52317 13.3548L4.3412 11.2324C4.06698 10.9631 3.83744 10.7361 3.65254 10.5512C1.52728 8.42594 1.52728 4.98018 3.65254 2.85493C5.77779 0.729672 9.22354 0.729672 11.3488 2.85493C13.474 4.98018 13.474 8.42594 11.3488 10.5512ZM9.06329 6.87475C9.06329 6.01172 8.36367 5.3121 7.50067 5.3121C6.63767 5.3121 5.93803 6.01172 5.93803 6.87475C5.93803 7.73775 6.63767 8.43737 7.50067 8.43737C8.36367 8.43737 9.06329 7.73775 9.06329 6.87475Z" fill="#747474"/>
</svg>
