<svg width="40" height="40" viewBox="0 0 40 40" fill="none" xmlns="http://www.w3.org/2000/svg">
<circle cx="20" cy="20" r="20" fill="#D9D9D9"/>
<path d="M20 10.4426V18.1249L20.0006 18.7561L29.3025 18.7549L27.1495 16.6002C26.8168 16.2673 26.7865 15.7465 27.0589 15.3795L27.1498 15.2744C27.4826 14.9416 28.0034 14.9114 28.3704 15.1838L28.4755 15.2746L32.2213 19.0216C32.5538 19.3542 32.5843 19.8745 32.3125 20.2415L32.2219 20.3466L28.4761 24.1009C28.1105 24.4675 27.5169 24.4681 27.1504 24.1025C26.8171 23.77 26.7863 23.2492 27.0581 22.8819L27.1489 22.7766L29.29 20.6299L20.0006 20.6311L20 29.0624C20 29.6454 19.4735 30.087 18.8995 29.9856L8.27444 28.109C7.82651 28.0299 7.5 27.6406 7.5 27.1857V12.1874C7.5 11.7283 7.83251 11.3367 8.28559 11.2623L18.9106 9.5175C19.4814 9.42377 20 9.8642 20 10.4426ZM15.6277 19.3749C14.9359 19.3749 14.375 19.9357 14.375 20.6276C14.375 21.3195 14.9359 21.8802 15.6277 21.8802C16.3195 21.8802 16.8804 21.3195 16.8804 20.6276C16.8804 19.9357 16.3195 19.3749 15.6277 19.3749ZM21.25 28.1265L22.2065 28.1267L22.3338 28.1181C22.7919 28.0559 23.1448 27.6629 23.144 27.1876L23.135 21.8749H21.25V28.1265ZM21.2525 17.4999L21.25 15.9066V11.2499L22.1816 11.2499C22.6556 11.2499 23.0476 11.6018 23.1104 12.0588L23.1191 12.1858L23.1275 17.4999H21.2525Z" fill="#212121"/>
</svg>
