<svg width="70" height="70" viewBox="0 0 70 70" fill="none" xmlns="http://www.w3.org/2000/svg">
<g filter="url(#filter0_d_2300_6185)">
<rect x="5" y="5" width="60" height="60" rx="30" fill="#FF7F1E"/>
</g>
<path d="M35.6101 17.7041C36.9054 17.7196 38.1956 17.8754 39.4598 18.1689C40.0116 18.297 40.4244 18.7759 40.4871 19.3608L40.7874 22.1652C40.9235 23.4528 41.968 24.4281 43.2132 24.4295C43.5479 24.43 43.879 24.3575 44.1883 24.215L46.66 23.0849C47.1741 22.8499 47.7748 22.978 48.1584 23.4046C49.9446 25.3902 51.2749 27.7715 52.0492 30.3695C52.2162 30.9297 52.024 31.5384 51.5705 31.8865L49.3796 33.5672C48.7545 34.0452 48.3855 34.8041 48.3855 35.6113C48.3855 36.4184 48.7545 37.1773 49.381 37.6564L51.5736 39.3377C52.0273 39.6856 52.2197 40.2945 52.0528 40.8549C51.2788 43.4524 49.9492 45.8335 48.1641 47.8194C47.7808 48.2459 47.1806 48.3745 46.6665 48.1399L44.1848 47.0083C43.4747 46.6848 42.6594 46.7322 41.9883 47.1359C41.3173 47.5395 40.8709 48.2512 40.7856 49.0529L40.4872 51.8571C40.4256 52.4353 40.0219 52.911 39.478 53.0456C36.922 53.6786 34.2589 53.6786 31.7028 53.0456C31.159 52.911 30.7551 52.4353 30.6936 51.8571L30.3957 49.0572C30.3082 48.2569 29.8609 47.5474 29.1905 47.1451C28.5201 46.7429 27.706 46.6957 26.9983 47.0173L24.5161 48.1491C24.0019 48.3836 23.4016 48.2551 23.0182 47.8282C21.232 45.8401 19.9024 43.456 19.1295 40.8558C18.963 40.2958 19.1554 39.6872 19.6089 39.3396L21.803 37.6571C22.428 37.1792 22.7971 36.4202 22.7971 35.6132C22.7971 34.8059 22.428 34.047 21.8022 33.5685L19.6095 31.8889C19.1553 31.5411 18.9628 30.9319 19.1298 30.3713C19.9041 27.7734 21.2344 25.392 23.0206 23.4065C23.4043 22.9799 24.0049 22.8517 24.519 23.0868L26.9903 24.2166C27.7013 24.5415 28.5188 24.4924 29.1929 24.0825C29.864 23.6773 30.3109 22.9649 30.3971 22.163L30.6972 19.3608C30.7599 18.7756 31.173 18.2965 31.7253 18.1687C32.9911 17.8757 34.2827 17.72 35.6101 17.7041ZM35.5881 30.102C32.6641 30.102 30.2939 32.569 30.2939 35.6123C30.2939 38.6554 32.6641 41.1225 35.5881 41.1225C38.5118 41.1225 40.8822 38.6554 40.8822 35.6123C40.8822 32.569 38.5118 30.102 35.5881 30.102Z" fill="white"/>
<defs>
<filter id="filter0_d_2300_6185" x="0" y="0" width="70" height="70" filterUnits="userSpaceOnUse" color-interpolation-filters="sRGB">
<feFlood flood-opacity="0" result="BackgroundImageFix"/>
<feColorMatrix in="SourceAlpha" type="matrix" values="0 0 0 0 0 0 0 0 0 0 0 0 0 0 0 0 0 0 127 0" result="hardAlpha"/>
<feOffset/>
<feGaussianBlur stdDeviation="2.5"/>
<feComposite in2="hardAlpha" operator="out"/>
<feColorMatrix type="matrix" values="0 0 0 0 0 0 0 0 0 0 0 0 0 0 0 0 0 0 0.1 0"/>
<feBlend mode="normal" in2="BackgroundImageFix" result="effect1_dropShadow_2300_6185"/>
<feBlend mode="normal" in="SourceGraphic" in2="effect1_dropShadow_2300_6185" result="shape"/>
</filter>
</defs>
</svg>
