<svg width="40" height="40" viewBox="0 0 40 40" fill="none" xmlns="http://www.w3.org/2000/svg">
<circle cx="20" cy="20" r="20" fill="#D9D9D9"/>
<path d="M20.0145 7.8125C20.932 7.82308 21.8459 7.92908 22.7414 8.1288C23.1323 8.21599 23.4246 8.54189 23.469 8.93995L23.6818 10.8485C23.7781 11.7248 24.518 12.3886 25.4 12.3895C25.6371 12.3899 25.8716 12.3405 26.0908 12.2435L27.8415 11.4745C28.2056 11.3145 28.6311 11.4017 28.9029 11.692C30.1681 13.0433 31.1104 14.6639 31.6589 16.432C31.7771 16.8132 31.641 17.2275 31.3198 17.4644L29.7679 18.6082C29.3251 18.9335 29.0638 19.45 29.0638 19.9994C29.0638 20.5486 29.3251 21.0651 29.7689 21.3911L31.322 22.5354C31.6434 22.7721 31.7796 23.1865 31.6614 23.5679C31.1131 25.3356 30.1714 26.9561 28.9069 28.3076C28.6354 28.5979 28.2103 28.6854 27.8461 28.5258L26.0883 27.7556C25.5853 27.5355 25.0078 27.5678 24.5324 27.8425C24.0571 28.1171 23.7409 28.6015 23.6805 29.1471L23.4691 31.0555C23.4255 31.449 23.1395 31.7728 22.7543 31.8644C20.9438 32.2951 19.0574 32.2951 17.2468 31.8644C16.8617 31.7728 16.5756 31.449 16.532 31.0555L16.321 29.15C16.259 28.6054 15.9422 28.1225 15.4673 27.8487C14.9924 27.575 14.4158 27.5429 13.9145 27.7618L12.1562 28.532C11.792 28.6916 11.3668 28.6041 11.0952 28.3136C9.83004 26.9606 8.88826 25.3381 8.34077 23.5685C8.22284 23.1874 8.35909 22.7732 8.68033 22.5366L10.2345 21.3916C10.6772 21.0664 10.9386 20.5499 10.9386 20.0006C10.9386 19.4512 10.6772 18.9347 10.2339 18.6091L8.68072 17.4661C8.35902 17.2293 8.22264 16.8147 8.34098 16.4332C8.88942 14.6652 9.83169 13.0445 11.0969 11.6933C11.3688 11.4029 11.7942 11.3157 12.1583 11.4757L13.9088 12.2447C14.4125 12.4657 14.9915 12.4323 15.469 12.1534C15.9444 11.8776 16.2609 11.3928 16.322 10.847L16.5346 8.93995C16.579 8.54169 16.8716 8.21567 17.2628 8.12867C18.1594 7.92927 19.0743 7.82331 20.0145 7.8125ZM19.9989 16.2499C17.9278 16.2499 16.2489 17.9289 16.2489 20C16.2489 22.071 17.9278 23.75 19.9989 23.75C22.0699 23.75 23.7489 22.071 23.7489 20C23.7489 17.9289 22.0699 16.2499 19.9989 16.2499Z" fill="#212121"/>
</svg>
