<svg width="60" height="60" viewBox="0 0 60 60" fill="none" xmlns="http://www.w3.org/2000/svg">
<circle cx="30" cy="30" r="30" fill="#F5F2F0"/>
<path d="M38.6317 32.9998C40.4949 32.9998 42.0051 34.51 42.0051 36.3732V37.2363C42.0051 38.5777 41.5257 39.8749 40.6534 40.894C38.2993 43.6443 34.7185 45.0015 30.0006 45.0015C25.2817 45.0015 21.7027 43.6438 19.3533 40.8924C18.4836 39.874 18.0059 38.5788 18.0059 37.2396V36.3732C18.0059 34.51 19.5161 32.9998 21.3792 32.9998H38.6317ZM38.6317 35.2498H21.3792C20.7588 35.2498 20.2559 35.7528 20.2559 36.3732V37.2396C20.2559 38.0431 20.5425 38.8203 21.0643 39.4312C22.9443 41.6328 25.8931 42.7515 30.0006 42.7515C34.108 42.7515 37.0594 41.6328 38.944 39.4309C39.4675 38.8194 39.7551 38.041 39.7551 37.2363V36.3732C39.7551 35.7528 39.2521 35.2498 38.6317 35.2498ZM30.0006 15.0068C34.1427 15.0068 37.5006 18.3647 37.5006 22.5068C37.5006 26.649 34.1427 30.0069 30.0006 30.0069C25.8584 30.0069 22.5005 26.649 22.5005 22.5068C22.5005 18.3647 25.8584 15.0068 30.0006 15.0068ZM30.0006 17.2568C27.1011 17.2568 24.7505 19.6074 24.7505 22.5068C24.7505 25.4063 27.1011 27.7569 30.0006 27.7569C32.9001 27.7569 35.2506 25.4063 35.2506 22.5068C35.2506 19.6074 32.9001 17.2568 30.0006 17.2568Z" fill="#212121"/>
</svg>
