<svg width="70" height="70" viewBox="0 0 70 70" fill="none" xmlns="http://www.w3.org/2000/svg">
<g filter="url(#filter0_d_1164_1356)">
<rect x="5" y="5" width="60" height="60" rx="30" fill="white"/>
</g>
<path d="M35.6098 17.7041C36.9051 17.7196 38.1952 17.8754 39.4595 18.1689C40.0113 18.297 40.4241 18.7759 40.4867 19.3608L40.7871 22.1652C40.9231 23.4528 41.9676 24.4281 43.2128 24.4295C43.5476 24.43 43.8786 24.3575 44.188 24.215L46.6596 23.0849C47.1737 22.8499 47.7744 22.978 48.1581 23.4046C49.9443 25.3902 51.2745 27.7715 52.0489 30.3695C52.2158 30.9297 52.0236 31.5384 51.5701 31.8865L49.3792 33.5672C48.7542 34.0452 48.3852 34.8041 48.3852 35.6113C48.3852 36.4184 48.7542 37.1773 49.3806 37.6564L51.5733 39.3377C52.027 39.6856 52.2193 40.2945 52.0524 40.8549C51.2784 43.4524 49.9489 45.8335 48.1637 47.8194C47.7804 48.2459 47.1802 48.3745 46.6662 48.1399L44.1845 47.0083C43.4743 46.6848 42.6591 46.7322 41.9879 47.1359C41.317 47.5395 40.8705 48.2512 40.7853 49.0529L40.4869 51.8571C40.4253 52.4353 40.0215 52.911 39.4776 53.0456C36.9216 53.6786 34.2585 53.6786 31.7024 53.0456C31.1587 52.911 30.7548 52.4353 30.6933 51.8571L30.3953 49.0572C30.3078 48.2569 29.8606 47.5474 29.1901 47.1451C28.5197 46.7429 27.7056 46.6957 26.998 47.0173L24.5157 48.1491C24.0016 48.3836 23.4012 48.2551 23.0178 47.8282C21.2317 45.8401 19.9021 43.456 19.1292 40.8558C18.9627 40.2958 19.155 39.6872 19.6086 39.3396L21.8027 37.6571C22.4276 37.1792 22.7967 36.4202 22.7967 35.6132C22.7967 34.8059 22.4276 34.047 21.8018 33.5685L19.6091 31.8889C19.1549 31.5411 18.9624 30.9319 19.1295 30.3713C19.9037 27.7734 21.234 25.392 23.0202 23.4065C23.404 22.9799 24.0046 22.8517 24.5187 23.0868L26.9899 24.2166C27.701 24.5415 28.5185 24.4924 29.1925 24.0825C29.8637 23.6773 30.3105 22.9649 30.3968 22.163L30.6969 19.3608C30.7596 18.7756 31.1727 18.2965 31.7249 18.1687C32.9908 17.8757 34.2823 17.72 35.6098 17.7041ZM35.5877 30.102C32.6638 30.102 30.2936 32.569 30.2936 35.6123C30.2936 38.6554 32.6638 41.1225 35.5877 41.1225C38.5115 41.1225 40.8818 38.6554 40.8818 35.6123C40.8818 32.569 38.5115 30.102 35.5877 30.102Z" fill="#212121"/>
<defs>
<filter id="filter0_d_1164_1356" x="0" y="0" width="70" height="70" filterUnits="userSpaceOnUse" color-interpolation-filters="sRGB">
<feFlood flood-opacity="0" result="BackgroundImageFix"/>
<feColorMatrix in="SourceAlpha" type="matrix" values="0 0 0 0 0 0 0 0 0 0 0 0 0 0 0 0 0 0 127 0" result="hardAlpha"/>
<feOffset/>
<feGaussianBlur stdDeviation="2.5"/>
<feComposite in2="hardAlpha" operator="out"/>
<feColorMatrix type="matrix" values="0 0 0 0 0 0 0 0 0 0 0 0 0 0 0 0 0 0 0.1 0"/>
<feBlend mode="normal" in2="BackgroundImageFix" result="effect1_dropShadow_1164_1356"/>
<feBlend mode="normal" in="SourceGraphic" in2="effect1_dropShadow_1164_1356" result="shape"/>
</filter>
</defs>
</svg>
