<svg width="45" height="30" viewBox="0 0 45 30" fill="none" xmlns="http://www.w3.org/2000/svg">
<mask id="mask0_2300_6312" style="mask-type:alpha" maskUnits="userSpaceOnUse" x="0" y="0" width="30" height="30">
<rect width="30" height="30" fill="#D9D9D9"/>
</mask>
<g mask="url(#mask0_2300_6312)">
<path d="M13.125 28.0199V18.7964H10V10.8905C10 10.1658 10.2448 9.54542 10.7344 9.02935C11.224 8.51327 11.8125 8.25523 12.5 8.25523H17.5C18.1875 8.25523 18.776 8.51327 19.2656 9.02935C19.7552 9.54542 20 10.1658 20 10.8905V18.7964H16.875V28.0199H13.125ZM15 6.93758C14.3125 6.93758 13.724 6.67954 13.2344 6.16346C12.7448 5.64738 12.5 5.02699 12.5 4.30229C12.5 3.57758 12.7448 2.95719 13.2344 2.44111C13.724 1.92503 14.3125 1.66699 15 1.66699C15.6875 1.66699 16.276 1.92503 16.7656 2.44111C17.2552 2.95719 17.5 3.57758 17.5 4.30229C17.5 5.02699 17.2552 5.64738 16.7656 6.16346C16.276 6.67954 15.6875 6.93758 15 6.93758Z" fill="#1C1B1F"/>
</g>
<mask id="mask1_2300_6312" style="mask-type:alpha" maskUnits="userSpaceOnUse" x="14" y="0" width="31" height="30">
<rect x="14.168" width="30" height="30" fill="#D9D9D9"/>
</mask>
<g mask="url(#mask1_2300_6312)">
<path d="M26.877 28.0199V20.114H22.502L26.3145 9.96817C26.5228 9.44111 26.8457 9.02385 27.2832 8.7164C27.7207 8.40895 28.2103 8.25523 28.752 8.25523C29.2936 8.25523 29.7832 8.40895 30.2207 8.7164C30.6582 9.02385 30.9811 9.44111 31.1895 9.96817L35.002 20.114H30.627V28.0199H26.877ZM28.752 6.93758C28.0645 6.93758 27.4759 6.67954 26.9863 6.16346C26.4967 5.64738 26.252 5.02699 26.252 4.30229C26.252 3.57758 26.4967 2.95719 26.9863 2.44111C27.4759 1.92503 28.0645 1.66699 28.752 1.66699C29.4395 1.66699 30.028 1.92503 30.5176 2.44111C31.0072 2.95719 31.252 3.57758 31.252 4.30229C31.252 5.02699 31.0072 5.64738 30.5176 6.16346C30.028 6.67954 29.4395 6.93758 28.752 6.93758Z" fill="#1C1B1F"/>
</g>
</svg>
