<svg width="29" height="16" viewBox="0 0 29 16" fill="none" xmlns="http://www.w3.org/2000/svg">
<path d="M2.50586 12H0.677734L4.74023 0.6875H6.72461L10.8027 12H8.97461L7.94336 9.01562H3.53711L2.50586 12ZM4.0293 7.57812H7.44336L5.77148 2.75H5.69336L4.0293 7.57812ZM15.5215 15.3594C13.3809 15.3594 11.9668 14.4141 11.8184 12.8281H13.5215C13.6855 13.6328 14.4355 14.0234 15.5371 14.0156C16.8652 14.0234 17.7012 13.4453 17.709 12.125V10.4531H17.5996C17.3027 11 16.6934 11.875 15.1309 11.875C13.1309 11.875 11.584 10.3828 11.584 7.67188C11.584 4.96094 13.1074 3.40625 15.1465 3.40625C16.7246 3.40625 17.3027 4.35938 17.6152 4.89062H17.7246V3.51562H19.3496V12.1875C19.3574 14.3672 17.709 15.3594 15.5215 15.3594ZM13.2871 7.70312C13.2793 9.36719 14.0449 10.4922 15.5059 10.5C16.9277 10.4922 17.7246 9.45312 17.7246 7.70312C17.7246 5.98438 16.9434 4.82031 15.5059 4.82812C14.0293 4.82031 13.2793 6.07812 13.2871 7.70312ZM25.0371 12.1719C22.5371 12.1719 20.998 10.4453 21.0059 7.8125C20.998 5.20312 22.5605 3.40625 24.9277 3.40625C26.8574 3.40625 28.6934 4.60156 28.6934 7.67188V8.26562H22.6621C22.709 9.88281 23.6621 10.7969 25.0527 10.7969C25.998 10.7969 26.6152 10.3906 26.8965 9.875H28.584C28.209 11.25 26.9043 12.1719 25.0371 12.1719ZM22.6699 7.01562H27.0527C27.0527 5.72656 26.2168 4.77344 24.9434 4.78125C23.6074 4.77344 22.7402 5.82031 22.6699 7.01562Z" fill="black"/>
</svg>
