<svg width="30" height="20" viewBox="0 0 30 20" fill="none" xmlns="http://www.w3.org/2000/svg">
<mask id="mask0_2134_5410" style="mask-type:alpha" maskUnits="userSpaceOnUse" x="0" y="0" width="21" height="20">
<rect x="0.380859" width="20" height="20" fill="#D9D9D9"/>
</mask>
<g mask="url(#mask0_2134_5410)">
<path d="M9.13021 19.7096V13.0061H7.04688V7.26017C7.04688 6.73346 7.21007 6.28257 7.53646 5.90749C7.86285 5.53241 8.25521 5.34488 8.71354 5.34488H12.0469C12.5052 5.34488 12.8976 5.53241 13.224 5.90749C13.5503 6.28257 13.7135 6.73346 13.7135 7.26017V13.0061H11.6302V19.7096H9.13021ZM10.3802 4.38723C9.92188 4.38723 9.52951 4.19969 9.20313 3.82461C8.87674 3.44953 8.71354 2.99864 8.71354 2.47193C8.71354 1.94523 8.87674 1.49434 9.20313 1.11926C9.52951 0.74418 9.92188 0.556641 10.3802 0.556641C10.8385 0.556641 11.2309 0.74418 11.5573 1.11926C11.8837 1.49434 12.0469 1.94523 12.0469 2.47193C12.0469 2.99864 11.8837 3.44953 11.5573 3.82461C11.2309 4.19969 10.8385 4.38723 10.3802 4.38723Z" fill="#1C1B1F"/>
</g>
<mask id="mask1_2134_5410" style="mask-type:alpha" maskUnits="userSpaceOnUse" x="9" y="0" width="21" height="20">
<rect x="9.54883" width="20" height="20" fill="#D9D9D9"/>
</mask>
<g mask="url(#mask1_2134_5410)">
<path d="M18.2975 19.7096V13.9637H15.3809L17.9225 6.58982C18.0614 6.20676 18.2767 5.9035 18.5684 5.68005C18.86 5.4566 19.1864 5.34488 19.5475 5.34488C19.9086 5.34488 20.235 5.4566 20.5267 5.68005C20.8184 5.9035 21.0336 6.20676 21.1725 6.58982L23.7142 13.9637H20.7975V19.7096H18.2975ZM19.5475 4.38723C19.0892 4.38723 18.6968 4.19969 18.3704 3.82461C18.0441 3.44953 17.8809 2.99864 17.8809 2.47193C17.8809 1.94523 18.0441 1.49434 18.3704 1.11926C18.6968 0.74418 19.0892 0.556641 19.5475 0.556641C20.0059 0.556641 20.3982 0.74418 20.7246 1.11926C21.051 1.49434 21.2142 1.94523 21.2142 2.47193C21.2142 2.99864 21.051 3.44953 20.7246 3.82461C20.3982 4.19969 20.0059 4.38723 19.5475 4.38723Z" fill="#1C1B1F"/>
</g>
</svg>
