<svg width="21" height="20" viewBox="0 0 21 20" fill="none" xmlns="http://www.w3.org/2000/svg">
<path d="M13.0885 11.2503H9.75521C9.41021 11.2503 9.13021 10.9703 9.13021 10.6253V5.62533C9.13021 5.28033 9.41021 5.00033 9.75521 5.00033C10.1002 5.00033 10.3802 5.28033 10.3802 5.62533V10.0003H13.0885C13.4335 10.0003 13.7135 10.2803 13.7135 10.6253C13.7135 10.9703 13.4335 11.2503 13.0885 11.2503ZM10.3802 1.66699C5.77854 1.66699 2.04688 5.39866 2.04688 10.0003C2.04688 14.602 5.77854 18.3337 10.3802 18.3337C14.9819 18.3337 18.7135 14.602 18.7135 10.0003C18.7135 5.39866 14.9819 1.66699 10.3802 1.66699Z" fill="#212121"/>
</svg>
