<svg width="16" height="16" viewBox="0 0 16 16" fill="none" xmlns="http://www.w3.org/2000/svg">
<path d="M15.8809 5.08333V12.7917C15.8809 14.2874 14.6683 15.5 13.1725 15.5H3.58919C2.09342 15.5 0.880859 14.2874 0.880859 12.7917V5.08333H15.8809ZM4.42253 10.5C3.84723 10.5 3.38086 10.9663 3.38086 11.5417C3.38086 12.117 3.84723 12.5833 4.42253 12.5833C4.99783 12.5833 5.46419 12.117 5.46419 11.5417C5.46419 10.9663 4.99783 10.5 4.42253 10.5ZM8.38086 10.5C7.80553 10.5 7.33919 10.9663 7.33919 11.5417C7.33919 12.117 7.80553 12.5833 8.38086 12.5833C8.95619 12.5833 9.42253 12.117 9.42253 11.5417C9.42253 10.9663 8.95619 10.5 8.38086 10.5ZM4.42253 6.75C3.84723 6.75 3.38086 7.21633 3.38086 7.79167C3.38086 8.367 3.84723 8.83333 4.42253 8.83333C4.99783 8.83333 5.46419 8.367 5.46419 7.79167C5.46419 7.21633 4.99783 6.75 4.42253 6.75ZM8.38086 6.75C7.80553 6.75 7.33919 7.21633 7.33919 7.79167C7.33919 8.367 7.80553 8.83333 8.38086 8.83333C8.95619 8.83333 9.42253 8.367 9.42253 7.79167C9.42253 7.21633 8.95619 6.75 8.38086 6.75ZM12.3392 6.75C11.7639 6.75 11.2975 7.21633 11.2975 7.79167C11.2975 8.367 11.7639 8.83333 12.3392 8.83333C12.9145 8.83333 13.3809 8.367 13.3809 7.79167C13.3809 7.21633 12.9145 6.75 12.3392 6.75ZM13.1725 0.5C14.6683 0.5 15.8809 1.71256 15.8809 3.20833V3.83333H0.880859V3.20833C0.880859 1.71256 2.09342 0.5 3.58919 0.5H13.1725Z" fill="#212121"/>
</svg>
