<svg width="21" height="20" viewBox="0 0 21 20" fill="none" xmlns="http://www.w3.org/2000/svg">
<path d="M7.04688 9.99967C8.88779 9.99967 10.3802 8.50726 10.3802 6.66634C10.3802 4.82539 8.88779 3.33301 7.04688 3.33301C5.20592 3.33301 3.71354 4.82539 3.71354 6.66634C3.71354 8.50726 5.20592 9.99967 7.04688 9.99967ZM14.5469 9.99967C15.9276 9.99967 17.0469 8.88042 17.0469 7.49967C17.0469 6.11897 15.9276 4.99967 14.5469 4.99967C13.1661 4.99967 12.0469 6.11897 12.0469 7.49967C12.0469 8.88042 13.1661 9.99967 14.5469 9.99967ZM3.92188 11.6663C2.88634 11.6663 2.04688 12.5058 2.04688 13.5413V13.7497C2.04688 13.7497 2.04688 17.4997 7.04688 17.4997C12.0469 17.4997 12.0469 13.7497 12.0469 13.7497V13.5413C12.0469 12.5058 11.2074 11.6663 10.1719 11.6663H3.92188ZM14.547 16.2497C13.571 16.2497 12.8236 16.0988 12.2513 15.8677C12.5363 15.3886 12.6901 14.9282 12.7739 14.5693C12.8242 14.3536 12.8506 14.1686 12.8646 14.0291C12.8716 13.959 12.8755 13.8997 12.8777 13.8528C12.8788 13.8293 12.8795 13.8088 12.8799 13.7916L12.8803 13.7682L12.8804 13.7583V13.7538V13.7517C12.8804 13.749 12.8804 13.7497 12.8804 13.7497V13.5413C12.8804 12.8146 12.5941 12.1548 12.1283 11.6683C12.1565 11.667 12.185 11.6663 12.2137 11.6663H16.8804C17.8929 11.6663 18.7137 12.4872 18.7137 13.4997C18.7137 13.4997 18.7137 16.2497 14.547 16.2497Z" fill="#212121"/>
</svg>
