<svg width="21" height="20" viewBox="0 0 21 20" fill="none" xmlns="http://www.w3.org/2000/svg">
<path d="M15.5119 14.0686L14.5228 15.0468C13.7937 15.7623 12.8478 16.6823 11.6845 17.8069C10.9577 18.5097 9.80451 18.5097 9.07776 17.8067L6.16848 14.9768C5.80285 14.6178 5.49679 14.3151 5.25026 14.0686C2.41658 11.2349 2.41658 6.64057 5.25026 3.8069C8.08393 0.973222 12.6783 0.973222 15.5119 3.8069C18.3456 6.64057 18.3456 11.2349 15.5119 14.0686ZM12.4646 9.16666C12.4646 8.01595 11.5318 7.08313 10.3811 7.08313C9.23043 7.08313 8.29758 8.01595 8.29758 9.16666C8.29758 10.3173 9.23043 11.2502 10.3811 11.2502C11.5318 11.2502 12.4646 10.3173 12.4646 9.16666Z" fill="#212121"/>
</svg>
